{"glyphs":{"0":{"ha":715,"x_min":-18,"x_max":734,"o":"m 96 96 q 85 155 96 111 q 74 250 75 200 l 74 858 q 81 937 74 901 q 106 1010 87 973 q 156 1073 125 1047 q 238 1115 186 1099 q 358 1131 290 1131 q 477 1115 426 1131 q 559 1073 528 1099 q 609 1011 589 1048 q 635 938 628 975 q 642 858 642 901 l 642 248 q 628 146 640 189 q 625 119 629 138 q 621 91 621 100 q 648 35 621 52 q 713 18 676 18 q 734 0 734 18 q 713 -18 734 -18 q 659 -11 684 -18 q 613 17 633 -3 q 586 65 592 36 q 358 -18 516 -18 q 130 65 200 -18 q 85 2 121 23 q 3 -18 48 -18 q -18 0 -18 -18 q 3 18 -18 18 q 72 40 47 18 q 96 96 96 62 m 358 1093 q 237 1076 286 1093 q 160 1025 187 1059 q 122 952 134 992 q 111 858 111 911 l 111 250 q 119 175 112 208 q 143 112 125 142 q 188 61 160 81 q 258 30 215 41 q 358 18 301 18 q 478 35 429 18 q 554 84 527 52 q 593 156 581 117 q 605 248 604 196 l 605 858 q 593 952 605 911 q 555 1025 582 992 q 479 1076 529 1059 q 358 1093 429 1093 z "},"1":{"ha":715,"x_min":-18,"x_max":734,"o":"m 405 1133 q 417 1128 411 1133 q 424 1114 424 1123 l 424 18 l 716 18 q 729 13 724 18 q 734 0 734 7 q 729 -13 734 -7 q 716 -18 724 -18 l 0 -18 q -13 -13 -7 -18 q -18 0 -18 -7 q -13 13 -18 7 q 0 18 -7 18 l 387 18 l 387 1065 l 96 731 q 82 724 90 724 q 68 730 75 724 q 62 744 62 736 q 67 755 62 750 l 391 1126 q 405 1133 397 1133 z "},"2":{"ha":715,"x_min":-18,"x_max":734,"o":"m 716 18 q 729 13 724 18 q 734 0 734 7 q 729 -13 734 -7 q 716 -18 724 -18 l 0 -18 q -13 -13 -7 -18 q -18 0 -18 -7 q -13 13 -18 7 q 0 18 -7 18 l 77 18 q 301 212 203 117 q 462 387 400 307 q 564 541 524 466 q 621 674 604 615 q 637 787 637 733 q 612 921 637 861 q 545 1017 587 981 q 454 1073 504 1054 q 351 1093 404 1093 q 261 1077 304 1093 q 185 1033 219 1062 q 131 955 151 1003 q 111 845 111 906 q 105 832 111 838 q 92 826 99 826 q 79 832 84 826 q 73 845 73 838 q 96 969 73 913 q 158 1059 119 1024 q 247 1112 197 1093 q 351 1130 296 1130 q 468 1107 411 1130 q 572 1043 526 1085 q 646 935 618 1002 q 674 787 674 869 q 646 634 674 715 q 558 457 618 553 q 391 249 498 361 q 137 18 284 137 l 716 18 z "},"3":{"ha":715,"x_min":-21,"x_max":734,"o":"m 640 279 q 633 188 640 225 q 620 130 627 151 q 613 91 613 108 q 644 35 613 52 q 713 18 675 18 q 734 0 734 18 q 713 -18 734 -18 q 630 1 668 -18 q 580 61 591 20 q 355 -18 511 -18 q 275 -5 315 -18 q 205 21 235 8 q 158 35 175 35 q 81 8 128 35 q -3 -18 34 -18 q -16 -13 -10 -18 q -21 0 -21 -7 q -16 13 -21 7 q -3 18 -10 18 q 45 32 20 18 q 98 58 70 45 q 158 71 127 71 q 213 58 182 71 q 282 32 245 45 q 355 18 319 18 q 475 35 427 18 q 551 85 524 51 q 591 166 579 119 q 602 279 602 212 q 597 361 602 326 q 576 431 591 396 q 534 487 560 465 q 463 523 507 509 q 358 537 418 537 l 233 537 q 220 543 226 537 q 214 555 214 548 q 220 569 214 563 q 233 574 226 574 l 358 574 q 464 588 419 574 q 535 624 509 602 q 578 681 562 646 q 600 751 594 715 q 605 833 605 787 q 600 916 605 880 q 578 986 594 951 q 535 1043 562 1021 q 464 1079 509 1065 q 358 1093 419 1093 q 277 1085 312 1093 q 227 1068 242 1077 q 201 1052 212 1059 q 184 1044 189 1044 q 170 1056 175 1044 q 174 1077 165 1068 q 358 1130 235 1130 q 465 1118 418 1130 q 543 1084 512 1106 q 593 1035 573 1061 q 624 972 614 1008 q 638 904 634 937 q 642 833 642 872 q 636 749 642 787 q 614 671 630 711 q 566 602 599 631 q 486 555 534 572 q 565 509 533 539 q 612 440 597 479 q 634 363 628 401 q 640 279 640 326 z "},"4":{"ha":715,"x_min":-18,"x_max":734,"o":"m 716 18 q 729 13 724 18 q 734 0 734 7 q 729 -13 734 -7 q 716 -18 724 -18 l 0 -18 q -13 -13 -7 -18 q -18 0 -18 -7 q -13 13 -18 7 q 0 18 -7 18 l 345 18 l 345 279 l 79 279 q 62 288 68 279 q 62 307 56 297 l 514 1116 q 529 1125 519 1125 q 543 1120 537 1125 q 549 1107 549 1114 q 547 1098 549 1103 l 111 317 l 345 317 l 345 443 q 350 456 345 450 q 363 461 355 461 q 376 456 370 461 q 381 443 381 450 l 381 317 l 614 317 q 627 311 621 317 q 632 298 632 306 q 627 285 632 291 q 614 279 621 279 l 381 279 l 381 18 l 716 18 z "},"5":{"ha":715,"x_min":-21,"x_max":734,"o":"m 640 279 q 633 188 640 225 q 620 130 627 151 q 613 91 613 108 q 644 35 613 52 q 713 18 675 18 q 734 0 734 18 q 713 -18 734 -18 q 630 1 668 -18 q 580 61 591 20 q 355 -18 511 -18 q 275 -5 315 -18 q 205 21 235 8 q 158 35 175 35 q 81 8 128 35 q -3 -18 34 -18 q -16 -13 -10 -18 q -21 0 -21 -7 q -16 13 -21 7 q -3 18 -10 18 q 45 32 20 18 q 98 58 70 45 q 158 71 127 71 q 213 58 182 71 q 282 32 245 45 q 355 18 319 18 q 475 35 427 18 q 551 85 524 51 q 591 166 579 119 q 602 279 602 212 q 597 361 602 326 q 576 431 591 396 q 534 487 560 465 q 463 523 507 509 q 357 537 418 537 q 273 530 311 537 q 214 513 234 522 q 176 496 193 503 q 152 488 159 488 q 138 495 144 488 q 134 511 132 503 l 134 1109 q 139 1122 134 1117 q 152 1128 144 1128 l 589 1128 q 602 1122 596 1128 q 608 1109 608 1116 q 602 1096 608 1101 q 589 1090 596 1090 l 170 1090 l 170 541 q 355 574 242 574 l 357 574 q 481 556 429 574 q 564 510 534 538 q 611 442 593 483 q 634 363 629 401 q 640 279 640 326 z "},"6":{"ha":715,"x_min":-18,"x_max":734,"o":"m 642 278 q 629 157 642 208 q 616 91 616 106 q 646 35 616 52 q 713 18 675 18 q 734 0 734 18 q 713 -18 734 -18 q 630 2 668 -18 q 582 62 592 22 q 358 -18 513 -18 q 133 62 201 -18 q 87 2 123 22 q 4 -18 51 -18 q -18 0 -18 -18 q 5 18 -18 18 q 74 40 51 18 q 97 96 97 61 q 85 161 97 106 q 74 279 74 215 q 119 665 74 481 q 160 793 136 735 q 226 906 184 850 q 322 1004 267 962 q 458 1080 378 1046 q 639 1132 538 1114 l 642 1132 q 655 1126 650 1132 q 660 1114 660 1121 q 645 1095 660 1098 q 490 1053 559 1080 q 369 992 420 1025 q 279 913 319 959 q 214 822 239 868 q 170 715 189 775 q 141 601 151 656 q 123 477 130 546 q 358 574 194 574 q 480 558 428 574 q 562 515 532 542 q 611 449 593 489 q 636 369 630 410 q 642 278 642 329 m 464 524 q 441 530 464 524 q 358 537 419 537 q 252 524 297 537 q 180 488 207 510 q 138 431 153 466 q 117 361 122 397 q 111 279 111 326 q 123 166 111 212 q 162 85 134 119 q 238 35 190 51 q 358 18 286 18 q 478 35 429 18 q 554 85 526 51 q 593 165 582 119 q 605 278 605 212 q 600 360 605 325 q 578 431 594 396 q 535 488 562 465 q 464 524 509 510 z "},"7":{"ha":715,"x_min":-18,"x_max":734,"o":"m 716 18 q 729 13 724 18 q 734 0 734 7 q 729 -13 734 -7 q 716 -18 724 -18 l 0 -18 q -13 -13 -7 -18 q -18 0 -18 -7 q -13 13 -18 7 q 0 18 -7 18 l 113 18 l 350 537 l 260 537 q 247 543 253 537 q 241 555 241 548 q 247 569 241 563 q 260 574 253 574 l 367 574 l 604 1093 l 99 1093 q 86 1099 92 1093 q 81 1112 81 1104 q 86 1125 81 1119 q 99 1131 92 1131 l 636 1131 q 652 1121 647 1131 q 652 1103 656 1112 l 409 574 l 500 574 q 514 569 508 574 q 519 555 519 563 q 514 543 519 548 q 500 537 508 537 l 392 537 l 154 18 l 716 18 z "},"8":{"ha":715,"x_min":-18,"x_max":734,"o":"m 464 524 q 441 530 464 524 q 358 537 419 537 q 252 524 297 537 q 180 488 207 510 q 138 431 153 466 q 117 361 122 397 q 111 279 111 326 q 115 209 111 240 q 128 148 119 178 q 156 94 138 117 q 200 54 174 72 q 267 27 227 37 q 358 18 307 18 q 464 32 419 18 q 535 68 509 45 q 578 125 562 90 q 600 195 594 159 q 605 278 605 231 q 600 360 605 325 q 578 431 594 396 q 535 488 562 465 q 464 524 509 510 m 464 1079 q 441 1086 464 1079 q 358 1093 419 1093 q 252 1079 297 1093 q 180 1043 207 1065 q 138 987 153 1021 q 117 917 122 952 q 111 834 111 881 q 117 752 111 787 q 138 681 122 716 q 180 624 153 646 q 252 588 207 602 q 358 574 297 574 q 464 588 419 574 q 535 624 509 602 q 578 681 562 646 q 600 751 594 715 q 605 833 605 787 q 600 916 605 880 q 578 986 594 951 q 535 1043 562 1021 q 464 1079 509 1065 m 642 278 q 630 159 642 212 q 617 91 617 106 q 646 35 617 52 q 713 18 675 18 q 734 0 734 18 q 713 -18 734 -18 q 631 2 668 -18 q 583 64 593 22 q 358 -18 513 -18 q 132 64 200 -18 q 87 2 123 22 q 4 -18 52 -18 q -14 -12 -9 -18 q -18 0 -18 -6 q 5 18 -18 18 q 73 40 51 18 q 96 96 96 61 q 92 121 96 103 q 90 146 89 138 q 74 279 74 198 q 77 346 74 315 q 91 410 81 376 q 117 470 100 444 q 162 519 134 496 q 229 555 191 542 q 151 599 182 571 q 103 666 119 627 q 80 744 87 704 q 74 834 74 784 q 79 919 74 881 q 102 998 85 956 q 150 1066 120 1039 q 233 1112 180 1094 q 358 1130 286 1130 q 480 1114 428 1130 q 562 1071 532 1097 q 611 1005 593 1044 q 636 925 630 965 q 642 833 642 884 q 639 766 642 797 q 626 702 635 736 q 599 642 616 668 q 554 592 583 615 q 488 556 526 570 q 565 512 534 541 q 613 446 597 484 q 636 368 629 408 q 642 278 642 328 z "},"9":{"ha":715,"x_min":-21,"x_max":734,"o":"m 640 831 l 640 354 q 636 253 640 300 q 628 177 633 205 q 618 127 623 148 q 610 95 614 106 q 607 81 607 83 q 643 36 607 54 q 713 18 680 18 q 734 0 734 18 q 713 -18 734 -18 q 630 1 668 -18 q 580 61 591 20 q 355 -18 511 -18 q 275 -5 315 -18 q 205 21 235 8 q 158 35 175 35 q 81 8 128 35 q -3 -18 34 -18 q -16 -13 -10 -18 q -21 0 -21 -7 q -16 13 -21 7 q -3 18 -10 18 q 45 32 20 18 q 98 58 70 45 q 158 71 127 71 q 213 58 182 71 q 282 32 245 45 q 355 18 319 18 q 555 88 501 18 q 600 254 593 138 q 603 363 602 287 l 603 624 q 390 537 547 537 q 172 631 224 537 q 140 804 142 686 q 140 834 140 817 q 140 881 140 865 q 143 927 140 898 q 149 973 145 956 q 162 1014 153 990 q 183 1053 171 1038 q 214 1084 195 1067 q 258 1109 233 1100 q 316 1124 282 1118 q 390 1130 349 1130 q 608 1035 556 1130 q 640 864 638 981 q 640 833 640 851 l 640 831 m 390 1093 q 205 1017 248 1093 q 177 871 179 972 q 177 834 177 857 q 177 787 177 804 q 180 744 178 770 q 185 703 182 718 q 197 667 189 688 q 215 635 204 646 q 241 610 225 623 q 278 590 258 597 q 327 579 299 583 q 390 574 355 574 q 447 577 421 574 q 493 588 473 581 q 528 603 513 595 q 555 625 544 611 q 575 650 567 638 q 588 681 583 661 q 596 714 593 700 q 601 751 600 728 q 603 791 602 775 q 603 833 603 807 q 603 876 603 860 q 601 916 602 892 q 596 953 600 939 q 588 986 593 967 q 575 1017 583 1006 q 555 1042 567 1029 q 528 1064 544 1056 q 493 1079 513 1072 q 447 1089 473 1086 q 390 1093 421 1093 z "}," ":{"ha":614,"x_min":-18,"x_max":633,"o":"m 614 18 q 627 13 622 18 q 633 0 633 7 q 627 -13 633 -7 q 614 -18 622 -18 l 0 -18 q -13 -13 -7 -18 q -18 0 -18 -7 q -13 13 -18 7 q 0 18 -7 18 l 614 18 z "},"!":{"ha":463,"x_min":-18,"x_max":481,"o":"m 0 18 q 64 27 34 18 q 113 46 94 36 q 164 66 132 57 q 231 75 195 75 q 284 53 262 75 q 306 0 306 31 q 300 -27 306 -14 q 343 -9 314 -22 q 399 11 372 4 q 463 18 427 18 q 476 13 471 18 q 481 0 481 7 q 476 -13 481 -7 q 463 -18 471 -18 q 386 -32 420 -18 q 315 -60 351 -46 q 231 -74 279 -74 q 179 -52 201 -74 q 157 0 157 -31 q 161 26 157 15 q 119 9 148 22 q 63 -12 90 -5 q 0 -18 37 -18 q -13 -13 -7 -18 q -18 0 -18 -7 q -13 13 -18 7 q 0 18 -7 18 m 252 196 q 246 183 252 189 q 233 178 241 178 q 220 183 226 178 q 215 196 215 189 l 215 926 q 220 939 215 933 q 233 945 226 945 q 246 939 241 945 q 252 926 252 933 l 252 196 z "},"\"":{"ha":648,"x_min":-18,"x_max":667,"o":"m 254 660 q 249 647 254 652 q 236 641 243 641 q 223 647 229 641 q 218 660 218 652 l 218 1002 q 223 1015 218 1010 q 236 1021 229 1021 q 249 1015 243 1021 q 254 1002 254 1010 l 254 660 m 421 660 q 416 647 421 652 q 403 641 410 641 q 390 647 395 641 q 385 660 385 652 l 385 1002 q 390 1015 385 1010 q 403 1021 395 1021 q 416 1015 410 1021 q 421 1002 421 1010 l 421 660 m 0 18 l 648 18 q 661 13 656 18 q 667 0 667 7 q 661 -13 667 -7 q 648 -18 656 -18 l 0 -18 q -13 -13 -7 -18 q -18 0 -18 -7 q -13 13 -18 7 q 0 18 -7 18 z "},"#":{"ha":648,"x_min":-18,"x_max":667,"o":"m 254 734 l 254 520 l 385 520 l 385 734 l 254 734 m 254 429 q 249 416 254 422 q 236 410 243 410 q 223 416 229 410 q 218 429 218 422 l 218 483 l 140 483 q 127 489 133 483 q 122 502 122 494 q 127 515 122 509 q 140 520 133 520 l 218 520 l 218 734 l 140 734 q 127 740 133 734 q 122 753 122 745 q 127 766 122 760 q 140 771 133 771 l 218 771 l 218 819 q 223 832 218 827 q 236 838 229 838 q 249 832 243 838 q 254 819 254 827 l 254 771 l 385 771 l 385 819 q 390 832 385 827 q 403 838 395 838 q 416 832 410 838 q 421 819 421 827 l 421 771 l 503 771 q 515 766 510 771 q 521 753 521 760 q 515 740 521 745 q 503 734 510 734 l 421 734 l 421 520 l 503 520 q 515 515 510 520 q 521 502 521 509 q 515 489 521 494 q 503 483 510 483 l 421 483 l 421 429 q 416 416 421 422 q 403 410 410 410 q 390 416 395 410 q 385 429 385 422 l 385 483 l 254 483 l 254 429 m 0 18 l 648 18 q 661 13 656 18 q 667 0 667 7 q 661 -13 667 -7 q 648 -18 656 -18 l 0 -18 q -13 -13 -7 -18 q -18 0 -18 -7 q -13 13 -18 7 q 0 18 -7 18 z "},"$":{"ha":1131,"x_min":-18,"x_max":1149,"o":"m 551 577 l 626 1090 q 555 1093 581 1093 q 376 1077 452 1093 q 252 1036 300 1062 q 173 967 203 1009 q 131 877 143 925 q 118 766 119 829 q 137 704 118 732 q 184 657 155 675 q 255 624 214 638 q 334 601 296 609 q 418 587 373 593 q 492 579 463 581 q 551 577 522 578 m 555 18 q 735 34 659 18 q 861 77 812 50 q 940 146 910 104 q 981 238 969 189 q 992 350 992 286 q 582 538 989 522 l 505 20 q 555 18 536 18 m 1029 350 q 1019 244 1029 290 q 999 173 1009 199 q 989 130 989 146 q 1030 53 989 87 q 1131 18 1070 18 q 1144 13 1139 18 q 1149 0 1149 7 q 1144 -13 1149 -7 q 1131 -18 1139 -18 q 1016 17 1065 -18 q 955 105 966 52 q 555 -18 848 -18 q 500 -17 517 -18 l 487 -106 q 469 -125 484 -125 q 455 -119 460 -125 q 450 -106 450 -114 l 464 -14 q 176 109 275 6 q 117 19 167 56 q 0 -18 66 -18 q -13 -13 -7 -18 q -18 0 -18 -7 q -13 13 -18 7 q 0 18 -7 18 q 101 53 61 18 q 142 130 142 87 q 136 160 142 140 q 81 350 81 246 q 86 363 81 359 q 100 368 92 368 q 118 348 115 368 q 130 280 121 328 q 163 187 139 233 q 170 175 167 183 q 469 22 250 41 l 545 540 q 464 544 504 541 q 376 555 423 547 q 288 573 329 562 q 208 602 247 584 q 141 642 169 620 q 97 696 114 665 q 81 766 81 728 q 107 921 83 857 q 185 1034 131 986 q 331 1106 239 1082 q 555 1130 422 1130 q 631 1127 600 1130 l 641 1192 q 646 1205 641 1200 q 659 1211 652 1211 q 672 1205 667 1211 q 677 1192 677 1200 l 667 1124 q 805 1091 745 1114 q 903 1036 865 1067 q 969 960 942 1004 q 1008 870 996 916 q 1028 768 1021 825 q 1024 754 1029 760 q 1010 749 1018 749 q 992 765 993 749 q 966 882 984 831 q 911 977 947 932 q 812 1049 874 1021 q 662 1087 749 1077 l 587 576 q 651 572 621 574 q 729 564 682 570 q 813 548 775 557 q 893 520 852 538 q 962 481 934 503 q 1009 425 991 458 q 1029 350 1028 391 z "},"%":{"ha":648,"x_min":-18,"x_max":667,"o":"m 545 195 q 587 178 572 195 q 602 141 602 161 q 584 99 602 115 q 547 84 567 84 q 506 101 521 84 q 491 139 491 119 q 508 180 491 165 q 545 195 526 195 m 560 127 q 563 130 560 127 q 565 140 565 133 q 560 153 565 148 q 545 158 555 158 q 533 152 538 158 q 528 139 528 146 q 533 126 528 132 q 548 121 538 121 q 560 127 555 121 m 94 566 q 52 583 67 566 q 37 621 37 600 q 55 662 37 647 q 92 677 72 677 l 93 677 q 134 659 119 676 q 148 623 148 642 q 131 581 148 596 q 94 566 113 566 m 106 609 q 109 612 106 609 q 111 622 111 614 q 106 634 111 629 q 92 640 101 640 q 79 634 84 640 q 75 621 75 628 q 80 608 75 613 q 94 603 85 603 q 106 609 102 603 m 648 18 q 661 13 656 18 q 667 0 667 7 q 661 -13 667 -7 q 648 -18 656 -18 l 110 -18 l 62 -88 q 47 -96 57 -96 q 31 -86 37 -96 q 32 -67 26 -76 l 65 -18 l 0 -18 q -13 -13 -7 -18 q -18 0 -18 -7 q -13 13 -18 7 q 0 18 -7 18 l 90 18 l 565 716 q 581 724 570 724 q 597 714 591 724 q 596 695 602 704 l 135 18 l 648 18 z "},"&":{"ha":722,"x_min":-18,"x_max":741,"o":"m 270 507 q 328 545 307 530 q 376 583 349 559 q 422 634 404 606 q 452 694 441 661 q 458 738 458 715 q 408 856 458 803 q 288 908 357 908 q 165 852 217 908 q 113 720 113 795 q 125 649 113 681 q 160 591 137 616 q 209 547 184 565 q 270 507 234 528 m 496 738 q 476 656 496 697 q 435 589 457 615 q 378 536 412 564 q 334 503 345 509 q 307 488 323 496 l 307 487 q 437 406 401 435 q 538 229 529 334 q 566 123 543 170 q 650 276 614 180 q 666 288 654 288 q 680 283 673 288 q 686 270 686 278 q 674 236 686 264 q 638 164 663 208 q 586 90 614 121 q 722 18 637 18 q 735 13 730 18 q 741 0 741 7 q 735 -13 741 -7 q 722 -18 730 -18 q 559 63 621 -18 q 334 -18 471 -18 q 218 8 272 -18 q 126 79 163 35 q 87 6 122 30 q 3 -18 52 -18 q -18 0 -18 -18 q 3 18 -18 18 q 68 40 47 18 q 90 96 90 61 q 78 166 90 129 q 66 237 66 203 q 80 315 66 277 q 111 377 93 352 q 154 426 129 403 q 196 460 179 449 q 230 483 212 472 q 235 486 233 485 q 173 527 199 507 q 124 576 147 548 q 88 640 100 604 q 76 720 76 676 q 138 878 76 810 q 288 945 200 945 q 434 882 372 945 q 496 738 496 819 m 271 465 q 258 457 271 465 q 239 445 246 450 q 216 429 231 439 q 190 408 200 418 q 164 383 179 397 q 140 353 150 368 q 121 319 130 337 q 107 280 112 301 q 103 237 103 259 q 132 133 103 183 q 215 51 161 83 q 334 18 269 18 q 540 94 460 18 q 501 227 507 154 q 494 263 500 245 q 484 294 489 281 q 466 323 479 308 q 447 348 454 339 q 421 372 440 357 q 396 392 402 387 q 365 412 389 398 q 336 430 341 427 q 302 448 330 433 q 271 465 275 463 z "},"'":{"ha":644,"x_min":-18,"x_max":663,"o":"m 153 136 q 169 146 158 146 q 188 125 188 146 q 187 114 188 120 q 186 106 186 107 q 194 78 186 91 q 219 57 201 66 q 258 41 237 48 q 313 31 278 35 q 378 24 347 26 q 457 20 408 21 q 545 19 507 19 q 645 18 584 18 q 658 13 652 18 q 663 0 663 7 q 658 -13 663 -7 q 645 -18 652 -18 q 597 -19 629 -18 q 549 -19 566 -19 q 420 -17 473 -19 q 310 -7 368 -14 q 216 18 253 1 q 161 60 178 35 q 134 21 150 37 q 84 -6 119 5 q 0 -18 50 -18 q -13 -13 -7 -18 q -18 0 -18 -7 q -13 13 -18 7 q 0 18 -7 18 q 55 23 32 18 q 91 35 78 28 q 115 55 104 41 q 129 78 125 68 q 141 106 134 87 q 153 136 148 125 m 427 889 q 404 771 427 838 q 352 660 380 705 q 309 614 324 614 q 296 621 302 614 q 290 634 290 627 q 298 650 290 640 q 318 677 306 660 q 344 721 331 695 q 370 791 357 746 q 390 891 383 836 q 396 903 391 899 q 408 907 401 907 q 421 902 416 907 q 427 889 427 897 z "},"(":{"ha":648,"x_min":-18,"x_max":667,"o":"m 648 18 q 661 13 656 18 q 667 0 667 7 q 661 -13 667 -7 q 648 -18 656 -18 l 196 -18 q 429 -543 249 -278 q 430 -562 435 -552 q 414 -572 425 -572 q 399 -564 404 -572 q 158 -18 212 -287 l 0 -18 q -13 -13 -7 -18 q -18 0 -18 -7 q -13 13 -18 7 q 0 18 -7 18 l 152 18 q 137 196 137 111 q 399 937 137 570 q 414 945 405 945 q 431 934 425 945 q 429 915 436 924 q 174 196 174 557 q 189 18 174 105 l 648 18 z "},")":{"ha":648,"x_min":-18,"x_max":667,"o":"m 648 18 q 661 13 656 18 q 667 0 667 7 q 661 -13 667 -7 q 648 -18 656 -18 l 477 -18 q 237 -564 423 -288 q 221 -572 232 -572 q 205 -562 210 -572 q 206 -543 200 -552 q 439 -18 385 -275 l 0 -18 q -13 -13 -7 -18 q -18 0 -18 -7 q -13 13 -18 7 q 0 18 -7 18 l 446 18 q 461 196 461 109 q 206 915 461 557 q 204 934 199 924 q 221 945 210 945 q 237 937 231 945 q 498 196 498 571 q 484 18 498 107 l 648 18 z "},"*":{"ha":648,"x_min":-18,"x_max":667,"o":"m 151 395 q 156 409 151 403 q 169 414 161 414 q 182 409 176 414 l 305 292 l 305 440 q 311 453 305 448 q 324 458 317 458 q 337 453 332 458 q 342 440 342 448 l 342 292 l 462 406 q 475 412 467 412 q 488 406 483 412 q 493 393 493 400 q 488 379 493 385 l 370 267 l 555 267 q 569 261 563 267 q 574 248 574 255 q 569 235 574 240 q 555 229 563 229 l 371 229 l 552 58 q 570 46 558 54 q 587 35 581 38 q 603 26 593 31 q 624 20 613 22 q 648 18 635 18 q 661 13 656 18 q 667 0 667 7 q 661 -13 667 -7 q 648 -18 656 -18 q 589 -6 619 -18 q 544 18 559 5 l 528 29 l 342 205 l 342 62 q 337 50 342 55 q 324 44 332 44 q 311 50 317 44 q 305 62 305 55 l 305 205 l 120 29 q 103 16 114 24 q 61 -5 92 8 q 0 -18 29 -18 q -13 -13 -7 -18 q -18 0 -18 -7 q -13 13 -18 7 q 0 18 -7 18 q 24 20 14 18 q 45 26 35 22 q 61 35 55 31 q 79 46 67 38 q 96 58 90 54 l 276 229 l 104 229 q 91 235 97 229 q 85 248 85 240 q 91 261 85 255 q 104 267 97 267 l 277 267 l 156 382 q 151 395 151 387 z "},"+":{"ha":652,"x_min":-18,"x_max":667,"o":"m 648 18 q 661 13 656 18 q 667 0 667 7 q 661 -13 667 -7 q 648 -18 656 -18 l 0 -18 q -13 -13 -7 -18 q -18 0 -18 -7 q -13 13 -18 7 q 0 18 -7 18 l 648 18 m 353 81 q 348 68 353 74 q 335 63 342 63 q 322 68 328 63 q 317 81 317 74 l 317 256 l 134 256 q 121 262 127 256 q 116 275 116 267 q 121 288 116 282 q 134 293 127 293 l 317 293 l 317 474 q 322 487 317 481 q 335 493 328 493 q 348 487 342 493 q 353 474 353 481 l 353 293 l 531 293 q 544 288 538 293 q 549 275 549 282 q 544 262 549 267 q 531 256 538 256 l 353 256 l 353 81 z "},",":{"ha":370,"x_min":-17,"x_max":389,"o":"m 296 7 q 241 -31 274 7 q 180 -115 208 -69 q 123 -199 153 -161 q 77 -237 94 -237 q 61 -228 66 -237 q 61 -209 56 -219 q 88 -168 65 -202 q 129 -104 111 -133 q 162 -33 146 -75 q 176 42 177 9 q 135 26 165 41 q 67 -4 104 11 q 1 -18 30 -18 q -12 -13 -6 -18 q -17 0 -17 -7 q -12 13 -17 7 q 1 18 -6 18 q 95 49 33 18 q 176 79 158 79 q 213 38 213 79 q 201 -24 213 9 q 296 43 252 43 q 336 32 317 43 q 357 20 354 20 l 360 20 q 389 0 389 20 q 388 -7 389 -4 q 385 -13 387 -11 q 382 -16 383 -14 q 377 -17 380 -17 q 372 -18 373 -18 q 366 -18 370 -18 q 360 -18 361 -18 l 357 -18 q 324 -5 338 -18 q 296 7 309 7 z "},"-":{"ha":652,"x_min":-18,"x_max":667,"o":"m 648 18 q 661 13 656 18 q 667 0 667 7 q 661 -13 667 -7 q 648 -18 656 -18 l 0 -18 q -13 -13 -7 -18 q -18 0 -18 -7 q -13 13 -18 7 q 0 18 -7 18 l 648 18 m 531 293 q 544 288 538 293 q 549 275 549 282 q 544 262 549 267 q 531 256 538 256 l 134 256 q 121 262 127 256 q 116 275 116 267 q 121 288 116 282 q 134 293 127 293 l 531 293 z "},".":{"ha":476,"x_min":-18,"x_max":481,"o":"m 231 -74 q 328 -54 288 -68 q 397 -29 368 -40 q 463 -18 426 -18 q 476 -13 471 -18 q 481 0 481 -7 q 476 13 481 7 q 463 18 471 18 q 398 7 429 14 q 351 -6 368 -1 q 319 -19 335 -12 q 301 -26 303 -26 q 306 0 306 -15 q 283 52 306 30 q 231 75 261 75 q 202 68 216 75 q 107 44 142 57 q 54 24 73 31 q 0 18 36 18 q -13 13 -7 18 q -18 0 -18 7 q -13 -13 -18 -7 q 0 -18 -7 -18 q 63 -7 33 -14 q 110 5 94 -1 q 142 18 125 11 q 161 26 159 25 q 157 0 157 12 q 179 -52 157 -30 q 231 -74 201 -74 z "},"/":{"ha":648,"x_min":-18,"x_max":667,"o":"m 648 18 q 661 13 656 18 q 667 0 667 7 q 661 -13 667 -7 q 648 -18 656 -18 l 110 -18 l 62 -88 q 47 -96 57 -96 q 31 -86 37 -96 q 32 -67 26 -76 l 65 -18 l 0 -18 q -13 -13 -7 -18 q -18 0 -18 -7 q -13 13 -18 7 q 0 18 -7 18 l 90 18 l 565 716 q 581 724 570 724 q 597 714 591 724 q 596 695 602 704 l 135 18 l 648 18 z "},":":{"ha":500,"x_min":-18,"x_max":519,"o":"m 197 384 q 208 395 197 384 q 250 406 219 406 q 302 384 280 406 q 324 332 324 362 q 305 282 324 302 q 354 235 332 268 q 392 166 376 202 q 422 96 407 130 q 457 40 437 62 q 500 18 476 18 q 513 13 507 18 q 519 0 519 7 q 513 -13 519 -7 q 500 -18 507 -18 q 436 10 464 -18 q 389 79 408 39 q 354 160 371 119 q 312 229 336 201 q 258 258 288 258 l 250 258 q 197 279 219 258 q 176 332 176 301 q 197 384 176 362 m 0 18 q 122 46 50 18 q 250 75 194 75 q 302 53 280 75 q 324 0 324 31 q 302 -52 324 -31 q 250 -74 280 -74 q 197 -52 219 -74 q 176 0 176 -31 q 181 28 176 14 q 131 10 163 23 q 68 -11 98 -3 q 0 -18 37 -18 q -13 -13 -7 -18 q -18 0 -18 -7 q -13 13 -18 7 q 0 18 -7 18 z "},";":{"ha":370,"x_min":-17,"x_max":389,"o":"m 237 258 q 234 256 237 258 q 232 245 232 253 q 237 233 232 238 q 252 227 242 227 q 268 245 268 227 q 263 258 268 253 q 249 264 258 264 q 237 258 241 264 m 249 301 q 291 283 275 301 q 306 246 306 266 q 289 205 306 220 q 251 190 271 190 q 210 207 224 190 q 195 244 195 224 q 212 286 195 271 q 249 301 229 301 m 296 7 q 241 -31 274 7 q 180 -115 208 -69 q 123 -199 153 -161 q 77 -237 94 -237 q 61 -228 66 -237 q 61 -209 56 -219 q 90 -166 67 -198 q 129 -107 113 -134 q 161 -41 146 -81 q 176 34 176 -1 l 176 42 q 135 26 165 41 q 67 -4 104 11 q 1 -18 30 -18 q -12 -13 -6 -18 q -17 0 -17 -7 q -12 13 -17 7 q 1 18 -6 18 q 95 49 33 18 q 176 79 158 79 q 213 38 213 79 q 201 -24 213 9 q 296 43 252 43 q 337 32 318 43 q 360 20 355 20 q 389 0 389 20 q 388 -7 389 -4 q 385 -13 387 -11 q 382 -16 383 -14 q 377 -17 380 -17 q 372 -18 373 -18 q 366 -18 370 -18 q 360 -18 361 -18 q 325 -5 340 -18 q 296 7 309 7 z "},"<":{"ha":741,"x_min":-18,"x_max":760,"o":"m 391 270 q 146 49 235 117 q 0 -18 56 -18 q -13 -13 -7 -18 q -18 0 -18 -7 q -13 13 -18 7 q 0 18 -7 18 q 101 63 35 18 q 222 160 166 108 q 329 261 279 212 q 382 312 380 311 l 635 569 q 648 574 640 574 q 662 569 656 574 q 667 555 667 563 q 661 543 667 548 l 417 296 l 662 52 q 739 18 692 18 q 755 12 750 18 q 760 0 760 6 q 755 -12 760 -6 q 739 -18 750 -18 q 635 26 673 -18 l 391 270 z "},"=":{"ha":652,"x_min":-18,"x_max":667,"o":"m 648 18 q 661 13 656 18 q 667 0 667 7 q 661 -13 667 -7 q 648 -18 656 -18 l 0 -18 q -13 -13 -7 -18 q -18 0 -18 -7 q -13 13 -18 7 q 0 18 -7 18 l 648 18 m 531 429 q 544 423 538 429 q 549 410 549 418 q 544 397 549 403 q 531 392 538 392 l 134 392 q 121 397 127 392 q 116 410 116 403 q 121 423 116 418 q 134 429 127 429 l 531 429 m 531 212 q 544 206 538 212 q 549 193 549 201 q 544 180 549 186 q 531 175 538 175 l 134 175 q 121 180 127 175 q 116 193 116 186 q 121 206 116 201 q 134 212 127 212 l 531 212 z "},">":{"ha":741,"x_min":-18,"x_max":760,"o":"m 74 555 q 80 569 74 564 q 93 574 85 574 q 106 569 100 574 l 519 159 q 646 58 612 80 q 741 18 704 18 q 754 13 748 18 q 760 0 760 7 q 754 -13 760 -7 q 741 -18 748 -18 q 717 -16 730 -18 q 694 -9 705 -13 q 669 2 683 -6 q 645 15 654 9 q 619 32 635 20 q 594 50 603 43 q 569 70 586 56 q 545 90 551 84 q 520 110 538 95 q 498 130 503 125 q 458 165 479 145 q 424 197 437 185 q 385 236 412 210 q 351 271 359 263 l 106 26 q 1 -18 67 -18 q -14 -13 -9 -18 q -18 0 -18 -7 q 1 18 -18 18 q 79 52 49 18 l 325 297 l 79 543 q 74 555 74 548 z "},"?":{"ha":463,"x_min":-18,"x_max":481,"o":"m 0 18 q 64 27 34 18 q 113 46 94 36 q 164 66 132 57 q 231 75 195 75 q 284 53 262 75 q 306 0 306 31 q 300 -27 306 -14 q 343 -9 314 -22 q 399 11 372 4 q 463 18 427 18 q 476 13 471 18 q 481 0 481 7 q 476 -13 481 -7 q 463 -18 471 -18 q 386 -32 420 -18 q 315 -60 351 -46 q 231 -74 279 -74 q 179 -52 201 -74 q 157 0 157 -31 q 161 26 157 15 q 119 9 148 22 q 63 -12 90 -5 q 0 -18 37 -18 q -13 -13 -7 -18 q -18 0 -18 -7 q -13 13 -18 7 q 0 18 -7 18 m 262 222 q 258 203 262 209 q 244 197 254 197 q 232 202 237 197 q 226 214 227 207 q 219 359 219 328 q 238 461 219 412 q 283 547 256 510 q 336 617 309 583 q 381 686 363 650 q 400 753 400 721 q 358 862 400 817 q 255 907 315 907 q 158 897 197 907 q 101 864 120 886 q 74 816 81 842 q 66 752 66 790 q 61 739 66 745 q 48 733 56 733 q 35 739 41 733 q 30 752 30 745 q 80 897 30 848 q 255 945 131 945 q 385 888 332 945 q 437 753 437 831 q 419 675 437 713 q 373 604 400 637 q 320 537 347 571 q 274 456 293 503 q 256 359 256 410 q 259 273 256 318 q 262 222 262 229 z "},"@":{"ha":894,"x_min":-18,"x_max":913,"o":"m 469 686 q 631 670 566 686 q 742 615 696 654 q 808 510 788 576 q 829 344 829 444 q 820 210 829 283 q 798 111 811 136 q 747 83 783 83 q 665 111 684 83 q 434 -5 621 -5 q 224 75 275 -5 q 192 228 194 123 q 191 279 191 245 l 191 298 q 192 338 191 323 q 194 377 192 354 q 199 415 195 400 q 209 450 203 431 q 224 483 214 470 q 246 511 233 496 q 277 535 259 526 q 318 552 295 544 q 370 564 340 560 q 434 568 399 568 q 648 485 593 568 l 647 544 q 653 557 647 551 q 666 562 659 562 q 679 557 673 562 q 684 544 684 551 l 686 243 l 686 240 q 685 198 686 222 q 684 166 684 174 q 697 130 684 141 q 743 119 711 119 q 763 128 758 119 q 772 154 769 137 q 791 349 791 264 q 773 496 791 438 q 715 589 755 555 q 618 638 675 624 q 477 652 562 652 q 301 631 372 652 q 188 564 231 610 q 126 447 144 517 q 107 275 107 378 l 107 271 q 124 128 107 189 q 170 28 141 66 q 244 -35 199 -11 q 337 -67 288 -58 q 450 -77 387 -77 q 608 -67 545 -77 q 700 -43 671 -57 q 752 -15 730 -29 q 809 8 775 -1 q 895 18 842 18 q 907 13 902 18 q 913 0 913 7 q 907 -13 913 -7 q 895 -18 902 -18 q 817 -28 848 -18 q 763 -52 786 -38 q 710 -80 741 -66 q 614 -103 680 -94 q 452 -113 549 -113 q 349 -106 396 -113 q 258 -82 302 -98 q 180 -36 214 -65 q 122 35 147 -7 q 84 136 97 76 q 71 271 71 195 l 71 275 q 91 455 71 380 q 157 583 111 530 q 280 661 203 635 q 469 686 357 686 m 434 530 q 374 526 401 530 q 327 516 347 522 q 291 499 307 511 q 265 477 275 488 q 247 448 254 467 q 236 416 240 430 q 231 378 233 402 q 228 338 229 355 q 228 294 228 322 l 228 263 q 228 219 228 235 q 231 179 229 203 q 236 142 233 156 q 247 111 240 129 q 265 83 254 94 q 291 62 275 73 q 327 45 307 51 q 374 36 347 39 q 434 32 401 32 q 617 97 573 32 q 646 233 644 138 q 647 278 647 249 q 634 424 647 382 q 535 518 612 496 q 434 530 494 530 m 102 161 q 127 91 127 161 q 91 8 127 35 q 3 -18 55 -18 q -18 0 -18 -18 q 3 18 -18 18 q 68 40 47 18 q 90 96 90 61 q 87 120 90 104 q 84 142 84 136 q 102 161 84 161 z "},"A":{"ha":1111,"x_min":-18,"x_max":1130,"o":"m 377 574 l 746 574 l 558 1061 l 377 574 m 541 1120 q 558 1131 545 1130 q 576 1120 570 1131 q 734 712 637 963 q 938 203 890 307 q 1042 40 996 75 q 1111 18 1070 18 q 1124 13 1118 18 q 1130 0 1130 7 q 1124 -13 1130 -7 q 1111 -18 1118 -18 q 1067 -14 1086 -18 q 1027 6 1048 -9 q 990 38 1007 20 q 953 91 974 56 q 915 163 932 126 q 870 261 897 199 q 820 383 844 322 q 760 537 796 444 l 363 537 q 307 388 329 445 q 260 269 286 332 q 217 170 235 205 q 178 98 200 135 q 138 42 156 60 q 98 8 121 24 q 52 -13 75 -7 q 0 -18 28 -18 q -13 -13 -7 -18 q -18 0 -18 -7 q -13 13 -18 7 q 0 18 -7 18 q 106 60 64 18 q 218 262 154 109 q 391 722 249 339 q 541 1120 471 938 z "},"B":{"ha":781,"x_min":-18,"x_max":800,"o":"m 111 537 l 111 77 q 201 28 146 39 q 356 18 256 18 q 511 54 441 18 q 605 153 581 90 q 615 234 615 214 q 602 359 615 305 q 567 446 589 412 q 512 500 545 479 q 441 529 479 521 q 357 537 404 537 l 111 537 m 111 993 l 111 574 l 355 574 q 543 630 471 574 q 615 789 615 686 q 602 914 615 861 q 567 1002 589 968 q 512 1057 545 1036 q 442 1087 479 1078 q 358 1095 405 1095 q 216 1064 286 1095 q 111 993 145 1032 m -18 0 q -4 18 -18 14 q 28 20 11 21 q 59 34 45 19 q 74 83 74 49 l 74 1111 q 80 1124 74 1118 q 93 1130 85 1130 q 106 1124 100 1130 q 111 1111 111 1118 l 111 1044 q 225 1107 158 1082 q 358 1133 292 1133 q 498 1107 440 1133 q 589 1035 556 1082 q 637 928 623 988 q 652 789 652 868 l 652 784 q 652 758 652 769 q 648 727 651 747 q 638 691 644 707 q 619 655 632 675 q 589 618 606 635 q 544 586 571 602 q 481 557 516 569 q 652 234 652 497 q 646 181 652 211 q 640 130 640 151 q 680 53 640 87 q 781 18 720 18 q 794 13 789 18 q 800 0 800 7 q 794 -13 800 -7 q 781 -18 789 -18 q 674 12 722 -18 q 610 87 627 41 q 336 -18 530 -18 q 197 -8 251 -18 q 104 33 142 1 q 0 -18 84 -18 q -13 -13 -7 -18 q -18 0 -18 -7 z "},"C":{"ha":1111,"x_min":-18,"x_max":1130,"o":"m 941 905 q 927 915 934 905 q 909 942 920 926 q 884 978 899 958 q 842 1019 869 998 q 777 1055 814 1039 q 679 1082 739 1072 q 544 1093 618 1093 l 542 1093 q 187 961 283 1092 q 115 709 125 876 q 111 558 111 657 q 124 312 111 388 q 248 92 150 161 q 555 18 353 18 q 641 32 598 18 q 712 63 683 46 q 784 93 742 79 q 867 107 825 107 q 927 98 901 107 q 972 76 954 89 q 1008 50 990 62 q 1052 27 1026 37 q 1111 18 1078 18 q 1124 13 1118 18 q 1130 0 1130 7 q 1124 -13 1130 -7 q 1111 -18 1118 -18 q 1044 -9 1074 -18 q 997 13 1015 0 q 960 39 978 26 q 919 61 943 52 q 867 71 895 71 q 792 57 831 71 q 723 26 753 43 q 647 -4 692 9 q 555 -18 602 -18 q 176 106 289 -18 q 115 17 165 53 q 0 -18 66 -18 q -13 -13 -7 -18 q -18 0 -18 -7 q -13 13 -18 7 q 0 18 -7 18 q 101 53 61 18 q 142 130 142 87 q 135 163 142 149 q 118 198 127 178 q 98 254 108 219 q 81 368 88 290 q 74 558 74 446 q 90 819 74 734 q 245 1065 123 991 q 541 1130 353 1130 l 542 1130 q 809 1081 711 1130 q 958 932 908 1033 q 960 924 960 928 q 954 910 960 916 q 941 905 948 905 z "},"D":{"ha":1037,"x_min":-18,"x_max":1055,"o":"m 111 959 l 111 153 q 481 18 209 18 q 848 148 748 18 q 922 393 911 231 q 926 557 926 446 q 913 799 926 724 q 791 1019 888 949 q 481 1093 687 1093 q 111 959 210 1093 m 963 557 q 956 367 963 446 q 939 254 949 289 q 919 198 929 219 q 902 163 909 178 q 895 130 895 149 q 936 53 895 87 q 1037 18 976 18 q 1050 13 1044 18 q 1055 0 1055 7 q 1050 -13 1055 -7 q 1037 -18 1044 -18 q 922 17 971 -18 q 861 106 872 53 q 481 -18 748 -18 q 111 96 224 -18 l 111 83 q 84 4 111 27 q 0 -18 56 -18 q -13 -13 -7 -18 q -18 0 -18 -7 q -4 18 -18 14 q 28 20 11 21 q 59 34 45 19 q 74 83 74 49 l 74 1111 q 80 1124 74 1118 q 93 1130 85 1130 q 106 1124 100 1130 q 111 1111 111 1118 l 111 1017 q 481 1130 226 1130 q 886 975 779 1130 q 960 706 950 882 q 963 557 963 656 z "},"E":{"ha":739,"x_min":-18,"x_max":758,"o":"m -18 0 q -4 18 -18 14 q 28 20 11 21 q 59 34 45 19 q 74 83 74 49 l 74 1111 q 80 1124 74 1118 q 93 1130 85 1130 l 738 1130 q 751 1124 745 1130 q 757 1111 757 1118 q 751 1098 757 1103 q 738 1093 745 1093 l 111 1093 l 111 574 l 687 574 q 700 569 694 574 q 705 555 705 563 q 700 543 705 548 q 687 537 694 537 l 111 537 l 111 81 q 183 18 111 20 l 739 18 q 752 13 746 18 q 758 0 758 7 q 752 -13 758 -7 q 739 -18 746 -18 l 183 -18 q 95 17 123 -18 q 0 -18 71 -18 q -9 -14 -5 -18 q -16 -5 -14 -9 l -18 0 z "},"F":{"ha":741,"x_min":-18,"x_max":760,"o":"m 515 574 q 543 573 520 574 q 579 572 565 572 q 645 596 645 572 q 626 618 645 607 q 589 629 608 629 q 515 574 549 629 m -18 0 q -4 18 -18 14 q 28 20 11 21 q 59 34 45 19 q 74 83 74 49 l 74 1111 q 80 1124 74 1118 q 93 1130 85 1130 l 740 1130 q 753 1124 747 1130 q 759 1111 759 1118 q 753 1098 759 1103 q 740 1093 747 1093 l 111 1093 l 111 574 l 472 574 q 588 667 517 667 q 655 643 629 667 q 682 595 682 620 q 676 572 682 582 q 659 556 671 562 q 636 547 648 551 q 605 542 624 543 q 571 539 585 540 q 532 538 556 538 q 495 537 509 538 q 462 363 462 458 q 486 217 462 283 q 551 107 511 150 q 640 42 591 65 q 741 18 690 18 q 754 13 748 18 q 760 0 760 7 q 754 -13 760 -7 q 741 -18 748 -18 q 630 6 685 -18 q 529 76 575 31 q 454 194 483 121 q 425 353 425 266 q 456 537 425 453 l 111 537 l 111 83 q 84 4 111 27 q 0 -18 56 -18 q -13 -13 -7 -18 q -18 0 -18 -7 z "},"G":{"ha":1111,"x_min":-18,"x_max":1173,"o":"m 142 130 q 135 163 142 149 q 118 198 127 178 q 98 254 108 219 q 81 368 88 290 q 74 558 74 446 q 87 805 74 727 q 226 1050 115 973 q 555 1130 340 1130 q 777 1101 685 1130 q 919 1023 868 1072 q 998 901 970 974 q 1000 895 1000 897 q 994 881 1000 886 q 980 876 987 876 q 964 888 968 876 q 916 971 945 935 q 838 1035 886 1007 q 720 1078 791 1063 q 555 1093 648 1093 q 189 964 289 1093 q 115 722 126 883 q 111 558 111 669 q 124 312 111 388 q 248 92 150 161 q 555 18 353 18 q 693 28 631 18 q 798 56 754 39 q 876 102 842 74 q 930 160 909 130 q 965 231 951 191 q 986 310 979 271 q 996 396 993 348 l 742 396 q 729 401 734 396 q 724 415 724 407 q 729 428 724 423 q 742 433 734 433 l 1154 433 q 1167 428 1161 433 q 1173 415 1173 422 q 1167 402 1173 408 q 1154 396 1161 396 l 1035 396 q 975 161 1032 256 q 970 130 970 148 q 1010 53 970 87 q 1111 18 1050 18 q 1124 13 1118 18 q 1130 0 1130 7 q 1124 -13 1130 -7 q 1111 -18 1118 -18 q 995 18 1045 -18 q 935 107 945 54 q 555 -18 817 -18 q 176 106 289 -18 q 115 17 165 53 q 0 -18 66 -18 q -13 -13 -7 -18 q -18 0 -18 -7 q -13 13 -18 7 q 0 18 -7 18 q 101 53 61 18 q 142 130 142 87 z "},"H":{"ha":852,"x_min":-18,"x_max":870,"o":"m -18 0 q -4 18 -18 14 q 28 20 11 21 q 59 34 45 19 q 74 83 74 49 l 74 1111 q 80 1124 74 1118 q 93 1130 85 1130 q 106 1124 100 1130 q 111 1111 111 1118 l 111 574 l 741 574 l 741 1111 q 746 1124 741 1118 q 760 1130 752 1130 q 772 1124 767 1130 q 778 1111 778 1118 l 778 83 q 785 45 778 60 q 802 26 791 31 q 824 20 812 22 q 846 19 836 18 q 863 15 857 19 q 870 0 870 10 q 865 -13 870 -7 q 852 -18 859 -18 q 768 4 795 -18 q 741 83 741 27 l 741 537 l 111 537 l 111 83 q 84 4 111 27 q 0 -18 56 -18 q -13 -13 -7 -18 q -18 0 -18 -7 z "},"I":{"ha":268,"x_min":-18,"x_max":287,"o":"m 269 18 q 281 13 276 18 q 287 0 287 7 q 281 -13 287 -7 q 269 -18 276 -18 q 138 29 176 -18 q 0 -18 99 -18 q -13 -13 -7 -18 q -18 0 -18 -7 q -13 13 -18 7 q 0 18 -7 18 q 85 34 51 18 q 120 83 120 50 l 120 1093 l 43 1093 q 30 1098 35 1093 q 24 1111 24 1103 q 30 1124 24 1118 q 43 1130 35 1130 l 228 1130 q 241 1124 235 1130 q 246 1111 246 1118 q 241 1098 246 1103 q 228 1093 235 1093 l 157 1093 l 157 85 q 176 44 157 60 q 217 23 194 28 q 269 18 240 18 z "},"J":{"ha":989,"x_min":-19,"x_max":1048,"o":"m 233 130 q 195 115 212 130 q 162 78 178 100 q 127 34 146 56 q 76 -4 109 12 q 0 -19 43 -19 q -13 -13 -7 -19 q -19 0 -19 -7 q -13 13 -19 7 q 0 18 -7 18 q 75 38 46 18 q 127 94 103 58 q 233 168 176 168 q 330 99 285 168 q 366 60 345 76 q 407 36 387 44 q 454 24 426 28 q 501 19 483 20 q 549 18 519 18 q 688 53 624 18 q 803 155 753 87 q 881 330 852 222 q 910 575 910 438 l 910 1093 l 440 1093 q 427 1098 433 1093 q 422 1111 422 1103 q 427 1124 422 1118 q 440 1130 433 1130 l 1030 1130 q 1043 1124 1038 1130 q 1048 1111 1048 1118 q 1043 1098 1048 1103 q 1030 1093 1038 1093 l 947 1093 l 947 575 q 850 159 947 316 q 845 130 845 145 q 886 53 845 87 q 989 18 928 18 q 1002 13 996 18 q 1008 0 1008 7 q 1002 -13 1008 -7 q 989 -18 996 -18 q 873 18 923 -18 q 812 107 823 54 q 549 -19 707 -19 l 545 -19 q 495 -18 514 -19 q 444 -12 476 -18 q 390 3 412 -7 q 342 32 368 12 q 299 79 317 51 q 233 130 265 130 z "},"K":{"ha":692,"x_min":-18,"x_max":711,"o":"m -18 0 q -4 18 -18 14 q 28 20 11 21 q 59 34 45 19 q 74 83 74 49 l 74 1111 q 80 1124 74 1118 q 93 1130 85 1130 q 106 1124 100 1130 q 111 1111 111 1118 l 111 595 l 680 1124 q 692 1129 686 1129 q 706 1123 700 1129 q 711 1110 711 1118 q 705 1097 711 1103 l 123 557 l 581 94 q 615 57 602 70 q 649 32 627 45 q 692 18 671 18 q 706 13 700 18 q 711 0 711 7 q 706 -13 711 -7 q 692 -18 700 -18 q 623 3 654 -18 q 553 68 592 25 l 111 517 l 111 83 q 84 4 111 27 q 0 -18 56 -18 q -13 -13 -7 -18 q -18 0 -18 -7 z "},"L":{"ha":699,"x_min":-18,"x_max":718,"o":"m -18 0 q -4 18 -18 14 q 28 20 11 21 q 59 34 45 19 q 74 83 74 49 l 74 1111 q 80 1124 74 1118 q 93 1130 85 1130 q 106 1124 100 1130 q 111 1111 111 1118 l 111 86 q 112 81 112 85 q 184 18 112 18 l 699 18 q 712 13 706 18 q 718 0 718 7 q 712 -13 718 -7 q 699 -18 706 -18 l 184 -18 q 96 18 124 -18 q 0 -18 71 -18 q -13 -13 -7 -18 q -18 0 -18 -7 z "},"M":{"ha":852,"x_min":-18,"x_max":870,"o":"m -18 0 q -4 18 -18 14 q 28 20 11 21 q 59 34 45 19 q 74 83 74 49 l 74 1111 q 80 1124 74 1118 q 93 1130 85 1130 q 109 1120 102 1130 l 408 763 l 746 1126 q 760 1131 751 1131 q 774 1124 768 1131 q 778 1109 779 1118 l 778 83 q 785 45 778 60 q 802 26 791 31 q 824 20 812 22 q 846 19 836 18 q 863 15 857 19 q 870 0 870 10 q 865 -13 870 -7 q 852 -18 859 -18 q 768 4 795 -18 q 741 83 741 27 l 741 1065 l 421 722 q 407 717 416 716 q 393 724 399 718 l 111 1061 l 111 83 q 84 4 111 27 q 0 -18 56 -18 q -13 -13 -7 -18 q -18 0 -18 -7 z "},"N":{"ha":851,"x_min":-18,"x_max":870,"o":"m 92 1130 l 93 1130 q 110 1118 105 1130 l 741 146 l 741 1111 q 746 1124 741 1118 q 760 1130 752 1130 q 772 1124 767 1130 q 778 1111 778 1118 l 778 83 q 785 45 778 60 q 802 26 791 31 q 824 20 812 22 q 846 19 836 18 q 863 15 857 19 q 870 0 870 10 q 865 -13 870 -7 q 852 -18 859 -18 q 769 3 797 -18 q 741 79 742 25 l 111 1048 l 111 83 q 84 4 111 27 q 0 -18 56 -18 q -13 -13 -7 -18 q -18 0 -18 -7 q -4 18 -18 14 q 28 20 11 21 q 59 34 45 19 q 74 83 74 49 l 74 1111 q 79 1124 74 1119 q 92 1130 85 1130 z "},"O":{"ha":1111,"x_min":-18,"x_max":1130,"o":"m 1037 557 q 1030 367 1037 445 q 1014 254 1023 289 q 994 199 1004 219 q 977 164 983 178 q 970 130 970 149 q 1010 53 970 87 q 1111 18 1050 18 q 1124 13 1118 18 q 1130 0 1130 7 q 1124 -13 1130 -7 q 1111 -18 1118 -18 q 996 17 1045 -18 q 935 105 946 52 q 555 -18 823 -18 q 176 106 290 -18 q 116 17 165 53 q 0 -18 66 -18 q -13 -13 -7 -18 q -18 0 -18 -7 q -13 13 -18 7 q 0 18 -7 18 q 101 53 61 18 q 142 130 142 87 q 135 164 142 149 q 118 199 127 178 q 98 255 108 220 q 81 368 88 290 q 74 558 74 446 q 87 805 74 727 q 226 1050 115 973 q 555 1130 340 1130 q 960 975 852 1130 q 1034 706 1024 882 q 1037 557 1037 656 m 555 18 q 922 148 822 18 q 997 394 985 231 q 1000 557 1000 447 q 987 800 1000 725 q 864 1019 962 950 q 555 1093 760 1093 q 189 964 289 1093 q 115 722 126 883 q 111 558 111 669 q 125 310 111 387 q 250 91 151 159 q 555 18 353 18 z "},"P":{"ha":640,"x_min":-18,"x_max":657,"o":"m 111 993 l 111 633 q 200 585 146 595 q 356 574 255 574 q 543 630 471 574 q 615 789 615 686 q 602 914 615 861 q 567 1002 589 968 q 512 1057 545 1036 q 442 1087 479 1078 q 358 1095 405 1095 q 216 1064 286 1095 q 111 993 145 1032 m 358 1133 q 498 1107 440 1133 q 589 1035 556 1082 q 637 928 623 988 q 652 789 652 868 q 628 677 652 726 q 562 597 604 627 q 466 552 519 568 q 352 537 413 537 l 342 537 q 256 539 288 537 q 182 551 224 541 q 111 583 140 562 l 111 92 q 203 50 153 66 q 323 28 254 35 q 446 20 393 22 q 591 18 498 18 l 639 18 q 652 13 646 18 q 657 0 657 7 q 652 -13 657 -7 q 639 -18 646 -18 q 591 -19 623 -18 q 541 -19 558 -19 q 293 -5 397 -19 q 109 51 188 8 q 74 -3 101 13 q 0 -18 47 -18 q -13 -13 -7 -18 q -18 0 -18 -7 q -4 17 -18 14 q 26 20 9 21 q 58 32 43 19 q 74 76 73 45 q 74 90 71 83 l 74 1111 q 80 1124 74 1118 q 93 1130 85 1130 q 106 1124 100 1130 q 111 1111 111 1118 l 111 1044 q 225 1107 158 1082 q 358 1133 292 1133 z "},"Q":{"ha":1111,"x_min":-18,"x_max":1162,"o":"m 1013 -398 q 1081 -379 1055 -398 q 1116 -336 1107 -361 q 1125 -280 1125 -311 q 1116 -251 1125 -267 q 1089 -217 1107 -235 q 1034 -184 1071 -199 q 949 -162 998 -169 q 929 -273 929 -219 q 933 -314 929 -294 q 945 -353 937 -334 q 971 -385 954 -373 q 1013 -398 989 -397 m 944 182 q 976 259 964 217 q 993 356 988 301 q 999 449 998 411 q 1000 557 1000 488 q 987 800 1000 725 q 864 1019 962 950 q 555 1093 760 1093 q 189 964 289 1093 q 115 722 126 883 q 111 558 111 669 q 125 310 111 387 q 250 91 151 159 q 555 18 353 18 q 644 22 602 18 q 644 40 644 28 q 676 141 644 90 q 758 222 709 191 q 852 254 806 254 q 944 182 920 254 m 852 216 q 739 159 798 216 q 681 40 681 102 q 681 33 681 37 q 682 26 682 28 q 916 140 840 49 q 852 216 905 216 m 1162 -280 q 1123 -394 1162 -353 q 1013 -435 1084 -435 q 925 -391 958 -434 q 892 -273 892 -347 q 912 -156 892 -215 q 728 -104 789 -136 q 651 -14 667 -72 q 555 -18 608 -18 q 176 106 290 -18 q 116 17 165 53 q 0 -18 66 -18 q -13 -13 -7 -18 q -18 0 -18 -7 q -13 13 -18 7 q 0 18 -7 18 q 101 53 61 18 q 142 130 142 87 q 135 164 142 149 q 118 199 127 178 q 98 255 108 220 q 81 368 88 290 q 74 558 74 446 q 87 805 74 727 q 226 1050 115 973 q 555 1130 340 1130 q 960 975 852 1130 q 1034 706 1024 882 q 1037 557 1037 656 q 1033 424 1037 482 q 1020 309 1029 366 q 994 210 1010 252 q 951 129 977 167 q 888 64 924 90 q 802 18 852 37 q 689 -9 752 -1 q 758 -78 704 -52 q 926 -121 812 -103 q 1002 -20 955 -58 q 1111 19 1049 19 q 1124 13 1118 19 q 1130 0 1130 7 q 1124 -13 1130 -7 q 1111 -18 1118 -18 q 1028 -48 1065 -18 q 965 -127 990 -78 q 1113 -188 1063 -142 q 1162 -280 1162 -233 z "},"R":{"ha":763,"x_min":-18,"x_max":781,"o":"m 111 993 l 111 633 q 201 585 146 595 q 356 574 256 574 q 424 580 391 574 q 492 600 456 585 q 554 638 528 615 q 598 700 581 661 q 615 789 615 739 q 602 914 615 861 q 567 1002 589 968 q 512 1057 545 1036 q 442 1087 479 1078 q 358 1095 405 1095 q 216 1064 286 1095 q 111 993 145 1032 m -18 0 q -4 18 -18 14 q 28 20 11 21 q 59 34 45 19 q 74 83 74 49 l 74 1111 q 80 1124 74 1118 q 93 1130 85 1130 q 106 1124 100 1130 q 111 1111 111 1118 l 111 1044 q 225 1107 158 1082 q 358 1133 292 1133 q 498 1107 440 1133 q 589 1035 556 1082 q 637 928 623 988 q 652 789 652 868 q 633 685 652 730 q 582 613 614 640 q 514 570 549 585 q 440 546 480 554 q 504 496 479 528 q 541 408 528 465 q 553 264 553 351 q 604 76 553 134 q 763 18 654 18 q 776 13 770 18 q 781 0 781 7 q 776 -13 781 -7 q 763 -18 770 -18 q 578 48 640 -18 q 517 264 517 115 q 474 473 517 410 q 342 537 431 537 q 257 539 289 537 q 183 551 226 541 q 111 583 140 562 l 111 83 q 84 4 111 27 q 0 -18 56 -18 q -13 -13 -7 -18 q -18 0 -18 -7 z "},"S":{"ha":1131,"x_min":-18,"x_max":1149,"o":"m 1029 350 q 1023 260 1029 299 q 1009 201 1017 220 q 996 163 1002 182 q 989 130 989 144 q 1030 53 989 87 q 1131 18 1070 18 q 1144 13 1139 18 q 1149 0 1149 7 q 1144 -13 1149 -7 q 1131 -18 1139 -18 q 1016 17 1065 -18 q 955 105 966 52 q 555 -18 846 -18 q 176 109 300 -18 q 117 19 167 56 q 0 -18 66 -18 q -13 -13 -7 -18 q -18 0 -18 -7 q -13 13 -18 7 q 0 18 -7 18 q 101 53 61 18 q 142 130 142 87 q 136 160 142 140 q 81 350 81 246 q 86 363 81 359 q 100 368 92 368 q 118 348 115 368 q 130 280 121 328 q 163 187 139 233 q 190 153 180 164 q 220 120 199 142 q 259 87 241 99 q 308 61 277 76 q 372 38 338 45 q 452 24 405 30 q 555 18 500 18 q 735 34 659 18 q 861 77 812 50 q 940 146 910 104 q 981 238 969 189 q 992 350 992 286 q 545 540 989 528 q 448 546 495 541 q 346 560 401 551 q 246 587 291 570 q 162 627 201 604 q 102 687 124 651 q 81 766 81 722 q 107 921 83 857 q 185 1034 131 986 q 331 1106 239 1082 q 555 1130 422 1130 q 739 1111 659 1130 q 870 1060 819 1092 q 955 981 920 1029 q 1005 882 989 932 q 1028 768 1021 832 l 1028 765 q 1023 753 1028 758 q 1010 749 1017 749 q 992 765 993 749 q 970 872 985 825 q 923 961 955 918 q 845 1031 892 1004 q 724 1076 798 1059 q 555 1093 651 1093 q 376 1077 452 1093 q 252 1036 300 1062 q 173 967 203 1009 q 131 877 143 925 q 118 766 119 829 q 137 704 118 732 q 184 657 155 676 q 253 624 212 639 q 333 602 294 610 q 415 588 371 593 q 489 580 460 582 q 547 577 517 578 q 767 557 685 573 q 1027 370 1009 512 q 1029 350 1029 360 z "},"T":{"ha":490,"x_min":-230,"x_max":509,"o":"m -18 0 q -4 18 -18 14 q 28 20 11 21 q 59 34 45 19 q 74 83 74 49 l 74 1093 l -211 1093 q -224 1098 -218 1093 q -230 1111 -230 1103 q -224 1124 -230 1118 q -211 1130 -218 1130 l 435 1130 q 448 1124 443 1130 q 454 1111 454 1118 q 448 1098 454 1103 q 435 1093 443 1093 l 111 1093 l 111 84 q 223 32 124 45 q 491 18 321 18 q 504 13 498 18 q 509 0 509 7 q 504 -13 509 -7 q 491 -18 498 -18 q 238 -7 332 -18 q 104 35 144 5 q 0 -18 84 -18 q -13 -13 -7 -18 q -18 0 -18 -7 z "},"U":{"ha":1111,"x_min":-18,"x_max":1130,"o":"m 142 130 q 135 162 142 147 q 118 199 127 178 q 98 255 108 220 q 81 361 88 290 q 74 533 74 433 q 75 822 74 608 q 77 1113 77 1036 q 82 1126 77 1120 q 95 1131 87 1131 q 108 1126 102 1131 q 114 1113 114 1120 q 113 823 114 1036 q 111 534 111 610 q 115 413 111 466 q 127 309 118 360 q 151 219 136 257 q 191 147 167 181 q 248 91 214 113 q 325 51 281 68 q 427 26 370 34 q 555 18 484 18 q 985 359 922 18 q 1000 553 997 425 q 1000 557 1000 555 l 1000 1111 q 1006 1124 1000 1118 q 1019 1130 1011 1130 q 1031 1124 1026 1130 q 1037 1111 1037 1118 l 1037 83 q 1044 45 1037 60 q 1061 26 1050 31 q 1083 20 1072 22 q 1106 19 1095 18 q 1123 15 1116 19 q 1130 0 1130 10 q 1124 -13 1130 -7 q 1111 -18 1118 -18 q 1028 4 1055 -18 q 1000 83 1000 27 l 1000 269 q 555 -18 907 -18 q 176 106 289 -18 q 115 17 165 53 q 0 -18 66 -18 q -13 -13 -7 -18 q -18 0 -18 -7 q -13 13 -18 7 q 0 18 -7 18 q 101 53 61 18 q 142 130 142 87 z "},"V":{"ha":929,"x_min":-12,"x_max":951,"o":"m 897 1130 q 910 1124 905 1130 q 915 1112 915 1119 q 913 1105 915 1109 l 635 378 q 619 289 619 321 q 665 150 619 214 q 783 53 711 87 q 931 18 854 18 q 947 12 942 18 q 951 0 951 6 q 947 -12 951 -6 q 931 -18 942 -18 q 705 58 808 -18 q 585 249 603 134 l 488 -7 q 470 -18 484 -18 q 453 -7 457 -18 l 355 250 q 235 58 338 134 q 9 -18 132 -18 q -7 -12 -2 -18 q -12 0 -12 -6 q -7 12 -12 6 q 9 18 -2 18 q 157 53 86 18 q 275 150 229 87 q 321 289 321 214 q 305 379 321 331 l 27 1102 q 26 1108 26 1106 q 31 1121 26 1116 q 44 1126 37 1126 q 61 1115 56 1126 l 470 52 l 879 1118 q 897 1130 883 1130 z "},"W":{"ha":1275,"x_min":-19,"x_max":1293,"o":"m 888 1130 q 901 1124 896 1130 q 906 1112 906 1119 q 905 1105 906 1109 l 657 458 l 813 52 l 1222 1118 q 1240 1130 1226 1130 q 1255 1122 1250 1130 q 1257 1105 1260 1114 l 967 348 q 960 289 960 316 q 1006 150 960 214 q 1124 53 1053 87 q 1274 18 1196 18 q 1289 13 1284 18 q 1293 0 1293 7 q 1289 -13 1293 -7 q 1274 -18 1284 -18 q 1120 15 1194 -18 q 992 109 1045 47 q 928 246 940 170 l 831 -7 q 814 -19 826 -19 q 796 -7 802 -19 l 637 406 l 479 -7 q 461 -18 475 -18 q 444 -7 448 -18 l 347 247 q 282 110 334 171 q 155 15 229 48 q 1 -18 81 -18 q -15 -13 -10 -18 q -19 0 -19 -7 q -15 13 -19 7 q 1 18 -10 18 q 150 53 78 18 q 268 150 222 87 q 315 289 315 214 q 307 351 315 319 l 18 1102 q 17 1108 17 1106 q 22 1121 17 1116 q 35 1126 28 1126 q 52 1115 47 1126 l 332 388 q 334 382 333 387 q 336 377 336 378 l 461 52 l 617 458 l 370 1102 q 368 1109 368 1106 q 374 1122 368 1117 q 388 1127 380 1127 q 404 1115 399 1127 l 637 510 l 870 1118 q 888 1130 874 1130 z "},"X":{"ha":1111,"x_min":-18,"x_max":1130,"o":"m 2 1111 q 7 1124 2 1119 q 20 1130 13 1130 q 34 1124 28 1130 l 556 562 l 1078 1124 q 1090 1130 1082 1130 q 1107 1119 1103 1130 q 1104 1099 1112 1108 l 581 534 l 1036 44 q 1066 24 1049 29 q 1111 18 1082 18 q 1124 13 1118 18 q 1130 0 1130 7 q 1124 -13 1130 -7 q 1111 -18 1118 -18 q 1053 -10 1076 -18 q 1009 18 1029 -2 l 555 507 l 102 18 q 59 -10 82 -2 q 0 -18 35 -18 q -13 -13 -7 -18 q -18 0 -18 -7 q -13 13 -18 7 q 0 18 -7 18 q 45 24 28 18 q 76 44 62 29 l 530 534 l 7 1099 q 2 1111 2 1103 z "},"Y":{"ha":629,"x_min":-18,"x_max":654,"o":"m 337 85 q 370 34 337 50 q 445 18 402 18 l 629 18 q 643 13 637 18 q 648 0 648 7 q 643 -13 648 -7 q 629 -18 637 -18 l 448 -18 q 318 28 353 -18 q 180 -18 279 -18 l 0 -18 q -13 -13 -7 -18 q -18 0 -18 -7 q -13 13 -18 7 q 0 18 -7 18 l 180 18 q 265 34 231 18 q 300 83 300 50 l 300 583 l -13 1101 q -13 1120 -18 1110 q 3 1130 -8 1130 q 18 1121 13 1130 l 319 622 l 621 1121 q 636 1130 626 1130 q 649 1124 644 1130 q 654 1111 654 1118 q 652 1101 654 1105 l 337 580 l 337 85 z "},"Z":{"ha":1037,"x_min":-18,"x_max":1055,"o":"m 1009 1130 q 1022 1124 1017 1130 q 1028 1111 1028 1118 q 1021 1097 1028 1103 l 102 18 l 1037 18 q 1050 13 1044 18 q 1055 0 1055 7 q 1050 -13 1055 -7 q 1037 -18 1044 -18 l 0 -18 q -13 -13 -7 -18 q -18 0 -18 -7 q -13 13 -18 7 q 0 18 -7 18 q 45 24 28 18 q 76 44 62 30 l 969 1093 l 94 1093 q 81 1098 87 1093 q 76 1111 76 1103 q 81 1124 76 1118 q 94 1130 87 1130 l 1009 1130 z "},"[":{"ha":741,"x_min":-18,"x_max":760,"o":"m 741 19 q 754 13 749 19 q 760 0 760 7 q 754 -13 760 -7 q 741 -19 749 -19 l 304 -19 l 304 -564 l 380 -564 q 394 -569 389 -564 q 399 -582 399 -575 q 394 -595 399 -589 q 380 -601 389 -601 l 285 -601 q 272 -596 279 -601 q 266 -582 266 -591 l 266 -19 l 1 -19 q -13 -13 -7 -19 q -18 0 -18 -7 q -13 13 -18 7 q 1 19 -7 19 l 266 19 l 266 1111 q 271 1123 266 1117 q 285 1129 275 1129 l 382 1129 q 395 1124 389 1129 q 401 1111 401 1119 q 395 1097 401 1102 q 382 1092 389 1092 l 304 1092 l 304 19 l 741 19 z "},"\\":{"ha":648,"x_min":-18,"x_max":667,"o":"m 648 18 q 661 13 656 18 q 667 0 667 7 q 661 -13 667 -7 q 648 -18 656 -18 l 563 -18 l 596 -67 q 597 -86 602 -76 q 581 -96 591 -96 q 566 -88 571 -96 l 518 -18 l 0 -18 q -13 -13 -7 -18 q -18 0 -18 -7 q -13 13 -18 7 q 0 18 -7 18 l 493 18 l 32 695 q 31 714 26 704 q 47 724 37 724 q 63 716 58 724 l 538 18 l 648 18 z "},"]":{"ha":741,"x_min":-18,"x_max":760,"o":"m 348 -602 q 345 -600 348 -602 q 342 -589 342 -597 q 348 -575 342 -580 q 360 -570 353 -570 l 439 -570 l 439 -19 l 1 -19 q -13 -13 -7 -19 q -18 0 -18 -7 q -13 13 -18 7 q 1 19 -7 19 l 439 19 l 439 1086 l 363 1086 q 349 1092 354 1086 q 345 1104 345 1097 q 350 1117 345 1111 q 363 1123 355 1123 l 458 1123 q 470 1118 464 1123 q 476 1104 476 1114 l 476 19 l 741 19 q 754 13 749 19 q 760 0 760 7 q 754 -13 760 -7 q 741 -19 749 -19 l 476 -19 l 476 -589 q 471 -601 476 -595 q 458 -607 467 -607 l 360 -607 q 348 -602 353 -607 z "},"^":{"ha":1389,"x_min":94,"x_max":500,"o":"m 481 644 q 440 653 459 644 q 408 677 422 663 q 378 706 393 692 q 339 730 362 720 q 286 740 315 740 q 244 730 264 740 q 211 706 225 720 q 183 677 197 692 q 152 653 170 663 q 113 644 134 644 q 100 649 105 644 q 94 662 94 654 q 111 680 94 677 q 145 693 130 682 q 174 718 161 704 q 201 745 186 732 q 237 768 215 759 q 286 777 258 777 q 345 768 319 777 q 387 745 370 759 q 417 718 403 732 q 447 693 431 704 q 483 680 464 682 q 495 674 490 680 q 500 662 500 669 q 494 649 500 654 q 481 644 489 644 z "},"_":{"ha":926,"x_min":-18,"x_max":945,"o":"m 152 -20 q 176 -43 157 -43 l 675 -43 q 689 -31 689 -42 q 682 -21 689 -23 q 652 -19 674 -19 l 624 -19 q 418 -19 585 -19 q 165 -20 252 -20 l 152 -20 m 153 18 l 676 18 q 713 2 699 17 q 726 -31 726 -12 q 713 -64 726 -50 q 676 -79 699 -79 l 176 -79 q 135 -63 152 -79 q 114 -20 118 -46 l 57 -20 q -15 -14 -7 -20 q -18 -1 -18 -10 q -13 12 -18 7 q 0 18 -7 17 l 115 18 q 138 63 119 49 q 176 78 156 78 l 706 78 q 742 66 724 77 q 774 44 760 56 q 829 23 789 33 q 926 14 868 14 q 939 8 933 14 q 945 -5 945 3 q 939 -18 945 -12 q 926 -23 933 -23 q 857 -21 885 -23 q 808 -11 829 -18 q 776 1 786 -4 q 745 19 766 5 q 713 39 724 33 q 706 41 710 41 l 176 41 q 153 18 159 41 z "},"`":{"ha":1389,"x_min":302,"x_max":594,"o":"m 594 655 q 588 642 594 646 q 577 637 583 637 q 562 636 572 636 q 452 654 503 636 q 369 701 401 673 q 320 762 338 730 q 302 826 302 795 q 308 839 302 833 q 321 844 313 844 q 333 840 328 844 q 339 828 338 836 q 360 767 343 794 q 400 722 377 739 q 453 694 424 705 q 510 678 483 682 q 562 673 536 673 q 590 668 585 673 q 594 655 594 664 z "},"a":{"ha":648,"x_min":-18,"x_max":667,"o":"m 90 96 q 82 147 90 100 q 74 279 74 194 q 88 435 74 387 q 231 565 118 539 q 324 574 271 574 q 537 489 483 574 l 537 555 q 543 569 537 563 q 555 574 548 574 q 569 569 563 574 q 574 555 574 563 l 574 140 q 575 123 574 134 q 579 83 577 95 q 585 55 581 71 q 596 33 589 39 q 616 23 604 27 q 648 18 629 18 q 661 13 656 18 q 667 0 667 7 q 661 -13 667 -7 q 648 -18 656 -18 q 572 6 594 -18 q 543 78 549 31 q 324 -18 490 -18 q 121 53 178 -18 q 77 -1 110 16 q 3 -18 45 -18 q -18 0 -18 -18 q 3 18 -18 18 q 68 40 47 18 q 90 96 90 61 m 111 279 q 124 129 111 173 q 229 29 148 52 q 324 18 268 18 q 509 94 465 18 q 537 242 535 140 q 537 278 537 256 q 537 320 537 304 q 535 360 536 336 q 531 398 534 384 q 523 431 528 412 q 509 462 517 450 q 490 487 501 473 q 463 508 478 500 q 427 524 447 516 q 381 534 407 531 q 324 537 355 537 q 139 462 182 537 q 111 315 113 417 q 111 279 111 302 z "},"b":{"ha":648,"x_min":-18,"x_max":667,"o":"m 111 279 q 124 129 111 173 q 229 29 148 52 q 324 18 268 18 q 509 94 465 18 q 537 242 535 140 q 537 278 537 256 q 537 320 537 304 q 535 360 536 336 q 531 398 534 384 q 523 431 528 412 q 509 462 517 450 q 490 487 501 473 q 463 508 478 500 q 427 524 447 516 q 381 534 407 531 q 324 537 355 537 q 139 462 182 537 q 111 315 113 417 q 111 279 111 302 m 105 77 q 77 6 99 30 q 0 -18 55 -18 q -13 -13 -7 -18 q -18 0 -18 -7 q -13 13 -18 7 q 0 18 -7 18 q 56 39 45 18 q 73 121 68 59 q 74 140 73 134 l 74 1111 q 80 1124 74 1118 q 93 1130 85 1130 q 106 1124 100 1130 q 111 1111 111 1118 l 111 488 q 324 574 168 574 q 543 479 490 574 q 574 309 572 425 q 574 278 574 296 q 566 145 574 187 q 563 119 567 138 q 559 91 559 100 q 584 35 559 52 q 646 18 609 18 q 667 0 667 18 q 646 -18 667 -18 q 571 -1 604 -18 q 527 54 538 16 q 324 -18 469 -18 q 105 77 156 -18 z "},"c":{"ha":648,"x_min":-18,"x_max":667,"o":"m 545 332 q 538 333 542 332 q 530 338 535 334 q 526 351 526 343 q 530 369 526 355 q 534 400 534 383 q 480 497 534 456 q 324 537 426 537 q 139 462 182 537 q 111 315 113 417 q 111 279 111 302 q 124 129 111 173 q 229 29 148 52 q 324 18 268 18 q 393 32 361 18 q 451 58 425 45 q 501 71 477 71 q 557 58 532 71 q 604 32 583 45 q 648 18 626 18 q 661 13 656 18 q 667 0 667 7 q 661 -13 667 -7 q 648 -18 656 -18 q 594 -5 618 -18 q 549 21 570 8 q 501 35 527 35 q 459 21 484 35 q 399 -5 434 8 q 324 -18 365 -18 q 121 53 178 -18 q 77 -1 110 16 q 3 -18 45 -18 q -18 0 -18 -18 q 3 18 -18 18 q 68 40 47 18 q 90 96 90 61 q 82 147 90 100 q 74 279 74 194 q 88 436 74 387 q 229 564 118 538 q 324 574 270 574 q 507 524 444 574 q 570 399 570 473 q 565 355 570 378 q 545 332 559 332 z "},"d":{"ha":648,"x_min":-18,"x_max":667,"o":"m 90 96 q 82 147 90 100 q 74 279 74 194 q 88 435 74 387 q 231 565 118 539 q 324 574 271 574 q 537 489 483 574 l 537 926 q 543 939 537 933 q 555 945 548 945 q 569 939 563 945 q 574 926 574 933 l 574 140 q 575 123 574 134 q 579 83 577 95 q 585 55 581 71 q 596 33 589 39 q 616 23 604 27 q 648 18 629 18 q 661 13 656 18 q 667 0 667 7 q 661 -13 667 -7 q 648 -18 656 -18 q 572 6 594 -18 q 543 78 549 31 q 324 -18 490 -18 q 121 53 178 -18 q 77 -1 110 16 q 3 -18 45 -18 q -18 0 -18 -18 q 3 18 -18 18 q 68 40 47 18 q 90 96 90 61 m 111 279 q 124 129 111 173 q 229 29 148 52 q 324 18 268 18 q 507 93 465 18 q 535 239 534 138 q 535 278 535 252 q 523 426 535 383 q 424 525 501 501 q 324 537 383 537 q 139 462 182 537 q 111 315 113 417 q 111 279 111 302 z "},"e":{"ha":648,"x_min":-18,"x_max":667,"o":"m 90 96 q 81 153 90 104 q 72 260 72 201 q 74 331 72 300 q 81 395 75 361 q 98 454 87 429 q 128 503 109 479 q 173 542 147 527 q 238 565 199 556 q 324 574 276 574 q 428 558 380 574 q 504 516 475 542 q 550 460 534 490 q 566 400 566 430 q 546 337 566 364 q 491 293 526 309 q 413 267 456 277 q 318 251 370 256 q 220 245 267 247 q 125 242 174 243 q 110 242 115 242 l 111 227 q 122 146 112 181 q 154 81 132 112 q 220 35 177 51 q 324 18 262 18 q 418 45 366 18 q 501 71 471 71 q 551 63 528 71 q 587 45 574 55 q 617 26 600 35 q 648 18 633 18 q 662 13 656 18 q 667 0 667 7 q 662 -13 667 -7 q 648 -19 656 -19 q 600 -6 623 -19 q 553 21 576 7 q 501 34 529 34 q 455 21 481 34 q 396 -6 429 7 q 324 -19 363 -19 q 123 60 186 -19 q 80 1 113 20 q 3 -18 46 -18 q -18 0 -18 -18 q 3 18 -18 18 q 68 40 47 18 q 90 96 90 61 m 529 400 q 516 445 529 422 q 478 489 503 468 q 414 524 454 510 q 324 537 373 537 q 250 529 283 537 q 195 509 217 522 q 156 476 172 496 q 132 436 140 456 q 118 387 123 416 q 111 335 113 359 q 110 279 110 311 q 223 283 176 281 q 321 290 270 286 q 408 303 373 295 q 471 325 442 312 q 515 356 500 337 q 529 400 529 375 z "},"f":{"ha":555,"x_min":-18,"x_max":574,"o":"m 309 954 l 299 173 q 412 367 381 292 q 456 612 456 471 q 441 811 456 694 q 414 951 437 840 q 360 1065 390 1064 q 309 954 316 1065 m 258 -168 q 152 -355 190 -250 q 115 -551 115 -460 q 141 -665 115 -617 q 194 -713 168 -713 q 240 -644 222 -713 q 258 -454 258 -576 l 258 -168 m 259 138 l 259 961 q 282 1094 259 1057 q 338 1132 306 1132 q 424 1062 385 1132 q 486 873 463 992 q 509 613 509 753 l 509 612 q 451 333 509 457 q 296 122 392 209 l 294 -78 q 555 18 411 18 q 569 13 563 18 q 574 0 574 7 q 569 -13 574 -7 q 555 -18 563 -18 q 294 -127 408 -18 l 294 -454 q 266 -679 294 -607 q 194 -750 238 -750 q 113 -690 149 -750 q 77 -551 77 -631 q 125 -322 77 -444 q 258 -113 172 -200 l 259 90 q 123 10 192 38 q 0 -18 54 -18 q -13 -13 -7 -18 q -18 0 -18 -7 q -13 13 -18 7 q 0 18 -7 18 q 122 50 52 18 q 259 138 193 81 z "},"g":{"ha":808,"x_min":-18,"x_max":827,"o":"m 574 138 l 575 -57 q 808 18 680 18 q 822 13 816 18 q 827 0 827 7 q 815 -15 827 -12 q 780 -21 804 -19 q 728 -27 757 -22 q 657 -52 699 -33 q 575 -104 616 -71 l 575 -491 q 567 -601 575 -553 q 546 -676 558 -649 q 516 -721 534 -704 q 484 -744 499 -739 q 454 -750 469 -750 l 453 -750 q 367 -691 404 -750 q 330 -551 330 -631 q 385 -304 330 -435 q 537 -87 439 -173 l 541 76 l 574 138 m 543 78 q 324 -18 490 -18 q 121 53 178 -18 q 77 -1 110 16 q 3 -18 45 -18 q -18 0 -18 -18 q 3 18 -18 18 q 68 40 47 18 q 90 96 90 61 q 82 147 90 100 q 74 279 74 194 q 88 435 74 387 q 231 565 118 539 q 324 574 271 574 q 537 489 483 574 l 537 555 q 543 569 537 563 q 555 574 548 574 q 569 569 563 574 q 574 555 574 563 l 574 140 q 543 78 574 134 m 111 279 q 124 129 111 173 q 229 29 148 52 q 324 18 268 18 q 509 94 465 18 q 537 242 535 140 q 537 278 537 256 q 537 320 537 304 q 535 360 536 336 q 531 398 534 384 q 523 431 528 412 q 509 462 517 450 q 490 487 501 473 q 463 508 478 500 q 427 524 447 516 q 381 534 407 531 q 324 537 355 537 q 139 462 182 537 q 111 315 113 417 q 111 279 111 302 m 537 -138 q 412 -335 457 -219 q 368 -551 368 -451 q 395 -665 368 -618 q 453 -713 422 -713 l 454 -713 q 481 -702 467 -713 q 508 -666 494 -690 q 529 -597 521 -642 q 538 -491 538 -551 q 537 -315 538 -433 q 537 -138 537 -197 z "},"h":{"ha":648,"x_min":-18,"x_max":667,"o":"m 535 278 q 523 426 535 383 q 424 525 501 501 q 324 537 383 537 q 234 525 273 537 q 173 494 195 513 q 137 449 151 476 q 118 396 123 421 q 111 340 113 371 l 111 138 q 110 122 111 133 q 107 90 108 100 q 102 61 106 79 q 95 34 99 43 q 82 13 90 25 q 64 -4 75 1 q 37 -14 53 -10 q 0 -18 20 -18 q -13 -13 -7 -18 q -18 0 -18 -7 q -13 13 -18 7 q 0 18 -7 18 q 56 39 45 18 q 73 121 68 59 q 74 140 73 134 l 74 1111 q 80 1124 74 1118 q 93 1130 85 1130 q 106 1124 100 1130 q 111 1111 111 1118 l 111 479 q 324 574 169 574 q 390 571 359 574 q 443 558 420 567 q 484 540 465 550 q 516 515 503 530 q 538 485 529 499 q 554 449 548 471 q 564 411 560 428 q 570 369 568 394 q 572 325 572 343 q 572 278 572 306 q 571 215 572 255 q 570 159 570 175 q 586 53 570 87 q 648 18 602 18 q 661 13 656 18 q 667 0 667 7 q 661 -13 667 -7 q 648 -18 656 -18 q 598 -8 619 -18 q 564 18 576 2 q 545 60 552 35 q 535 109 537 85 q 533 165 533 133 q 534 222 533 184 q 535 278 535 260 z "},"i":{"ha":186,"x_min":-18,"x_max":203,"o":"m 93 683 q 134 665 119 682 q 148 628 148 648 q 131 587 148 602 q 94 572 113 572 l 93 572 q 52 589 66 572 q 37 626 37 606 q 55 668 37 652 q 92 683 72 683 l 93 683 m 74 139 l 74 555 q 80 569 74 563 q 93 574 85 574 q 106 569 100 574 q 111 555 111 563 l 111 139 q 131 51 111 83 q 185 18 151 18 q 198 13 193 18 q 203 0 203 7 q 198 -13 203 -7 q 185 -18 193 -18 q 96 38 127 -18 q 0 -18 77 -18 q -13 -13 -7 -18 q -18 0 -18 -7 q -13 13 -18 7 q 0 18 -7 18 q 56 39 45 18 q 73 121 68 59 q 74 139 73 133 z "},"j":{"ha":754,"x_min":-19,"x_max":773,"o":"m 483 -138 q 358 -335 403 -219 q 313 -551 313 -451 q 340 -665 313 -618 q 399 -713 368 -713 l 399 -713 q 427 -702 413 -713 q 453 -666 440 -690 q 475 -597 467 -642 q 484 -491 484 -551 q 483 -471 484 -484 q 483 -454 483 -458 l 483 -138 m 773 0 q 761 -15 773 -12 q 726 -21 749 -19 q 673 -27 703 -22 q 603 -52 644 -33 q 521 -104 562 -71 l 521 -491 q 512 -601 521 -553 q 492 -676 504 -649 q 462 -721 479 -704 q 430 -744 445 -739 q 399 -750 415 -750 l 399 -750 q 313 -691 349 -750 q 276 -551 276 -631 q 331 -304 276 -435 q 483 -87 385 -173 l 483 472 q 0 -19 244 -19 q -13 -13 -7 -19 q -19 0 -19 -7 q -13 13 -19 7 q 0 18 -7 18 q 87 37 43 18 q 169 85 131 55 q 244 159 206 115 q 314 249 283 203 q 378 352 345 294 q 434 457 410 409 q 484 560 458 505 q 501 574 487 574 q 516 567 511 574 q 520 552 522 560 l 521 -57 q 754 18 625 18 q 767 13 762 18 q 773 0 773 7 m 501 682 q 543 665 527 682 q 557 627 557 647 q 539 586 557 601 q 503 571 522 571 l 501 571 q 460 589 475 571 q 446 625 446 606 q 463 667 446 652 q 500 682 481 682 l 501 682 z "},"k":{"ha":555,"x_min":-18,"x_max":574,"o":"m 111 140 l 111 1111 q 117 1124 111 1118 q 130 1130 122 1130 q 142 1124 137 1130 q 148 1111 148 1118 l 148 310 l 545 571 q 555 574 551 574 q 568 568 562 574 q 574 554 574 562 q 566 540 574 545 l 165 278 q 243 216 199 254 q 322 146 287 178 q 398 84 358 115 q 478 36 437 54 q 555 18 518 18 q 569 13 563 18 q 574 0 574 7 q 569 -13 574 -7 q 555 -18 563 -18 q 469 -1 513 -18 q 384 48 426 17 q 306 111 342 79 q 225 182 270 143 q 148 245 181 222 l 148 138 q 0 -18 134 -18 q -13 -13 -7 -18 q -18 0 -18 -7 q -13 13 -18 7 q 0 18 -7 18 q 79 46 53 18 q 111 140 106 75 z "},"l":{"ha":259,"x_min":-18,"x_max":278,"o":"m 111 139 q 111 1111 111 139 q 117 1124 111 1118 q 130 1130 122 1130 q 142 1124 137 1130 q 148 1111 148 1118 l 148 139 q 184 53 148 87 q 259 18 221 18 q 272 13 267 18 q 278 0 278 7 q 272 -13 278 -7 q 259 -18 267 -18 q 188 4 224 -18 q 131 63 152 26 q 0 -18 96 -18 q -13 -13 -7 -18 q -18 0 -18 -7 q -13 13 -18 7 q 0 18 -7 18 q 79 46 52 18 q 111 139 106 75 z "},"m":{"ha":981,"x_min":-18,"x_max":1000,"o":"m 464 374 q 453 441 461 414 q 425 491 445 468 q 369 526 406 515 q 278 537 333 537 q 232 532 253 537 q 196 518 211 526 q 168 496 180 511 q 147 470 155 482 q 133 438 139 458 q 123 405 126 418 q 117 370 119 392 q 114 337 115 348 q 113 304 113 326 q 111 277 112 283 l 111 138 q 110 122 111 133 q 107 90 108 100 q 102 61 106 79 q 95 34 99 43 q 82 13 90 25 q 64 -4 75 1 q 37 -14 53 -10 q 0 -18 20 -18 q -13 -13 -7 -18 q -18 0 -18 -7 q -13 13 -18 7 q 0 18 -7 18 q 56 39 45 18 q 73 121 68 59 q 74 140 73 134 l 74 555 q 80 569 74 563 q 93 574 85 574 q 106 569 100 574 q 111 555 111 563 l 111 479 q 278 574 161 574 q 415 547 367 574 q 483 469 463 519 q 690 574 526 574 q 747 571 721 574 q 794 558 774 567 q 830 540 814 549 q 857 514 846 530 q 877 485 869 498 q 891 449 886 471 q 899 411 896 427 q 903 368 902 395 q 905 325 905 342 q 905 278 905 307 q 905 215 905 255 q 904 159 904 175 q 919 53 904 87 q 981 18 935 18 q 995 13 989 18 q 1000 0 1000 7 q 995 -13 1000 -7 q 981 -18 989 -18 q 931 -8 952 -18 q 897 18 909 2 q 878 60 885 35 q 869 109 871 85 q 867 165 867 133 q 868 222 867 184 q 869 278 869 260 l 869 327 q 868 378 869 357 q 862 422 867 398 q 850 461 858 446 q 829 493 842 477 q 795 517 815 509 q 747 532 776 526 q 681 537 718 537 q 591 525 627 537 q 536 488 554 512 q 510 439 517 465 q 500 380 502 414 l 502 0 q 496 -13 502 -7 q 484 -18 491 -18 q 470 -13 476 -18 q 465 0 465 -7 l 464 374 z "},"n":{"ha":648,"x_min":-18,"x_max":667,"o":"m 535 278 q 523 426 535 383 q 424 525 501 501 q 324 537 383 537 q 234 525 273 537 q 173 494 195 513 q 137 449 151 476 q 118 396 123 421 q 111 340 113 371 l 111 138 q 110 122 111 133 q 107 90 108 100 q 102 61 106 79 q 95 34 99 43 q 82 13 90 25 q 64 -4 75 1 q 37 -14 53 -10 q 0 -18 20 -18 q -13 -13 -7 -18 q -18 0 -18 -7 q -13 13 -18 7 q 0 18 -7 18 q 56 39 45 18 q 73 121 68 59 q 74 140 73 134 l 74 555 q 80 569 74 563 q 93 574 85 574 q 106 569 100 574 q 111 555 111 563 l 111 479 q 324 574 169 574 q 390 571 359 574 q 443 558 420 567 q 484 540 465 550 q 516 515 503 530 q 538 485 529 499 q 554 449 548 471 q 564 411 560 428 q 570 369 568 394 q 572 325 572 343 q 572 278 572 306 q 571 215 572 255 q 570 159 570 175 q 586 53 570 87 q 648 18 602 18 q 661 13 656 18 q 667 0 667 7 q 661 -13 667 -7 q 648 -18 656 -18 q 598 -8 619 -18 q 564 18 576 2 q 545 60 552 35 q 535 109 537 85 q 533 165 533 133 q 534 222 533 184 q 535 278 535 260 z "},"o":{"ha":648,"x_min":-18,"x_max":667,"o":"m 90 96 q 82 147 90 100 q 74 279 74 194 q 88 435 74 387 q 231 565 118 539 q 324 574 271 574 q 543 479 490 574 q 574 309 572 425 q 574 278 574 296 q 566 147 574 193 q 563 122 567 141 q 559 91 559 104 q 584 35 559 52 q 646 18 609 18 q 667 0 667 18 q 646 -18 667 -18 q 571 -1 604 -18 q 527 54 538 16 q 324 -18 469 -18 q 121 53 178 -18 q 77 -1 110 16 q 3 -18 45 -18 q -18 0 -18 -18 q 3 18 -18 18 q 68 40 47 18 q 90 96 90 61 m 111 279 q 124 129 111 173 q 229 29 148 52 q 324 18 268 18 q 509 94 465 18 q 537 242 535 140 q 537 278 537 256 q 537 320 537 304 q 535 360 536 336 q 531 398 534 384 q 523 431 528 412 q 509 462 517 450 q 490 487 501 473 q 463 508 478 500 q 427 524 447 516 q 381 534 407 531 q 324 537 355 537 q 139 462 182 537 q 111 315 113 417 q 111 279 111 302 z "},"p":{"ha":648,"x_min":-18,"x_max":667,"o":"m 111 279 q 124 129 111 173 q 229 29 148 52 q 324 18 268 18 q 509 94 465 18 q 537 242 535 140 q 537 278 537 256 q 537 320 537 304 q 535 360 536 336 q 531 398 534 384 q 523 431 528 412 q 509 462 517 450 q 490 487 501 473 q 463 508 478 500 q 427 524 447 516 q 381 534 407 531 q 324 537 355 537 q 139 462 182 537 q 111 315 113 417 q 111 279 111 302 m 111 -553 q 106 -567 111 -561 q 93 -572 100 -572 q 80 -567 85 -572 q 74 -553 74 -561 l 74 28 q 0 -18 40 -18 q -13 -13 -7 -18 q -18 0 -18 -7 q -13 13 -18 7 q 0 18 -7 18 q 45 52 21 18 q 74 123 68 85 l 74 555 q 80 569 74 563 q 93 574 85 574 q 106 569 100 574 q 111 555 111 563 l 111 488 q 324 574 168 574 q 543 479 490 574 q 574 309 572 425 q 574 278 574 296 q 566 147 574 193 q 563 122 567 141 q 559 91 559 104 q 584 35 559 52 q 646 18 609 18 q 667 0 667 18 q 646 -18 667 -18 q 571 -1 604 -18 q 527 54 538 16 q 324 -18 469 -18 q 111 67 165 -18 l 111 -553 z "},"q":{"ha":648,"x_min":-18,"x_max":667,"o":"m 90 96 q 82 147 90 100 q 74 279 74 194 q 88 435 74 387 q 231 565 118 539 q 324 574 271 574 q 537 489 483 574 l 537 555 q 543 569 537 563 q 555 574 548 574 q 569 569 563 574 q 574 555 574 563 l 574 -13 q 648 18 607 18 q 661 13 656 18 q 667 0 667 7 q 661 -13 667 -7 q 648 -18 656 -18 q 600 -40 621 -18 q 574 -83 578 -61 l 574 -553 q 569 -567 574 -561 q 555 -572 563 -572 q 543 -567 548 -572 q 537 -553 537 -561 l 537 68 q 324 -18 481 -18 q 121 53 178 -18 q 77 -1 110 16 q 3 -18 45 -18 q -18 0 -18 -18 q 3 18 -18 18 q 68 40 47 18 q 90 96 90 61 m 111 279 q 124 129 111 173 q 229 29 148 52 q 324 18 268 18 q 509 94 465 18 q 537 242 535 140 q 537 278 537 256 q 537 320 537 304 q 535 360 536 336 q 531 398 534 384 q 523 431 528 412 q 509 462 517 450 q 490 487 501 473 q 463 508 478 500 q 427 524 447 516 q 381 534 407 531 q 324 537 355 537 q 139 462 182 537 q 111 315 113 417 q 111 279 111 302 z "},"r":{"ha":648,"x_min":-18,"x_max":667,"o":"m 128 541 l 128 609 q 123 616 126 612 q 113 594 118 609 q 107 566 107 579 q 128 541 107 545 m 70 566 q 85 626 70 597 q 124 655 100 655 q 151 641 137 655 q 165 614 165 627 q 165 608 165 612 l 165 538 q 298 550 207 538 q 441 561 389 561 q 484 548 466 561 q 511 515 502 534 q 526 467 521 496 q 532 413 531 437 q 534 357 534 389 q 533 292 534 334 q 532 227 532 250 q 533 168 532 193 q 542 112 535 142 q 562 63 549 83 q 596 31 574 44 q 648 18 618 18 q 661 13 656 18 q 667 0 667 7 q 661 -13 667 -7 q 648 -18 656 -18 q 585 -6 612 -18 q 541 27 558 6 q 513 79 524 47 q 498 147 503 111 q 494 227 494 182 q 495 293 494 251 q 496 357 496 334 q 483 486 496 448 q 441 524 470 524 q 302 513 392 524 q 165 502 212 502 l 165 138 q 117 26 159 71 q 0 -18 75 -18 q -13 -13 -7 -18 q -18 0 -18 -7 q -13 13 -18 7 q 0 18 -7 18 q 89 47 55 18 q 128 140 123 77 l 128 505 q 84 524 98 509 q 70 566 70 538 z "},"s":{"ha":663,"x_min":-7,"x_max":682,"o":"m 558 387 q 545 395 550 387 q 537 417 541 404 q 527 446 533 430 q 509 478 522 463 q 476 508 496 494 q 419 529 456 521 q 335 537 383 537 q 179 499 229 537 q 129 402 129 461 q 162 349 129 371 q 245 316 195 328 q 354 292 296 305 q 463 264 412 278 q 546 221 513 250 q 579 153 579 193 l 579 150 q 581 140 581 146 q 577 114 581 132 q 574 87 574 96 q 599 31 574 47 q 661 14 624 14 q 682 -4 682 14 q 661 -22 682 -22 q 585 -4 618 -22 q 541 52 552 14 q 335 -18 478 -18 q 276 -9 303 -18 q 233 11 248 0 q 197 32 218 22 q 155 41 176 41 q 123 32 137 41 q 99 11 109 22 q 67 -9 90 0 q 11 -18 44 -18 q -2 -13 3 -18 q -7 0 -7 -7 q -2 13 -7 7 q 11 18 3 18 q 50 24 34 18 q 76 39 66 31 q 95 57 85 48 q 119 72 104 66 q 155 78 134 78 q 197 72 178 78 q 230 57 216 66 q 258 39 244 48 q 292 24 273 31 q 335 18 312 18 q 491 56 441 18 q 542 153 542 94 l 542 156 q 517 199 542 180 q 453 229 492 217 q 365 250 413 240 q 269 272 317 260 q 181 300 220 284 q 116 341 141 315 q 92 402 92 368 q 153 526 92 478 q 335 574 214 574 q 442 562 397 574 q 514 526 487 549 q 556 474 541 502 q 577 409 570 446 l 577 406 q 571 392 577 397 q 558 387 566 387 z "},"t":{"ha":323,"x_min":-18,"x_max":342,"o":"m 324 18 q 337 13 332 18 q 342 0 342 7 q 337 -13 342 -7 q 324 -18 332 -18 q 105 77 156 -18 q 77 6 99 30 q 0 -18 55 -18 q -13 -13 -7 -18 q -18 0 -18 -7 q -13 13 -18 7 q 0 18 -7 18 q 56 39 45 18 q 73 121 68 59 q 74 140 73 134 l 74 925 q 80 938 74 932 q 93 943 85 943 q 106 938 100 943 q 111 925 111 932 l 111 760 l 324 760 q 337 754 332 760 q 342 741 342 748 q 337 728 342 733 q 324 722 332 722 l 111 722 l 111 279 q 124 129 111 173 q 229 29 148 52 q 324 18 268 18 z "},"u":{"ha":648,"x_min":-18,"x_max":667,"o":"m 111 271 q 112 219 111 239 q 115 173 113 199 q 124 129 118 146 q 140 92 130 112 q 166 61 151 73 q 204 38 182 49 q 256 23 226 28 q 324 18 286 18 q 421 30 381 18 q 483 61 460 42 q 518 111 505 79 q 534 173 530 143 q 537 248 537 203 l 537 555 q 543 569 537 563 q 555 574 548 574 q 569 569 563 574 q 574 555 574 563 l 574 250 q 578 99 577 110 q 606 28 583 43 q 648 18 621 18 q 661 13 656 18 q 667 0 667 7 q 661 -13 667 -7 q 648 -18 656 -18 q 574 5 597 -18 q 543 78 551 29 q 324 -18 490 -18 q 121 53 178 -18 q 77 -1 110 16 q 3 -18 45 -18 q -18 0 -18 -18 q 3 18 -18 18 q 68 40 47 18 q 90 96 90 61 q 86 121 90 106 q 79 177 83 137 q 75 285 75 217 l 75 555 q 80 569 75 563 q 94 574 86 574 q 106 569 101 574 q 112 555 112 563 l 111 271 z "},"v":{"ha":684,"x_min":-18,"x_max":703,"o":"m 46 555 q 51 569 46 563 q 64 574 56 574 q 81 564 75 574 l 342 41 l 604 564 q 620 574 609 574 q 633 569 628 574 q 638 555 638 563 q 637 547 638 550 l 543 359 q 536 340 542 356 q 525 304 530 324 q 521 260 521 285 q 546 145 521 201 q 609 53 570 88 q 685 18 647 18 q 698 13 692 18 q 703 0 703 7 q 698 -13 703 -7 q 685 -18 692 -18 q 551 63 611 -18 q 484 242 490 144 l 359 -8 q 342 -18 354 -18 q 326 -8 331 -18 l 201 242 q 134 63 194 144 q 0 -17 73 -17 q -13 -12 -7 -17 q -18 1 -18 -6 q -13 14 -18 9 q 0 20 -7 20 q 76 55 38 20 q 139 146 115 90 q 164 262 164 203 q 161 295 164 279 q 156 320 159 312 q 149 341 153 329 q 144 355 144 353 l 48 547 q 46 555 46 551 z "},"w":{"ha":873,"x_min":-18,"x_max":892,"o":"m 46 555 q 51 569 46 563 q 64 574 56 574 q 81 564 75 574 l 342 41 l 416 189 l 237 547 q 238 565 233 556 q 254 574 243 574 q 271 564 265 574 l 437 231 l 604 564 q 620 574 609 574 q 633 569 628 574 q 639 555 639 563 q 637 547 639 551 l 458 189 l 532 41 l 793 564 q 810 574 799 574 q 823 569 818 574 q 828 555 828 563 q 827 547 828 550 l 730 355 q 725 341 730 353 q 718 320 721 329 q 713 295 715 311 q 710 260 710 278 q 735 145 710 201 q 798 53 760 88 q 874 18 836 18 q 887 13 882 18 q 892 0 892 7 q 887 -13 892 -7 q 874 -18 882 -18 q 780 20 825 -18 q 706 117 735 58 q 673 241 677 177 l 549 -8 q 532 -18 544 -18 q 515 -8 521 -18 l 437 149 l 359 -8 q 342 -18 354 -18 q 326 -8 331 -18 l 201 242 q 134 63 194 144 q 0 -17 73 -17 q -13 -12 -7 -17 q -18 1 -18 -6 q -13 14 -18 9 q 0 20 -7 20 q 76 55 38 20 q 139 146 115 90 q 164 262 164 203 q 161 295 164 279 q 156 320 159 312 q 149 341 153 329 q 144 355 144 353 l 48 547 q 46 555 46 551 z "},"x":{"ha":620,"x_min":-18,"x_max":639,"o":"m 595 18 q 606 19 600 18 q 621 19 612 19 q 633 13 628 19 q 639 0 639 7 q 633 -13 639 -7 q 621 -19 628 -19 l 595 -19 q 563 -17 576 -19 q 532 -4 551 -15 q 498 21 513 7 q 453 69 484 35 q 393 139 422 103 q 311 243 364 176 q 228 139 257 176 q 168 69 199 103 q 123 21 138 35 q 89 -4 108 7 q 58 -17 71 -15 q 26 -19 45 -19 l 1 -19 q -12 -13 -7 -19 q -18 0 -18 -7 q -12 13 -18 7 q 1 19 -7 19 q 16 19 9 19 q 26 18 22 18 q 79 34 57 18 q 195 162 109 56 q 286 274 222 194 l 69 544 q 66 555 66 548 q 72 568 66 562 q 86 574 79 574 q 100 567 94 574 l 311 305 l 522 567 q 535 574 528 574 q 549 568 543 574 q 555 555 555 562 q 551 544 555 549 l 335 274 q 516 57 481 92 q 578 19 550 22 q 595 18 585 18 z "},"y":{"ha":741,"x_min":-18,"x_max":760,"o":"m 74 555 q 79 569 74 563 q 93 574 85 574 q 109 565 103 574 l 418 35 l 633 564 q 649 574 637 574 q 663 569 656 574 q 669 557 669 564 q 667 549 669 552 l 397 -113 q 539 -13 458 -43 q 740 18 620 18 l 741 18 q 754 13 748 18 q 760 0 760 7 q 754 -13 760 -7 q 741 -18 748 -18 l 740 -18 q 615 -28 667 -18 q 517 -59 563 -37 q 434 -123 471 -81 q 363 -223 397 -164 q 292 -370 330 -282 l 215 -560 q 199 -571 210 -571 q 185 -566 191 -571 q 179 -553 179 -561 q 180 -546 179 -549 l 400 -8 l 245 257 q 220 159 244 209 q 161 70 196 109 q 82 7 125 32 q 0 -17 39 -17 q -13 -12 -7 -17 q -18 1 -18 -6 q -13 14 -18 9 q 0 20 -7 20 q 65 41 28 20 q 133 95 102 62 q 186 173 165 127 q 208 262 208 218 q 207 288 208 275 q 203 311 205 300 q 198 328 200 322 q 193 344 197 334 q 189 355 189 354 l 77 546 q 74 555 74 549 z "},"z":{"ha":745,"x_min":-18,"x_max":760,"o":"m 27 574 l 663 574 q 676 569 671 574 q 682 555 682 563 q 677 543 682 549 l 245 18 l 741 18 q 754 13 748 18 q 760 0 760 7 q 754 -13 760 -7 q 741 -19 748 -19 l 205 -19 q 192 -13 197 -19 q 186 0 186 -7 q 195 16 186 10 l 624 537 l 119 537 q 187 286 187 466 q 176 179 187 231 q 142 81 164 126 q 83 9 120 37 q 0 -18 46 -18 q -13 -13 -7 -18 q -18 0 -18 -7 q -13 13 -18 7 q 0 18 -7 18 q 109 97 66 18 q 151 286 151 175 q 34 537 151 530 l 27 537 q 9 555 9 537 q 14 569 9 564 q 27 574 19 574 z "},"{":{"ha":585,"x_min":-19,"x_max":602,"o":"m 256 342 q 289 618 282 526 q 296 838 296 709 q 296 899 296 878 q 299 957 296 921 q 305 1014 301 993 q 318 1060 309 1034 q 338 1099 326 1086 q 369 1123 351 1113 q 412 1133 388 1133 q 425 1127 420 1133 q 431 1114 431 1122 q 425 1101 431 1107 q 412 1096 420 1096 q 349 1037 364 1096 q 333 838 333 977 q 326 616 333 711 q 292 336 319 522 q 239 161 278 235 q 266 144 254 153 q 291 116 277 135 q 313 72 304 97 q 328 6 321 47 q 334 -87 334 -35 q 333 -94 334 -90 q 333 -100 333 -98 l 333 -101 q 438 -14 372 -46 q 584 19 505 19 q 597 13 591 19 q 602 0 602 7 q 597 -13 602 -7 q 584 -19 591 -19 q 468 -39 517 -19 q 392 -86 418 -58 q 351 -152 366 -114 q 331 -219 335 -191 q 327 -277 327 -248 q 327 -295 327 -286 q 328 -309 328 -304 q 328 -315 328 -315 q 338 -462 328 -406 q 367 -541 349 -518 q 413 -565 385 -564 q 429 -574 425 -565 q 429 -593 433 -584 q 412 -602 424 -602 l 412 -602 q 365 -589 385 -601 q 332 -554 345 -577 q 310 -506 319 -532 q 298 -445 302 -480 q 292 -381 294 -410 q 291 -315 291 -352 q 294 -192 291 -275 q 296 -87 296 -110 q 284 36 296 -12 q 257 100 272 83 q 220 128 243 117 q 112 17 174 54 q 0 -19 50 -19 q -13 -13 -7 -19 q -19 0 -19 -7 q -13 13 -19 7 q 0 19 -7 19 q 47 27 21 19 q 106 59 73 36 q 168 117 139 83 q 221 211 197 152 q 256 342 245 269 z "},"|":{"ha":296,"x_min":-19,"x_max":315,"o":"m 129 1113 q 135 1126 129 1120 q 148 1131 140 1131 q 161 1126 155 1131 q 166 1113 166 1120 l 166 18 l 296 18 q 309 13 303 18 q 315 0 315 7 q 309 -13 315 -7 q 296 -19 303 -19 l 166 -19 l 166 -553 q 161 -567 166 -561 q 148 -572 155 -572 q 135 -567 140 -572 q 129 -553 129 -561 l 129 -19 l 0 -19 q -13 -13 -7 -19 q -19 0 -19 -7 q -13 13 -19 7 q 0 18 -7 18 l 129 18 l 129 1113 z "},"}":{"ha":585,"x_min":-19,"x_max":602,"o":"m 328 342 q 363 211 338 269 q 416 117 387 152 q 478 59 445 83 q 537 27 511 36 q 584 19 563 19 q 597 13 591 19 q 602 0 602 7 q 597 -13 602 -7 q 584 -19 591 -19 q 472 17 534 -19 q 363 128 410 54 q 327 100 341 117 q 300 36 312 83 q 288 -87 288 -12 q 290 -192 288 -110 q 293 -315 293 -275 q 292 -381 293 -352 q 286 -445 290 -410 q 274 -506 282 -480 q 252 -554 265 -532 q 219 -589 239 -577 q 172 -602 199 -601 l 172 -602 q 155 -593 160 -602 q 155 -574 151 -584 q 171 -565 159 -565 q 217 -541 199 -564 q 245 -462 235 -518 q 256 -315 256 -406 l 256 -287 q 254 -243 256 -263 q 247 -195 253 -224 q 231 -144 241 -166 q 202 -97 221 -121 q 157 -56 183 -73 q 90 -30 130 -40 q 0 -19 50 -19 q -13 -13 -7 -19 q -19 0 -19 -7 q -13 13 -19 7 q 0 19 -7 19 q 145 -14 79 19 q 251 -101 212 -46 l 251 -100 q 251 -94 251 -98 q 250 -87 250 -90 q 258 25 250 -22 q 282 98 267 72 q 312 138 298 125 q 345 161 326 151 q 292 336 306 235 q 258 616 265 522 q 251 838 251 711 q 235 1037 251 977 q 172 1096 220 1096 q 159 1101 164 1096 q 153 1114 153 1107 q 159 1127 153 1122 q 172 1133 164 1133 q 276 1027 253 1133 q 288 838 288 972 q 294 620 288 711 q 328 342 301 528 z "},"~":{"ha":1389,"x_min":93,"x_max":481,"o":"m 93 926 q 97 936 94 930 q 109 957 99 942 q 131 984 119 972 q 165 1006 143 996 q 212 1015 186 1015 q 257 999 237 1014 q 290 964 277 984 q 314 923 303 943 q 335 889 324 903 q 358 876 347 876 q 395 886 378 876 q 424 910 413 897 q 445 934 434 923 q 461 945 455 945 q 475 939 469 945 q 481 926 481 933 q 471 908 481 922 q 447 879 462 895 q 407 851 431 863 q 358 838 382 838 q 321 852 338 838 q 292 886 304 866 q 269 927 280 907 q 243 962 257 947 q 212 978 229 977 q 169 967 186 978 q 145 943 152 956 q 130 918 138 929 q 113 907 122 907 q 99 913 106 907 q 93 926 93 919 z "},"":{"ha":1111,"x_min":93,"x_max":1019,"o":"m 555 1111 q 171 971 275 1111 q 96 716 106 884 q 93 558 93 665 q 106 312 93 389 q 237 77 132 151 q 555 0 346 0 q 941 142 837 0 q 1015 401 1005 230 q 1019 557 1019 452 q 1006 802 1019 726 q 874 1034 979 962 q 555 1111 765 1111 z "},"":{"ha":648,"x_min":93,"x_max":555,"o":"m 324 555 q 529 465 481 555 q 555 309 554 415 q 555 278 555 298 q 543 126 555 172 q 425 12 517 38 q 324 0 382 0 q 119 92 166 0 q 93 249 94 142 q 93 279 93 260 q 106 430 93 385 q 222 543 131 517 q 324 555 265 555 z "},"":{"ha":648,"x_min":-18,"x_max":127,"o":"m 102 161 q 127 91 127 161 q 91 8 127 35 q 3 -18 55 -18 q -18 0 -18 -18 q 3 18 -18 18 q 68 40 47 18 q 90 96 90 61 q 87 120 90 104 q 84 142 84 136 q 102 161 84 161 z "},"":{"ha":648,"x_min":522,"x_max":667,"o":"m 522 91 q 522 106 522 98 q 525 129 523 114 q 533 153 527 143 q 549 162 540 162 q 566 144 566 162 q 563 118 566 136 q 559 91 559 100 q 584 35 559 52 q 646 18 609 18 q 667 0 667 18 q 646 -18 667 -18 q 558 8 594 -18 q 522 91 522 35 z "},"":{"ha":648,"x_min":-18,"x_max":111,"o":"m 74 140 l 74 555 q 80 569 74 563 q 93 574 85 574 q 106 569 100 574 q 111 555 111 563 l 111 138 q 110 122 111 133 q 107 90 108 100 q 102 61 106 79 q 95 34 99 43 q 82 13 90 25 q 64 -4 75 1 q 37 -14 53 -10 q 0 -18 20 -18 q -13 -13 -7 -18 q -18 0 -18 -7 q -13 13 -18 7 q 0 18 -7 18 q 56 39 45 18 q 73 121 68 59 q 74 140 73 134 z "},"":{"ha":648,"x_min":-18,"x_max":112,"o":"m 94 161 q 106 157 100 161 q 112 141 112 152 q 77 34 112 86 q 0 -18 43 -18 q -13 -13 -7 -18 q -18 0 -18 -7 q -13 13 -18 7 q 0 18 -7 18 q 50 59 24 18 q 75 141 75 100 q 81 157 75 152 q 94 161 87 161 z "},"":{"ha":359,"x_min":-19,"x_max":377,"o":"m 358 19 q 371 13 366 19 q 377 0 377 7 q 371 -13 377 -7 q 358 -19 366 -19 l 0 -19 q -13 -13 -7 -19 q -19 0 -19 -7 q -13 13 -19 7 q 0 19 -7 19 l 358 19 z "},"":{"ha":476,"x_min":-18,"x_max":495,"o":"m 214 -374 l 214 -368 l 222 149 q 131 25 188 68 q 0 -19 73 -19 q -14 -13 -9 -19 q -18 0 -18 -7 q -14 13 -18 7 q 0 19 -9 19 q 159 110 98 19 q 225 354 220 200 l 225 378 q 231 391 225 386 q 244 397 237 397 q 257 391 252 397 q 262 378 262 386 l 255 -144 q 346 -21 289 -64 q 477 23 403 23 q 490 17 486 23 q 495 4 495 12 q 490 -9 495 -3 q 477 -14 486 -14 q 313 -112 375 -14 q 251 -370 251 -210 l 251 -374 q 245 -387 251 -382 q 233 -393 240 -393 q 219 -387 225 -393 q 214 -374 214 -382 m 190 608 q 201 619 190 608 q 243 630 212 630 q 295 608 273 630 q 317 555 317 586 q 295 503 317 525 q 243 481 273 481 q 190 503 212 481 q 168 555 168 525 q 190 608 168 586 z "},"":{"ha":648,"x_min":-18,"x_max":667,"o":"m 545 332 q 538 333 542 332 q 530 338 535 334 q 526 351 526 343 q 530 369 526 355 q 534 400 534 383 q 494 485 534 448 q 378 534 454 523 l 231 28 q 324 18 269 18 q 393 32 361 18 q 451 58 425 45 q 501 71 477 71 q 557 58 532 71 q 604 32 583 45 q 648 18 626 18 q 661 13 656 18 q 667 0 667 7 q 661 -13 667 -7 q 648 -18 656 -18 q 594 -5 618 -18 q 549 21 570 8 q 501 35 527 35 q 459 21 484 35 q 399 -5 434 8 q 324 -18 365 -18 q 220 -7 264 -18 l 186 -123 q 170 -136 182 -136 q 156 -131 162 -136 q 150 -119 150 -126 q 151 -113 150 -117 l 185 5 q 121 53 145 23 q 77 -1 110 16 q 3 -18 45 -18 q -18 0 -18 -18 q 3 18 -18 18 q 68 40 47 18 q 90 96 90 61 q 82 147 90 100 q 74 279 74 194 q 88 436 74 387 q 229 564 118 538 q 324 574 270 574 q 351 574 342 574 l 404 754 q 420 767 408 767 q 434 762 428 767 q 440 749 440 757 q 439 743 440 747 l 389 570 q 524 509 477 556 q 570 399 570 461 q 565 355 570 378 q 545 332 559 332 m 196 42 l 340 537 l 324 537 q 139 462 182 537 q 111 315 113 417 q 111 279 111 302 q 120 146 111 189 q 124 129 121 143 q 196 42 143 68 z "},"":{"ha":758,"x_min":-19,"x_max":779,"o":"m 649 867 q 634 880 639 867 q 627 911 629 892 q 620 954 624 930 q 604 1001 616 977 q 572 1043 592 1024 q 515 1075 553 1063 q 425 1087 477 1087 q 252 1026 311 1087 q 193 847 193 964 q 197 581 193 829 l 384 582 q 397 576 393 582 q 402 563 402 570 q 397 550 402 555 q 384 544 393 544 l 198 543 q 201 360 201 395 q 170 137 201 227 q 254 158 208 158 q 340 144 292 158 q 436 109 388 130 q 535 67 484 88 q 646 33 587 47 q 760 18 705 18 q 773 13 768 18 q 779 0 779 7 q 773 -13 779 -7 q 760 -19 768 -19 q 642 -5 703 -19 q 529 30 581 9 q 429 72 477 51 q 334 106 380 92 q 254 121 288 121 q 205 113 227 121 q 170 93 184 105 q 144 66 157 81 q 119 36 132 51 q 92 9 106 21 q 53 -11 77 -3 q 0 -19 30 -19 q -13 -13 -7 -19 q -19 0 -19 -7 q -13 13 -19 7 q 0 18 -7 18 q 47 26 28 18 q 77 44 67 35 q 101 73 86 53 q 112 96 102 76 q 133 142 122 115 q 154 228 144 170 q 163 360 163 287 q 161 543 163 395 l 54 543 q 41 548 45 543 q 36 562 36 554 q 41 574 36 569 q 54 580 45 580 l 160 581 q 155 847 155 827 q 223 1049 155 974 q 425 1124 290 1124 q 532 1108 486 1124 q 603 1067 578 1091 q 644 1009 629 1043 q 664 946 660 975 q 669 886 669 918 q 663 872 669 878 q 649 867 656 867 z "},"":{"ha":844,"x_min":-19,"x_max":863,"o":"m 414 588 q 465 609 443 588 q 487 663 487 629 q 467 712 487 689 q 412 736 447 736 l 412 736 q 361 716 385 736 q 338 661 338 695 q 358 611 338 633 q 412 588 378 589 l 414 588 m 412 551 q 331 585 361 551 q 301 661 301 618 q 336 743 301 712 q 412 774 370 774 l 413 774 q 494 738 464 773 q 524 663 524 703 q 491 582 524 614 q 414 551 458 551 l 412 551 m 688 403 q 693 391 693 397 q 687 378 693 384 q 673 372 681 372 q 660 378 665 372 l 542 513 q 538 524 538 517 q 544 538 538 532 q 557 544 549 544 q 570 537 564 544 l 688 403 m 288 832 q 292 821 292 827 q 286 807 292 813 q 273 801 280 801 q 259 807 264 801 l 141 941 q 136 954 136 947 q 142 967 136 961 q 156 972 149 972 q 170 966 164 972 l 288 832 m 684 946 q 696 951 689 951 q 709 945 703 951 q 715 931 715 939 q 709 918 715 924 l 574 800 q 563 795 569 795 q 549 801 555 795 q 543 814 543 807 q 550 828 543 822 l 684 946 m 255 545 q 267 549 260 549 q 280 544 274 549 q 286 530 286 538 q 279 517 286 523 l 145 399 q 134 394 140 394 q 120 400 126 394 q 115 414 115 406 q 121 427 115 422 l 255 545 m 844 18 q 857 13 852 18 q 863 0 863 7 q 857 -13 863 -7 q 844 -19 852 -19 l 0 -19 q -13 -13 -7 -19 q -19 0 -19 -7 q -13 13 -19 7 q 0 18 -7 18 l 844 18 z "},"":{"ha":629,"x_min":-18,"x_max":654,"o":"m 337 85 q 370 34 337 50 q 445 18 402 18 l 629 18 q 643 13 637 18 q 648 0 648 7 q 643 -13 648 -7 q 629 -18 637 -18 l 444 -18 q 318 28 354 -18 q 259 -7 297 3 q 185 -18 222 -18 l 0 -18 q -13 -13 -7 -18 q -18 0 -18 -7 q -13 13 -18 7 q 0 18 -7 18 l 180 18 q 265 34 231 18 q 300 83 300 50 l 300 412 l 106 412 q 94 418 99 412 q 88 431 88 423 q 94 444 88 438 q 106 450 99 450 l 300 450 l 300 583 l -13 1101 q -13 1120 -18 1110 q 3 1130 -8 1130 q 18 1121 13 1130 l 319 622 l 621 1121 q 636 1130 626 1130 q 649 1124 644 1130 q 654 1111 654 1118 q 652 1101 654 1105 l 337 580 l 337 450 l 528 450 q 541 444 535 450 q 547 431 547 438 q 541 418 547 423 q 528 412 535 412 l 337 412 l 337 85 z "},"":{"ha":577,"x_min":-19,"x_max":596,"o":"m 290 397 l 290 950 q 296 963 290 958 q 309 968 302 968 q 322 963 317 968 q 328 950 328 958 l 328 397 q 325 304 328 346 q 312 218 321 262 q 288 140 303 174 q 248 76 273 106 q 189 25 222 45 q 107 -7 155 5 q 0 -19 59 -19 q -13 -13 -7 -19 q -19 0 -19 -7 q -13 13 -19 7 q 0 18 -7 18 q 110 32 62 18 q 189 72 158 45 q 241 131 220 98 q 272 209 262 163 q 286 298 282 255 q 290 397 290 341 m 287 -397 l 287 -950 q 281 -963 287 -958 q 269 -968 276 -968 q 255 -963 261 -968 q 250 -950 250 -958 l 250 -397 q 253 -304 250 -346 q 266 -218 256 -262 q 290 -140 275 -174 q 330 -76 304 -106 q 389 -25 355 -45 q 471 6 422 -5 q 578 18 519 18 q 591 13 585 18 q 596 0 596 7 q 591 -13 596 -7 q 578 -19 585 -19 q 481 -30 524 -19 q 408 -58 438 -40 q 356 -104 378 -76 q 321 -163 334 -132 q 300 -234 308 -193 q 290 -312 292 -274 q 287 -397 287 -349 z "},"":{"ha":769,"x_min":-19,"x_max":788,"o":"m 256 241 q 293 172 266 196 q 351 148 320 148 q 405 173 382 148 q 430 245 428 197 q 394 317 421 292 q 336 342 367 342 q 280 316 304 342 q 256 241 257 290 m 332 863 q 390 850 362 863 q 437 820 418 838 q 470 783 456 802 q 491 748 484 763 q 498 727 498 733 q 492 713 498 719 q 478 708 486 708 q 462 720 467 708 q 405 798 441 770 q 332 825 368 825 q 283 807 302 825 q 264 754 264 788 q 293 657 264 721 q 358 532 322 594 q 427 396 393 470 q 466 273 460 321 q 481 235 471 258 q 518 172 492 212 q 577 100 545 132 q 661 43 610 68 q 769 19 712 19 q 782 13 777 19 q 788 0 788 7 q 782 -13 788 -7 q 769 -19 777 -19 q 677 -4 721 -19 q 601 33 633 11 q 540 85 569 55 q 493 142 511 116 q 460 197 475 169 q 417 133 447 156 q 351 111 387 111 q 283 132 313 111 q 351 -4 303 83 q 429 -158 398 -91 q 459 -265 459 -225 q 430 -343 459 -314 q 355 -373 401 -373 q 296 -361 324 -373 q 250 -331 269 -349 q 216 -293 231 -313 q 195 -258 202 -273 q 189 -237 189 -243 q 195 -224 189 -229 q 208 -218 201 -218 q 224 -231 220 -218 q 282 -309 245 -281 q 355 -336 319 -336 q 403 -317 385 -336 q 422 -265 422 -299 q 387 -157 422 -229 q 304 4 353 -86 q 237 151 256 94 q 207 74 224 105 q 172 25 191 43 q 124 -3 153 7 q 69 -16 96 -13 q 0 -19 42 -19 q -13 -13 -7 -19 q -19 0 -19 -7 q -13 13 -19 7 q 0 19 -7 19 q 60 21 37 19 q 107 31 83 23 q 145 52 131 38 q 174 90 159 66 q 198 150 189 115 q 218 235 208 184 q 219 239 218 237 q 220 252 218 247 q 257 345 224 311 q 336 379 290 379 q 403 358 373 379 q 335 494 382 407 q 258 647 288 581 q 227 754 227 713 q 256 833 227 803 q 332 863 285 863 z "},"":{"ha":370,"x_min":37,"x_max":334,"o":"m 278 890 q 319 872 304 889 q 334 836 334 855 q 316 794 334 809 q 279 779 298 779 l 278 779 q 237 797 252 779 q 222 833 222 814 q 240 875 222 860 q 277 890 257 890 l 278 890 m 296 835 q 291 847 296 842 q 277 852 286 852 q 264 847 269 852 q 260 833 260 841 q 266 821 260 826 q 279 817 272 817 q 296 835 296 817 m 93 890 q 134 872 119 889 q 148 836 148 855 q 131 794 148 809 q 94 779 113 779 l 93 779 q 52 797 66 779 q 37 833 37 814 q 55 875 37 860 q 92 890 72 890 l 93 890 m 106 821 q 109 824 106 821 q 111 835 111 827 q 105 848 111 843 q 92 853 100 853 q 79 847 83 853 q 74 833 74 842 q 80 821 74 825 q 94 816 85 816 q 106 821 102 816 z "},"":{"ha":1388,"x_min":-19,"x_max":1408,"o":"m 744 18 q 919 70 836 27 q 1061 177 1001 112 q 1155 329 1120 242 q 1190 510 1190 416 q 1150 702 1190 610 q 1045 860 1111 793 q 887 965 979 926 q 695 1004 795 1004 q 503 965 595 1004 q 346 860 412 926 q 240 702 279 793 q 201 510 201 610 q 260 275 201 384 q 421 98 319 166 q 646 18 523 31 l 744 18 m 882 574 q 875 589 875 576 q 879 607 875 593 q 884 637 884 621 q 829 734 884 694 q 673 774 774 774 q 488 699 532 774 q 460 553 463 654 q 460 516 460 539 q 473 366 460 410 q 578 267 497 290 q 673 256 617 256 q 742 269 710 256 q 800 295 774 282 q 850 309 827 309 q 907 295 882 309 q 954 269 932 282 q 998 256 975 256 q 1010 250 1005 256 q 1016 237 1016 245 q 1010 224 1016 230 q 998 219 1005 219 q 944 232 968 219 q 898 259 920 245 q 850 272 876 272 q 808 259 833 272 q 749 232 783 245 q 673 219 714 219 q 456 313 507 219 q 423 486 425 368 q 423 516 423 498 q 437 673 423 624 q 578 802 467 776 q 673 812 619 812 q 856 761 793 812 q 920 637 920 710 q 914 592 920 615 q 894 570 908 570 q 882 574 888 570 m 489 1000 q 538 1021 489 1000 q 695 1042 587 1042 q 901 1000 803 1042 q 1071 886 1000 958 q 1185 716 1143 814 q 1227 510 1227 618 q 1135 212 1227 346 q 897 18 1044 79 l 1389 18 q 1402 13 1396 18 q 1408 0 1408 7 q 1402 -13 1408 -7 q 1389 -19 1396 -19 l 745 -19 q 695 -21 720 -21 q 645 -19 670 -21 l 0 -19 q -13 -13 -7 -19 q -19 0 -19 -7 q -13 13 -19 7 q 0 18 -7 18 l 494 18 q 255 212 347 79 q 164 510 164 346 q 206 716 164 618 q 319 886 248 814 q 489 1000 391 958 z "},"":{"ha":541,"x_min":-19,"x_max":560,"o":"m 341 692 q 356 686 351 692 q 361 673 361 680 l 361 358 q 346 342 361 342 q 332 347 338 342 q 326 361 326 352 l 326 375 q 240 350 305 350 q 144 382 167 350 q 122 519 122 415 q 127 592 122 563 q 140 640 132 622 q 164 668 148 659 q 197 681 180 678 q 242 684 214 684 q 326 661 302 684 l 326 675 q 330 687 326 682 q 341 692 334 692 m 242 387 q 302 395 290 387 q 323 452 320 405 q 325 551 325 476 q 312 631 325 615 q 242 647 300 647 q 218 647 227 647 q 200 644 210 646 q 185 637 190 642 q 175 625 181 633 q 167 605 169 616 q 163 576 165 594 q 160 535 161 557 q 159 481 159 513 q 162 429 159 446 q 174 402 164 412 q 197 389 184 391 q 240 387 211 387 l 242 387 m 560 0 q 554 -14 560 -9 q 541 -19 548 -19 l 0 -19 q -14 -13 -8 -19 q -19 0 -19 -7 q -14 12 -19 6 q 0 18 -8 18 l 541 18 q 554 13 548 18 q 560 0 560 8 z "},"":{"ha":916,"x_min":-18,"x_max":935,"o":"m 930 12 q 933 9 930 12 q 935 0 935 6 q 930 -12 935 -6 q 915 -18 926 -18 q 810 26 849 -18 l 565 272 q 559 285 559 277 l 559 286 q 565 298 559 292 l 835 569 q 848 574 840 574 q 862 569 857 574 q 867 556 867 564 q 861 543 867 548 l 604 285 l 838 52 q 915 18 868 18 q 930 12 926 18 m 635 569 q 648 574 640 574 q 662 569 656 574 q 667 555 667 563 q 661 543 667 548 l 396 277 l 661 13 q 666 1 666 7 q 660 -13 666 -7 q 647 -18 654 -18 q 634 -13 640 -18 l 370 251 l 273 153 l 272 153 q 271 153 271 153 q 223 111 260 143 q 164 63 186 79 q 111 24 143 47 q 52 -8 79 2 q 0 -18 24 -18 q -13 -13 -7 -18 q -18 0 -18 -7 q -13 13 -18 7 q 0 18 -7 18 q 42 28 19 18 q 95 58 65 37 q 143 94 124 79 q 199 140 163 109 q 247 180 235 170 l 635 569 z "},"":{"ha":585,"x_min":-19,"x_max":605,"o":"m -13 -14 q -16 -11 -13 -14 q -19 0 -19 -8 q -13 13 -19 8 q 0 18 -7 18 l 408 18 l 408 537 l 94 537 q 81 542 87 537 q 75 555 75 547 q 81 569 75 564 q 94 574 87 574 l 427 574 q 441 568 436 574 q 446 555 446 562 l 446 18 l 586 18 q 600 12 594 18 q 605 0 605 6 q 600 -13 605 -7 q 586 -19 594 -19 l 446 -19 l 446 -279 q 440 -292 446 -288 q 427 -297 434 -297 q 414 -292 420 -297 q 408 -279 408 -287 l 408 -19 l 0 -19 q -13 -14 -7 -19 z "},"":{"ha":652,"x_min":-18,"x_max":667,"o":"m 531 293 q 544 288 538 293 q 549 275 549 282 q 544 262 549 267 q 531 256 538 256 l 134 256 q 121 262 127 256 q 116 275 116 267 q 121 288 116 282 q 134 293 127 293 l 531 293 m 648 18 q 661 13 656 18 q 667 0 667 7 q 661 -13 667 -7 q 648 -18 656 -18 l 0 -18 q -13 -13 -7 -18 q -18 0 -18 -7 q -13 13 -18 7 q 0 18 -7 18 l 648 18 z "},"":{"ha":1388,"x_min":-19,"x_max":1408,"o":"m 504 743 l 504 810 q 499 817 502 813 q 488 795 494 810 q 483 768 483 781 q 504 743 483 747 m 446 767 q 461 828 446 799 q 500 857 476 857 q 527 843 513 857 q 541 815 541 829 q 541 810 541 813 l 541 740 q 674 751 583 740 q 817 762 765 762 q 860 749 842 762 q 887 717 878 736 q 902 668 897 698 q 908 614 907 638 q 909 559 909 591 q 908 493 909 535 q 907 429 907 452 q 909 369 907 395 q 918 314 911 343 q 937 265 925 284 q 971 233 949 245 q 1024 220 994 220 q 1037 214 1031 220 q 1042 201 1042 209 q 1037 189 1042 194 q 1024 183 1031 183 q 961 195 988 183 q 917 228 934 208 q 889 281 899 249 q 874 348 878 313 q 870 429 870 384 q 871 494 870 452 q 872 559 872 536 q 859 687 872 649 q 817 725 846 725 q 677 714 768 725 q 541 703 587 703 l 541 340 q 493 228 535 272 q 376 183 450 183 q 363 189 368 183 q 357 201 357 194 q 363 214 357 209 q 376 220 368 220 q 465 249 431 220 q 504 341 498 278 l 504 705 q 460 725 474 710 q 446 767 446 739 m 744 18 q 919 70 836 27 q 1061 177 1001 112 q 1155 329 1120 242 q 1190 510 1190 416 q 1150 702 1190 610 q 1045 860 1111 793 q 887 965 979 926 q 695 1004 795 1004 q 503 965 595 1004 q 346 860 412 926 q 240 702 279 793 q 201 510 201 610 q 260 275 201 384 q 421 98 319 166 q 646 18 523 31 l 744 18 m 489 1000 q 538 1021 489 1000 q 695 1042 587 1042 q 901 1000 803 1042 q 1071 886 1000 958 q 1185 716 1143 814 q 1227 510 1227 618 q 1135 212 1227 346 q 897 18 1044 79 l 1389 18 q 1402 13 1396 18 q 1408 0 1408 7 q 1402 -13 1408 -7 q 1389 -19 1396 -19 l 745 -19 q 695 -21 720 -21 q 645 -19 670 -21 l 0 -19 q -13 -13 -7 -19 q -19 0 -19 -7 q -13 13 -19 7 q 0 18 -7 18 l 494 18 q 255 212 347 79 q 164 510 164 346 q 206 716 164 618 q 319 886 248 814 q 489 1000 391 958 z "},"":{"ha":504,"x_min":98,"x_max":363,"o":"m 103 690 q 101 693 103 690 q 98 704 98 695 q 103 718 98 713 q 116 722 109 722 l 344 722 q 358 716 353 722 q 363 704 363 711 q 358 691 363 697 q 344 685 353 685 l 116 685 q 103 690 109 685 z "},"":{"ha":370,"x_min":113,"x_max":224,"o":"m 168 894 q 209 876 195 893 q 224 839 224 859 q 207 798 224 812 q 170 783 189 783 l 168 783 q 127 800 142 783 q 113 837 113 817 q 131 879 113 863 q 168 894 148 894 l 168 894 m 182 825 q 185 828 182 825 q 187 839 187 831 q 181 852 187 847 q 168 857 176 857 q 155 851 159 857 q 150 837 150 845 q 156 824 150 829 q 170 819 161 819 q 182 825 178 819 z "},"":{"ha":652,"x_min":-18,"x_max":667,"o":"m 531 151 q 544 145 538 151 q 549 132 549 140 q 544 119 549 125 q 531 114 538 114 l 134 114 q 121 119 127 114 q 116 132 116 125 q 121 145 116 140 q 134 151 127 151 l 531 151 m 648 18 q 661 13 656 18 q 667 0 667 7 q 661 -13 667 -7 q 648 -18 656 -18 l 0 -18 q -13 -13 -7 -18 q -18 0 -18 -7 q -13 13 -18 7 q 0 18 -7 18 l 648 18 m 353 258 q 348 245 353 250 q 335 239 342 239 q 322 245 328 239 q 317 258 317 250 l 317 433 l 134 433 q 121 438 127 433 q 116 451 116 444 q 121 464 116 458 q 134 469 127 469 l 317 469 l 317 650 q 322 664 317 658 q 335 669 328 669 q 348 664 342 669 q 353 650 353 658 l 353 469 l 531 469 q 544 464 538 469 q 549 451 549 458 q 544 438 549 444 q 531 433 538 433 l 353 433 l 353 258 z "},"":{"ha":1389,"x_min":140,"x_max":482,"o":"m 464 781 q 477 775 471 781 q 482 762 482 770 q 477 749 482 754 q 341 646 417 685 q 158 608 266 608 q 145 613 151 608 q 140 626 140 618 q 145 639 140 633 q 158 644 151 644 q 268 658 217 644 q 350 692 319 672 q 405 733 382 713 q 443 767 429 753 q 464 781 458 781 z "},"":{"ha":640,"x_min":-18,"x_max":657,"o":"m 657 0 q 652 -13 657 -7 q 639 -18 646 -18 q 565 -3 591 -18 q 530 51 538 13 q 349 -5 452 8 q 104 -18 246 -18 l 0 -18 q -13 -13 -7 -18 q -18 0 -18 -7 q -13 13 -18 7 q 0 18 -7 18 l 36 18 q 186 20 132 18 q 312 28 241 22 q 434 50 382 35 q 528 92 486 66 l 528 583 q 456 552 498 563 q 383 539 414 541 q 302 537 351 537 l 283 537 q 230 541 257 537 q 167 553 203 545 q 101 581 132 562 q 44 626 71 600 q 2 695 18 652 q -14 789 -14 737 q 1 928 -14 868 q 50 1035 16 988 q 141 1107 83 1082 q 281 1133 199 1133 q 414 1107 347 1133 q 528 1044 481 1082 l 528 1111 q 533 1124 528 1118 q 546 1130 538 1130 q 559 1124 553 1130 q 565 1111 565 1118 l 565 76 q 581 32 566 45 q 613 20 596 19 q 643 17 629 21 q 657 0 657 14 m 481 637 q 475 623 481 628 q 463 618 470 618 q 449 623 455 618 q 444 637 444 628 l 444 1003 q 449 1017 444 1012 q 462 1021 454 1021 q 475 1017 469 1021 q 480 1003 480 1012 l 481 637 m 481 111 q 475 98 481 102 q 463 93 470 93 q 449 98 455 93 q 444 111 444 102 l 444 505 q 449 518 444 513 q 462 523 454 523 q 475 518 469 523 q 480 505 480 513 l 481 111 m 528 633 l 528 993 q 423 1064 494 1032 q 281 1095 353 1095 q 197 1087 234 1095 q 127 1057 160 1078 q 72 1002 94 1036 q 37 914 50 968 q 24 789 24 861 q 42 696 24 736 q 89 634 61 656 q 154 597 117 611 q 221 579 191 583 q 283 574 252 574 q 438 585 384 574 q 528 633 493 595 z "},"":{"ha":773,"x_min":-18,"x_max":792,"o":"m 450 -26 q 578 2 500 -9 q 699 16 655 14 q 766 18 743 18 q 792 0 792 18 q 787 -13 792 -7 q 774 -18 781 -18 q 690 -24 739 -19 q 612 -35 642 -30 q 498 -54 583 -39 q 380 -74 414 -68 q 328 -52 350 -74 q 306 0 306 -31 q 311 26 306 12 q 183 -3 260 8 q 53 -16 105 -14 l 0 -18 q -13 -13 -7 -18 q -18 0 -18 -7 q -13 13 -18 7 q 0 18 -7 18 q 140 32 49 18 q 303 60 231 46 q 380 75 376 75 q 433 52 410 75 q 455 0 455 30 q 450 -26 455 -15 z "},"":{"ha":1389,"x_min":334,"x_max":523,"o":"m 369 -127 q 357 -122 361 -127 q 352 -109 352 -116 l 352 0 q 357 13 352 7 q 370 18 363 18 q 383 13 378 18 q 389 0 389 7 l 389 -81 q 422 -76 404 -76 q 494 -105 465 -76 q 523 -170 523 -135 q 520 -193 523 -180 q 509 -222 517 -206 q 490 -250 501 -237 q 459 -270 478 -262 q 416 -279 439 -279 q 359 -263 385 -279 q 334 -234 334 -248 q 345 -217 334 -222 q 365 -220 355 -212 q 416 -241 386 -241 q 459 -226 443 -241 q 481 -196 476 -211 q 486 -170 486 -182 q 467 -131 486 -149 q 422 -113 448 -113 q 390 -120 406 -113 q 369 -127 373 -127 z "},"":{"ha":541,"x_min":-19,"x_max":560,"o":"m 242 684 q 297 677 275 684 q 332 659 319 670 q 352 626 345 648 q 360 583 359 604 q 362 526 362 562 q 357 437 362 470 q 338 384 352 404 q 301 357 323 363 q 240 350 279 350 q 144 382 167 350 q 122 519 122 415 q 127 592 122 563 q 140 640 132 622 q 164 668 148 659 q 197 681 180 678 q 242 684 214 684 m 242 387 q 302 395 290 387 q 323 452 320 405 q 325 551 325 476 q 312 631 325 615 q 242 647 300 647 q 218 647 227 647 q 200 644 210 646 q 185 637 190 642 q 175 625 181 633 q 167 605 169 616 q 163 576 165 594 q 160 535 161 557 q 159 481 159 513 q 162 429 159 446 q 174 402 164 412 q 197 389 184 391 q 240 387 211 387 l 242 387 m 560 0 q 554 -14 560 -9 q 541 -19 548 -19 l 0 -19 q -14 -13 -8 -19 q -19 0 -19 -7 q -14 12 -19 6 q 0 18 -8 18 l 541 18 q 554 13 548 18 q 560 0 560 8 z "},"":{"ha":916,"x_min":-18,"x_max":935,"o":"m 1 -18 q -14 -13 -9 -18 q -18 0 -18 -7 q 1 18 -18 18 q 79 52 49 18 l 313 285 l 56 543 q 50 556 50 548 q 55 569 50 564 q 68 574 60 574 q 81 569 76 574 l 352 298 q 357 285 357 292 q 352 272 357 277 l 106 26 q 1 -18 67 -18 m 250 555 q 256 569 250 564 q 269 574 261 574 q 281 569 276 574 l 670 180 q 718 140 682 170 q 773 94 754 109 q 822 58 793 79 q 875 28 852 37 q 917 18 898 18 q 930 13 924 18 q 935 0 935 7 q 930 -13 935 -7 q 917 -18 924 -18 q 865 -8 892 -18 q 806 24 838 2 q 752 63 774 47 q 694 111 731 79 q 646 153 657 143 q 645 153 646 153 l 644 153 l 547 251 l 283 -13 q 270 -18 277 -18 q 257 -13 262 -18 q 251 1 251 -7 q 256 13 251 7 l 521 277 l 256 543 q 250 555 250 548 z "},"":{"ha":618,"x_min":-19,"x_max":642,"o":"m 227 371 q 245 397 227 397 q 258 392 252 397 q 264 380 263 387 q 271 234 271 266 q 252 132 271 180 q 207 46 233 83 q 154 -23 180 10 q 108 -91 127 -56 q 90 -160 90 -126 q 132 -269 90 -223 q 235 -314 174 -314 q 331 -303 293 -314 q 389 -271 370 -293 q 416 -223 408 -249 q 423 -159 423 -197 q 477 -30 423 -78 q 623 18 530 18 q 636 13 630 18 q 642 0 642 7 q 636 -13 642 -7 q 623 -19 630 -19 q 507 -53 551 -19 q 463 -145 463 -87 q 412 -300 463 -249 q 235 -351 362 -351 q 105 -295 158 -351 q 52 -160 52 -238 q 55 -131 52 -144 q 64 -102 57 -117 q 74 -80 71 -88 q 91 -57 78 -71 q 107 -38 103 -43 q 126 -18 111 -34 q 144 1 142 -1 q 0 -19 100 -19 q -13 -13 -7 -19 q -19 0 -19 -7 q -13 13 -19 7 q 0 18 -7 18 q 140 40 100 18 q 222 144 180 62 q 234 234 234 186 q 231 320 234 275 q 227 371 227 365 m 190 608 q 201 619 190 608 q 243 630 212 630 q 295 608 273 630 q 317 555 317 586 q 295 503 317 525 q 243 481 273 481 q 190 503 212 481 q 168 555 168 525 q 190 608 168 586 z "},"":{"ha":1111,"x_min":-18,"x_max":1130,"o":"m 701 1233 q 695 1220 701 1224 q 685 1215 690 1215 q 669 1214 680 1214 q 559 1232 610 1214 q 476 1279 508 1251 q 427 1340 445 1308 q 410 1404 410 1373 q 415 1417 410 1411 q 428 1422 420 1422 q 440 1418 435 1422 q 446 1406 445 1413 q 467 1344 450 1372 q 508 1300 484 1317 q 561 1272 531 1283 q 617 1256 590 1260 q 669 1251 644 1251 q 697 1246 692 1251 q 701 1233 701 1242 m 377 574 l 746 574 l 558 1061 l 377 574 m 541 1120 q 558 1131 545 1130 q 576 1120 570 1131 q 734 712 637 963 q 938 203 890 307 q 1042 40 996 75 q 1111 18 1070 18 q 1124 13 1118 18 q 1130 0 1130 7 q 1124 -13 1130 -7 q 1111 -18 1118 -18 q 1067 -14 1086 -18 q 1027 6 1048 -9 q 990 38 1007 20 q 953 91 974 56 q 915 163 932 126 q 870 261 897 199 q 820 383 844 322 q 760 537 796 444 l 363 537 q 307 388 329 445 q 260 269 286 332 q 217 170 235 205 q 178 98 200 135 q 138 42 156 60 q 98 8 121 24 q 52 -13 75 -7 q 0 -18 28 -18 q -13 -13 -7 -18 q -18 0 -18 -7 q -13 13 -18 7 q 0 18 -7 18 q 106 60 64 18 q 218 262 154 109 q 391 722 249 339 q 541 1120 471 938 z "},"":{"ha":1111,"x_min":-18,"x_max":1130,"o":"m 709 1387 q 722 1382 716 1387 q 727 1369 727 1377 q 722 1356 727 1360 q 586 1253 662 1291 q 403 1214 511 1214 q 390 1219 395 1214 q 385 1232 385 1225 q 390 1245 385 1240 q 403 1251 395 1251 q 513 1264 462 1251 q 595 1299 564 1278 q 650 1339 627 1319 q 688 1373 673 1359 q 709 1387 703 1387 m 377 574 l 746 574 l 558 1061 l 377 574 m 541 1120 q 558 1131 545 1130 q 576 1120 570 1131 q 734 712 637 963 q 938 203 890 307 q 1042 40 996 75 q 1111 18 1070 18 q 1124 13 1118 18 q 1130 0 1130 7 q 1124 -13 1130 -7 q 1111 -18 1118 -18 q 1067 -14 1086 -18 q 1027 6 1048 -9 q 990 38 1007 20 q 953 91 974 56 q 915 163 932 126 q 870 261 897 199 q 820 383 844 322 q 760 537 796 444 l 363 537 q 307 388 329 445 q 260 269 286 332 q 217 170 235 205 q 178 98 200 135 q 138 42 156 60 q 98 8 121 24 q 52 -13 75 -7 q 0 -18 28 -18 q -13 -13 -7 -18 q -18 0 -18 -7 q -13 13 -18 7 q 0 18 -7 18 q 106 60 64 18 q 218 262 154 109 q 391 722 249 339 q 541 1120 471 938 z "},"":{"ha":1111,"x_min":-18,"x_max":1130,"o":"m 740 1214 q 700 1224 718 1214 q 667 1248 681 1234 q 637 1276 652 1262 q 598 1300 621 1291 q 545 1310 574 1310 q 504 1300 523 1310 q 470 1276 484 1291 q 442 1248 456 1262 q 411 1224 429 1234 q 372 1214 393 1214 q 359 1219 364 1214 q 353 1232 353 1224 q 370 1251 353 1248 q 405 1263 389 1253 q 433 1288 420 1274 q 460 1316 446 1302 q 496 1338 474 1329 q 545 1348 517 1348 q 604 1338 578 1348 q 646 1316 629 1329 q 676 1288 662 1302 q 706 1263 690 1274 q 742 1251 723 1253 q 754 1245 749 1250 q 759 1232 759 1240 q 753 1219 759 1224 q 740 1214 748 1214 m 377 574 l 746 574 l 558 1061 l 377 574 m 541 1120 q 558 1131 545 1130 q 576 1120 570 1131 q 734 712 637 963 q 938 203 890 307 q 1042 40 996 75 q 1111 18 1070 18 q 1124 13 1118 18 q 1130 0 1130 7 q 1124 -13 1130 -7 q 1111 -18 1118 -18 q 1067 -14 1086 -18 q 1027 6 1048 -9 q 990 38 1007 20 q 953 91 974 56 q 915 163 932 126 q 870 261 897 199 q 820 383 844 322 q 760 537 796 444 l 363 537 q 307 388 329 445 q 260 269 286 332 q 217 170 235 205 q 178 98 200 135 q 138 42 156 60 q 98 8 121 24 q 52 -13 75 -7 q 0 -18 28 -18 q -13 -13 -7 -18 q -18 0 -18 -7 q -13 13 -18 7 q 0 18 -7 18 q 106 60 64 18 q 218 262 154 109 q 391 722 249 339 q 541 1120 471 938 z "},"":{"ha":1111,"x_min":-18,"x_max":1130,"o":"m 377 574 l 746 574 l 558 1061 l 377 574 m 541 1120 q 558 1131 545 1130 q 576 1120 570 1131 q 734 712 637 963 q 938 203 890 307 q 1042 40 996 75 q 1111 18 1070 18 q 1124 13 1118 18 q 1130 0 1130 7 q 1124 -13 1130 -7 q 1111 -18 1118 -18 q 1067 -14 1086 -18 q 1027 6 1048 -9 q 990 38 1007 20 q 953 91 974 56 q 915 163 932 126 q 870 261 897 199 q 820 383 844 322 q 760 537 796 444 l 363 537 q 307 388 329 445 q 260 269 286 332 q 217 170 235 205 q 178 98 200 135 q 138 42 156 60 q 98 8 121 24 q 52 -13 75 -7 q 0 -18 28 -18 q -13 -13 -7 -18 q -18 0 -18 -7 q -13 13 -18 7 q 0 18 -7 18 q 106 60 64 18 q 218 262 154 109 q 391 722 249 339 q 541 1120 471 938 z "},"":{"ha":1111,"x_min":-18,"x_max":1130,"o":"m 648 1325 q 689 1308 675 1324 q 704 1271 704 1291 q 686 1229 704 1244 q 649 1214 669 1214 l 648 1214 q 607 1232 622 1215 q 593 1269 593 1249 q 610 1310 593 1295 q 647 1325 627 1325 l 648 1325 m 667 1270 q 661 1282 667 1277 q 647 1288 656 1288 q 635 1282 640 1288 q 630 1269 630 1276 q 636 1257 630 1261 q 650 1252 642 1252 q 667 1270 667 1252 m 463 1325 q 504 1308 490 1324 q 518 1271 518 1291 q 501 1229 518 1244 q 464 1214 484 1214 l 463 1214 q 422 1232 437 1215 q 408 1269 408 1249 q 425 1310 408 1295 q 462 1325 442 1325 l 463 1325 m 477 1257 q 479 1259 477 1257 q 481 1270 481 1262 q 476 1283 481 1278 q 462 1289 470 1289 q 449 1283 454 1289 q 444 1269 444 1277 q 450 1256 444 1261 q 464 1251 456 1251 q 477 1257 472 1251 m 377 574 l 746 574 l 558 1061 l 377 574 m 541 1120 q 558 1131 545 1130 q 576 1120 570 1131 q 734 712 637 963 q 938 203 890 307 q 1042 40 996 75 q 1111 18 1070 18 q 1124 13 1118 18 q 1130 0 1130 7 q 1124 -13 1130 -7 q 1111 -18 1118 -18 q 1067 -14 1086 -18 q 1027 6 1048 -9 q 990 38 1007 20 q 953 91 974 56 q 915 163 932 126 q 870 261 897 199 q 820 383 844 322 q 760 537 796 444 l 363 537 q 307 388 329 445 q 260 269 286 332 q 217 170 235 205 q 178 98 200 135 q 138 42 156 60 q 98 8 121 24 q 52 -13 75 -7 q 0 -18 28 -18 q -13 -13 -7 -18 q -18 0 -18 -7 q -13 13 -18 7 q 0 18 -7 18 q 106 60 64 18 q 218 262 154 109 q 391 722 249 339 q 541 1120 471 938 z "},"":{"ha":1111,"x_min":-18,"x_max":1130,"o":"m 555 1237 l 555 1237 q 531 1227 542 1237 q 519 1199 519 1217 q 528 1175 519 1186 q 555 1163 537 1164 l 557 1163 q 581 1173 569 1163 q 592 1201 592 1183 q 583 1225 592 1214 q 555 1237 574 1236 m 629 1201 q 607 1147 629 1168 q 557 1126 585 1126 l 555 1126 q 502 1149 521 1126 q 482 1199 482 1172 q 505 1254 482 1234 q 555 1274 528 1274 l 555 1274 q 610 1251 590 1274 q 629 1201 629 1227 m 377 574 l 746 574 l 558 1061 l 377 574 m 541 1120 q 558 1131 545 1130 q 576 1120 570 1131 q 734 712 637 963 q 938 203 890 307 q 1042 40 996 75 q 1111 18 1070 18 q 1124 13 1118 18 q 1130 0 1130 7 q 1124 -13 1130 -7 q 1111 -18 1118 -18 q 1067 -14 1086 -18 q 1027 6 1048 -9 q 990 38 1007 20 q 953 91 974 56 q 915 163 932 126 q 870 261 897 199 q 820 383 844 322 q 760 537 796 444 l 363 537 q 307 388 329 445 q 260 269 286 332 q 217 170 235 205 q 178 98 200 135 q 138 42 156 60 q 98 8 121 24 q 52 -13 75 -7 q 0 -18 28 -18 q -13 -13 -7 -18 q -18 0 -18 -7 q -13 13 -18 7 q 0 18 -7 18 q 106 60 64 18 q 218 262 154 109 q 391 722 249 339 q 541 1120 471 938 z "},"":{"ha":1333,"x_min":-18,"x_max":1352,"o":"m 541 1120 q 558 1131 545 1130 q 566 1130 562 1131 l 1332 1130 q 1345 1124 1339 1130 q 1351 1111 1351 1118 q 1345 1098 1351 1103 q 1332 1093 1339 1093 l 739 1093 l 739 574 l 1281 574 q 1294 569 1289 574 q 1299 555 1299 563 q 1294 543 1299 548 q 1281 537 1289 537 l 739 537 l 739 81 q 811 18 739 20 l 1333 18 q 1346 13 1340 18 q 1352 0 1352 7 q 1346 -13 1352 -7 q 1333 -18 1340 -18 l 811 -18 q 730 10 758 -18 q 702 81 702 38 l 702 537 l 363 537 q 307 388 329 445 q 260 269 286 332 q 217 170 235 205 q 178 98 200 135 q 138 42 156 60 q 98 8 121 24 q 52 -13 75 -7 q 0 -18 28 -18 q -13 -13 -7 -18 q -18 0 -18 -7 q -13 13 -18 7 q 0 18 -7 18 q 106 60 64 18 q 218 262 154 109 q 391 722 249 339 q 541 1120 471 938 m 377 574 l 702 574 l 702 1093 l 568 1093 l 558 1061 l 377 574 z "},"":{"ha":1111,"x_min":-18,"x_max":1130,"o":"m 1111 -18 q 1044 -9 1074 -18 q 997 13 1015 0 q 960 39 978 26 q 919 61 943 52 q 867 71 895 71 q 794 58 832 71 q 728 29 757 45 q 657 -1 699 14 q 572 -18 614 -16 q 574 -26 574 -22 l 574 -107 q 608 -102 589 -102 q 679 -132 650 -102 q 709 -196 709 -161 q 706 -220 709 -207 q 695 -248 703 -233 q 675 -276 687 -264 q 645 -297 664 -288 q 602 -305 625 -305 q 545 -290 571 -305 q 519 -260 519 -274 q 530 -243 519 -248 q 551 -247 541 -239 q 602 -268 572 -268 q 645 -253 629 -268 q 667 -223 662 -237 q 671 -196 671 -208 q 652 -157 671 -176 q 608 -139 633 -139 q 575 -146 591 -139 q 555 -154 559 -154 q 542 -148 547 -154 q 537 -135 537 -142 l 537 -26 q 540 -18 537 -24 q 176 106 285 -14 q 115 17 165 53 q 0 -18 66 -18 q -13 -13 -7 -18 q -18 0 -18 -7 q -13 13 -18 7 q 0 18 -7 18 q 101 53 61 18 q 142 130 142 87 q 135 163 142 149 q 118 198 127 178 q 98 254 108 219 q 81 368 88 290 q 74 558 74 446 q 90 819 74 734 q 245 1065 123 991 q 541 1130 353 1130 l 542 1130 q 809 1081 711 1130 q 958 932 908 1033 q 960 924 960 928 q 954 910 960 916 q 941 905 948 905 q 927 915 934 905 q 909 942 920 926 q 884 978 899 958 q 842 1019 869 998 q 777 1055 814 1039 q 679 1082 739 1072 q 544 1093 618 1093 l 542 1093 q 187 961 283 1092 q 115 709 125 876 q 111 558 111 657 q 124 312 111 388 q 248 92 150 161 q 555 18 353 18 q 641 32 598 18 q 712 63 683 46 q 784 93 742 79 q 867 107 825 107 q 927 98 901 107 q 972 76 954 89 q 1008 50 990 62 q 1052 27 1026 37 q 1111 18 1078 18 q 1124 13 1118 18 q 1130 0 1130 7 q 1124 -13 1130 -7 q 1111 -18 1118 -18 z "},"":{"ha":739,"x_min":-18,"x_max":758,"o":"m 515 1232 q 510 1218 515 1223 q 499 1213 504 1214 q 484 1213 494 1213 q 373 1231 424 1213 q 291 1278 322 1249 q 241 1339 259 1306 q 224 1402 224 1371 q 229 1415 224 1410 q 242 1421 234 1421 q 254 1416 249 1421 q 260 1404 259 1412 q 281 1343 264 1371 q 322 1299 298 1316 q 375 1270 345 1282 q 431 1254 404 1259 q 484 1250 458 1250 q 511 1244 507 1250 q 515 1232 515 1240 m -18 0 q -4 18 -18 14 q 28 20 11 21 q 59 34 45 19 q 74 83 74 49 l 74 1111 q 80 1124 74 1118 q 93 1130 85 1130 l 738 1130 q 751 1124 745 1130 q 757 1111 757 1118 q 751 1098 757 1103 q 738 1093 745 1093 l 111 1093 l 111 574 l 687 574 q 700 569 694 574 q 705 555 705 563 q 700 543 705 548 q 687 537 694 537 l 111 537 l 111 81 q 183 18 111 20 l 739 18 q 752 13 746 18 q 758 0 758 7 q 752 -13 758 -7 q 739 -18 746 -18 l 183 -18 q 95 17 123 -18 q 0 -18 71 -18 q -9 -14 -5 -18 q -16 -5 -14 -9 l -18 0 z "},"":{"ha":739,"x_min":-18,"x_max":758,"o":"m 522 1385 q 535 1380 530 1385 q 541 1367 541 1375 q 536 1354 541 1359 q 400 1251 475 1290 q 216 1213 324 1213 q 203 1218 209 1213 q 198 1231 198 1223 q 203 1244 198 1238 q 216 1249 209 1249 q 326 1263 275 1249 q 409 1297 377 1277 q 464 1338 440 1318 q 502 1372 487 1358 q 522 1385 516 1385 m -18 0 q -4 18 -18 14 q 28 20 11 21 q 59 34 45 19 q 74 83 74 49 l 74 1111 q 80 1124 74 1118 q 93 1130 85 1130 l 738 1130 q 751 1124 745 1130 q 757 1111 757 1118 q 751 1098 757 1103 q 738 1093 745 1093 l 111 1093 l 111 574 l 687 574 q 700 569 694 574 q 705 555 705 563 q 700 543 705 548 q 687 537 694 537 l 111 537 l 111 81 q 183 18 111 20 l 739 18 q 752 13 746 18 q 758 0 758 7 q 752 -13 758 -7 q 739 -18 746 -18 l 183 -18 q 95 17 123 -18 q 0 -18 71 -18 q -9 -14 -5 -18 q -16 -5 -14 -9 l -18 0 z "},"":{"ha":739,"x_min":-18,"x_max":758,"o":"m 553 1213 q 513 1222 532 1213 q 480 1246 494 1232 q 450 1275 466 1261 q 411 1299 435 1289 q 359 1309 388 1309 q 317 1299 336 1309 q 283 1275 298 1289 q 256 1246 269 1261 q 224 1222 242 1232 q 186 1213 206 1213 q 172 1218 178 1213 q 167 1231 167 1223 q 184 1249 167 1246 q 218 1262 202 1251 q 247 1287 234 1273 q 273 1314 259 1301 q 309 1337 288 1328 q 358 1346 331 1346 q 417 1337 391 1346 q 459 1314 443 1328 q 489 1287 475 1301 q 520 1262 503 1273 q 555 1249 536 1251 q 567 1243 562 1249 q 572 1231 572 1238 q 567 1218 572 1223 q 553 1213 562 1213 m -18 0 q -4 18 -18 14 q 28 20 11 21 q 59 34 45 19 q 74 83 74 49 l 74 1111 q 80 1124 74 1118 q 93 1130 85 1130 l 738 1130 q 751 1124 745 1130 q 757 1111 757 1118 q 751 1098 757 1103 q 738 1093 745 1093 l 111 1093 l 111 574 l 687 574 q 700 569 694 574 q 705 555 705 563 q 700 543 705 548 q 687 537 694 537 l 111 537 l 111 81 q 183 18 111 20 l 739 18 q 752 13 746 18 q 758 0 758 7 q 752 -13 758 -7 q 739 -18 746 -18 l 183 -18 q 95 17 123 -18 q 0 -18 71 -18 q -9 -14 -5 -18 q -16 -5 -14 -9 l -18 0 z "},"":{"ha":739,"x_min":-18,"x_max":758,"o":"m 463 1324 q 504 1306 489 1323 q 518 1270 518 1289 q 500 1228 518 1243 q 463 1213 483 1213 l 463 1213 q 421 1231 436 1213 q 407 1267 407 1248 q 424 1309 407 1294 q 461 1324 441 1324 l 463 1324 m 481 1269 q 475 1281 481 1276 q 461 1286 470 1286 q 449 1281 454 1286 q 444 1267 444 1275 q 450 1255 444 1260 q 464 1251 456 1251 q 481 1269 481 1251 m 277 1324 q 318 1306 304 1323 q 332 1270 332 1289 q 315 1228 332 1243 q 278 1213 298 1213 l 277 1213 q 236 1231 251 1213 q 222 1267 222 1248 q 239 1309 222 1294 q 276 1324 256 1324 l 277 1324 m 291 1255 q 293 1258 291 1255 q 296 1269 296 1261 q 290 1282 296 1277 q 276 1287 284 1287 q 263 1281 268 1287 q 258 1267 258 1276 q 264 1255 258 1259 q 278 1250 270 1250 q 291 1255 286 1250 m -18 0 q -4 18 -18 14 q 28 20 11 21 q 59 34 45 19 q 74 83 74 49 l 74 1111 q 80 1124 74 1118 q 93 1130 85 1130 l 738 1130 q 751 1124 745 1130 q 757 1111 757 1118 q 751 1098 757 1103 q 738 1093 745 1093 l 111 1093 l 111 574 l 687 574 q 700 569 694 574 q 705 555 705 563 q 700 543 705 548 q 687 537 694 537 l 111 537 l 111 81 q 183 18 111 20 l 739 18 q 752 13 746 18 q 758 0 758 7 q 752 -13 758 -7 q 739 -18 746 -18 l 183 -18 q 95 17 123 -18 q 0 -18 71 -18 q -9 -14 -5 -18 q -16 -5 -14 -9 l -18 0 z "},"":{"ha":268,"x_min":-18,"x_max":287,"o":"m 280 1232 q 274 1218 280 1223 q 263 1213 269 1214 q 248 1213 258 1213 q 138 1231 189 1213 q 55 1278 87 1249 q 6 1339 24 1306 q -12 1402 -12 1371 q -6 1415 -12 1410 q 7 1421 -1 1421 q 19 1416 14 1421 q 25 1404 24 1412 q 46 1343 29 1371 q 86 1299 63 1316 q 139 1270 110 1282 q 196 1254 169 1259 q 248 1250 222 1250 q 276 1244 271 1250 q 280 1232 280 1240 m 269 18 q 281 13 276 18 q 287 0 287 7 q 281 -13 287 -7 q 269 -18 276 -18 q 138 29 176 -18 q 0 -18 99 -18 q -13 -13 -7 -18 q -18 0 -18 -7 q -13 13 -18 7 q 0 18 -7 18 q 85 34 51 18 q 120 83 120 50 l 120 1093 l 43 1093 q 30 1098 35 1093 q 24 1111 24 1103 q 30 1124 24 1118 q 43 1130 35 1130 l 228 1130 q 241 1124 235 1130 q 246 1111 246 1118 q 241 1098 246 1103 q 228 1093 235 1093 l 157 1093 l 157 85 q 176 44 157 60 q 217 23 194 28 q 269 18 240 18 z "},"":{"ha":268,"x_min":-37,"x_max":306,"o":"m 288 1385 q 300 1380 295 1385 q 306 1367 306 1375 q 301 1354 306 1359 q 165 1251 241 1290 q -18 1213 90 1213 q -31 1218 -26 1213 q -37 1231 -37 1223 q -31 1244 -37 1238 q -18 1249 -26 1249 q 92 1263 41 1249 q 174 1297 142 1277 q 229 1338 205 1318 q 267 1372 252 1358 q 288 1385 281 1385 m 269 18 q 281 13 276 18 q 287 0 287 7 q 281 -13 287 -7 q 269 -18 276 -18 q 138 29 176 -18 q 0 -18 99 -18 q -13 -13 -7 -18 q -18 0 -18 -7 q -13 13 -18 7 q 0 18 -7 18 q 85 34 51 18 q 120 83 120 50 l 120 1093 l 43 1093 q 30 1098 35 1093 q 24 1111 24 1103 q 30 1124 24 1118 q 43 1130 35 1130 l 228 1130 q 241 1124 235 1130 q 246 1111 246 1118 q 241 1098 246 1103 q 228 1093 235 1093 l 157 1093 l 157 85 q 176 44 157 60 q 217 23 194 28 q 269 18 240 18 z "},"":{"ha":268,"x_min":-68,"x_max":337,"o":"m 318 1213 q 278 1222 296 1213 q 245 1246 259 1232 q 215 1275 231 1261 q 176 1299 199 1289 q 123 1309 153 1309 q 82 1299 101 1309 q 48 1275 62 1289 q 20 1246 34 1261 q -11 1222 7 1232 q -50 1213 -29 1213 q -63 1218 -58 1213 q -68 1231 -68 1223 q -52 1249 -68 1246 q -17 1262 -33 1251 q 11 1287 -1 1273 q 38 1314 24 1301 q 74 1337 52 1328 q 123 1346 96 1346 q 182 1337 156 1346 q 224 1314 208 1328 q 254 1287 240 1301 q 284 1262 268 1273 q 320 1249 301 1251 q 332 1243 327 1249 q 337 1231 337 1238 q 332 1218 337 1223 q 318 1213 326 1213 m 269 18 q 281 13 276 18 q 287 0 287 7 q 281 -13 287 -7 q 269 -18 276 -18 q 138 29 176 -18 q 0 -18 99 -18 q -13 -13 -7 -18 q -18 0 -18 -7 q -13 13 -18 7 q 0 18 -7 18 q 85 34 51 18 q 120 83 120 50 l 120 1093 l 43 1093 q 30 1098 35 1093 q 24 1111 24 1103 q 30 1124 24 1118 q 43 1130 35 1130 l 228 1130 q 241 1124 235 1130 q 246 1111 246 1118 q 241 1098 246 1103 q 228 1093 235 1093 l 157 1093 l 157 85 q 176 44 157 60 q 217 23 194 28 q 269 18 240 18 z "},"":{"ha":268,"x_min":-18,"x_max":287,"o":"m 227 1324 q 268 1306 253 1323 q 282 1270 282 1289 q 264 1228 282 1243 q 227 1213 247 1213 l 227 1213 q 185 1231 200 1213 q 171 1267 171 1248 q 188 1309 171 1294 q 225 1324 205 1324 l 227 1324 m 245 1269 q 239 1281 245 1276 q 225 1286 234 1286 q 213 1281 218 1286 q 208 1267 208 1275 q 214 1255 208 1260 q 228 1251 220 1251 q 245 1269 245 1251 m 41 1324 q 82 1306 68 1323 q 96 1270 96 1289 q 79 1228 96 1243 q 42 1213 62 1213 l 41 1213 q 0 1231 15 1213 q -14 1267 -14 1248 q 3 1309 -14 1294 q 40 1324 20 1324 l 41 1324 m 55 1255 q 57 1258 55 1255 q 60 1269 60 1261 q 54 1282 60 1277 q 40 1287 48 1287 q 27 1281 32 1287 q 22 1267 22 1276 q 28 1255 22 1259 q 42 1250 34 1250 q 55 1255 50 1250 m 269 18 q 281 13 276 18 q 287 0 287 7 q 281 -13 287 -7 q 269 -18 276 -18 q 138 29 176 -18 q 0 -18 99 -18 q -13 -13 -7 -18 q -18 0 -18 -7 q -13 13 -18 7 q 0 18 -7 18 q 85 34 51 18 q 120 83 120 50 l 120 1093 l 43 1093 q 30 1098 35 1093 q 24 1111 24 1103 q 30 1124 24 1118 q 43 1130 35 1130 l 228 1130 q 241 1124 235 1130 q 246 1111 246 1118 q 241 1098 246 1103 q 228 1093 235 1093 l 157 1093 l 157 85 q 176 44 157 60 q 217 23 194 28 q 269 18 240 18 z "},"":{"ha":1037,"x_min":-18,"x_max":1055,"o":"m 111 663 l 111 153 q 481 18 209 18 q 848 148 748 18 q 922 393 911 231 q 926 557 926 446 q 913 799 926 724 q 791 1019 888 949 q 481 1093 687 1093 q 111 959 210 1093 l 111 701 l 389 701 q 402 694 397 701 q 407 682 407 688 q 402 669 407 675 q 389 663 397 663 l 111 663 m 963 557 q 956 367 963 446 q 939 254 949 289 q 919 198 929 219 q 902 163 909 178 q 895 130 895 149 q 936 53 895 87 q 1037 18 976 18 q 1050 13 1044 18 q 1055 0 1055 7 q 1050 -13 1055 -7 q 1037 -18 1044 -18 q 922 17 971 -18 q 861 106 872 53 q 481 -18 748 -18 q 111 96 224 -18 l 111 83 q 84 4 111 27 q 0 -18 56 -18 q -13 -13 -7 -18 q -18 0 -18 -7 q -4 18 -18 14 q 28 20 11 21 q 59 34 45 19 q 74 83 74 49 l 74 663 l 12 663 q -1 668 5 663 q -7 682 -7 673 q -1 695 -7 690 q 12 701 5 701 l 74 701 l 74 1111 q 80 1124 74 1118 q 93 1130 85 1130 q 106 1124 100 1130 q 111 1111 111 1118 l 111 1017 q 481 1130 226 1130 q 886 975 779 1130 q 960 706 950 882 q 963 557 963 656 z "},"":{"ha":851,"x_min":-18,"x_max":870,"o":"m 92 1130 l 93 1130 q 110 1118 105 1130 l 741 146 l 741 1111 q 746 1124 741 1118 q 760 1130 752 1130 q 772 1124 767 1130 q 778 1111 778 1118 l 778 83 q 785 45 778 60 q 802 26 791 31 q 824 20 812 22 q 846 19 836 18 q 863 15 857 19 q 870 0 870 10 q 865 -13 870 -7 q 852 -18 859 -18 q 769 3 797 -18 q 741 79 742 25 l 111 1048 l 111 83 q 84 4 111 27 q 0 -18 56 -18 q -13 -13 -7 -18 q -18 0 -18 -7 q -4 18 -18 14 q 28 20 11 21 q 59 34 45 19 q 74 83 74 49 l 74 1111 q 79 1124 74 1119 q 92 1130 85 1130 z "},"":{"ha":1111,"x_min":-18,"x_max":1130,"o":"m 701 1232 q 695 1218 701 1223 q 685 1213 690 1214 q 669 1213 680 1213 q 559 1231 610 1213 q 476 1278 508 1249 q 427 1339 445 1306 q 410 1402 410 1371 q 415 1415 410 1410 q 428 1421 420 1421 q 440 1416 435 1421 q 446 1404 445 1412 q 467 1343 450 1371 q 508 1299 484 1316 q 561 1270 531 1282 q 617 1254 590 1259 q 669 1250 644 1250 q 697 1244 692 1250 q 701 1232 701 1240 m 1037 557 q 1030 367 1037 445 q 1014 254 1023 289 q 994 199 1004 219 q 977 164 983 178 q 970 130 970 149 q 1010 53 970 87 q 1111 18 1050 18 q 1124 13 1118 18 q 1130 0 1130 7 q 1124 -13 1130 -7 q 1111 -18 1118 -18 q 996 17 1045 -18 q 935 105 946 52 q 555 -18 823 -18 q 176 106 290 -18 q 116 17 165 53 q 0 -18 66 -18 q -13 -13 -7 -18 q -18 0 -18 -7 q -13 13 -18 7 q 0 18 -7 18 q 101 53 61 18 q 142 130 142 87 q 135 164 142 149 q 118 199 127 178 q 98 255 108 220 q 81 368 88 290 q 74 558 74 446 q 87 805 74 727 q 226 1050 115 973 q 555 1130 340 1130 q 960 975 852 1130 q 1034 706 1024 882 q 1037 557 1037 656 m 555 18 q 922 148 822 18 q 997 394 985 231 q 1000 557 1000 447 q 987 800 1000 725 q 864 1019 962 950 q 555 1093 760 1093 q 189 964 289 1093 q 115 722 126 883 q 111 558 111 669 q 125 310 111 387 q 250 91 151 159 q 555 18 353 18 z "},"":{"ha":1111,"x_min":-18,"x_max":1130,"o":"m 709 1385 q 722 1380 716 1385 q 727 1367 727 1375 q 722 1354 727 1359 q 586 1251 662 1290 q 403 1213 511 1213 q 390 1218 395 1213 q 385 1231 385 1223 q 390 1244 385 1238 q 403 1249 395 1249 q 513 1263 462 1249 q 595 1297 564 1277 q 650 1338 627 1318 q 688 1372 673 1358 q 709 1385 703 1385 m 1037 557 q 1030 367 1037 445 q 1014 254 1023 289 q 994 199 1004 219 q 977 164 983 178 q 970 130 970 149 q 1010 53 970 87 q 1111 18 1050 18 q 1124 13 1118 18 q 1130 0 1130 7 q 1124 -13 1130 -7 q 1111 -18 1118 -18 q 996 17 1045 -18 q 935 105 946 52 q 555 -18 823 -18 q 176 106 290 -18 q 116 17 165 53 q 0 -18 66 -18 q -13 -13 -7 -18 q -18 0 -18 -7 q -13 13 -18 7 q 0 18 -7 18 q 101 53 61 18 q 142 130 142 87 q 135 164 142 149 q 118 199 127 178 q 98 255 108 220 q 81 368 88 290 q 74 558 74 446 q 87 805 74 727 q 226 1050 115 973 q 555 1130 340 1130 q 960 975 852 1130 q 1034 706 1024 882 q 1037 557 1037 656 m 555 18 q 922 148 822 18 q 997 394 985 231 q 1000 557 1000 447 q 987 800 1000 725 q 864 1019 962 950 q 555 1093 760 1093 q 189 964 289 1093 q 115 722 126 883 q 111 558 111 669 q 125 310 111 387 q 250 91 151 159 q 555 18 353 18 z "},"":{"ha":1111,"x_min":-18,"x_max":1130,"o":"m 740 1213 q 700 1222 718 1213 q 667 1246 681 1232 q 637 1275 652 1261 q 598 1299 621 1289 q 545 1309 574 1309 q 504 1299 523 1309 q 470 1275 484 1289 q 442 1246 456 1261 q 411 1222 429 1232 q 372 1213 393 1213 q 359 1218 364 1213 q 353 1231 353 1223 q 370 1249 353 1246 q 405 1262 389 1251 q 433 1287 420 1273 q 460 1314 446 1301 q 496 1337 474 1328 q 545 1346 517 1346 q 604 1337 578 1346 q 646 1314 629 1328 q 676 1287 662 1301 q 706 1262 690 1273 q 742 1249 723 1251 q 754 1243 749 1249 q 759 1231 759 1238 q 753 1218 759 1223 q 740 1213 748 1213 m 1037 557 q 1030 367 1037 445 q 1014 254 1023 289 q 994 199 1004 219 q 977 164 983 178 q 970 130 970 149 q 1010 53 970 87 q 1111 18 1050 18 q 1124 13 1118 18 q 1130 0 1130 7 q 1124 -13 1130 -7 q 1111 -18 1118 -18 q 996 17 1045 -18 q 935 105 946 52 q 555 -18 823 -18 q 176 106 290 -18 q 116 17 165 53 q 0 -18 66 -18 q -13 -13 -7 -18 q -18 0 -18 -7 q -13 13 -18 7 q 0 18 -7 18 q 101 53 61 18 q 142 130 142 87 q 135 164 142 149 q 118 199 127 178 q 98 255 108 220 q 81 368 88 290 q 74 558 74 446 q 87 805 74 727 q 226 1050 115 973 q 555 1130 340 1130 q 960 975 852 1130 q 1034 706 1024 882 q 1037 557 1037 656 m 555 18 q 922 148 822 18 q 997 394 985 231 q 1000 557 1000 447 q 987 800 1000 725 q 864 1019 962 950 q 555 1093 760 1093 q 189 964 289 1093 q 115 722 126 883 q 111 558 111 669 q 125 310 111 387 q 250 91 151 159 q 555 18 353 18 z "},"":{"ha":1111,"x_min":-18,"x_max":1130,"o":"m 1037 557 q 1030 367 1037 445 q 1014 254 1023 289 q 994 199 1004 219 q 977 164 983 178 q 970 130 970 149 q 1010 53 970 87 q 1111 18 1050 18 q 1124 13 1118 18 q 1130 0 1130 7 q 1124 -13 1130 -7 q 1111 -18 1118 -18 q 996 17 1045 -18 q 935 105 946 52 q 555 -18 823 -18 q 176 106 290 -18 q 116 17 165 53 q 0 -18 66 -18 q -13 -13 -7 -18 q -18 0 -18 -7 q -13 13 -18 7 q 0 18 -7 18 q 101 53 61 18 q 142 130 142 87 q 135 164 142 149 q 118 199 127 178 q 98 255 108 220 q 81 368 88 290 q 74 558 74 446 q 87 805 74 727 q 226 1050 115 973 q 555 1130 340 1130 q 960 975 852 1130 q 1034 706 1024 882 q 1037 557 1037 656 m 555 18 q 922 148 822 18 q 997 394 985 231 q 1000 557 1000 447 q 987 800 1000 725 q 864 1019 962 950 q 555 1093 760 1093 q 189 964 289 1093 q 115 722 126 883 q 111 558 111 669 q 125 310 111 387 q 250 91 151 159 q 555 18 353 18 z "},"":{"ha":1111,"x_min":-18,"x_max":1130,"o":"m 648 1324 q 689 1306 675 1323 q 704 1270 704 1289 q 686 1228 704 1243 q 649 1213 669 1213 l 648 1213 q 607 1231 622 1213 q 593 1267 593 1248 q 610 1309 593 1294 q 647 1324 627 1324 l 648 1324 m 667 1269 q 661 1281 667 1276 q 647 1286 656 1286 q 635 1281 640 1286 q 630 1267 630 1275 q 636 1255 630 1260 q 650 1251 642 1251 q 667 1269 667 1251 m 463 1324 q 504 1306 490 1323 q 518 1270 518 1289 q 501 1228 518 1243 q 464 1213 484 1213 l 463 1213 q 422 1231 437 1213 q 408 1267 408 1248 q 425 1309 408 1294 q 462 1324 442 1324 l 463 1324 m 477 1255 q 479 1258 477 1255 q 481 1269 481 1261 q 476 1282 481 1277 q 462 1287 470 1287 q 449 1281 454 1287 q 444 1267 444 1276 q 450 1255 444 1259 q 464 1250 456 1250 q 477 1255 472 1250 m 1037 557 q 1030 367 1037 445 q 1014 254 1023 289 q 994 199 1004 219 q 977 164 983 178 q 970 130 970 149 q 1010 53 970 87 q 1111 18 1050 18 q 1124 13 1118 18 q 1130 0 1130 7 q 1124 -13 1130 -7 q 1111 -18 1118 -18 q 996 17 1045 -18 q 935 105 946 52 q 555 -18 823 -18 q 176 106 290 -18 q 116 17 165 53 q 0 -18 66 -18 q -13 -13 -7 -18 q -18 0 -18 -7 q -13 13 -18 7 q 0 18 -7 18 q 101 53 61 18 q 142 130 142 87 q 135 164 142 149 q 118 199 127 178 q 98 255 108 220 q 81 368 88 290 q 74 558 74 446 q 87 805 74 727 q 226 1050 115 973 q 555 1130 340 1130 q 960 975 852 1130 q 1034 706 1024 882 q 1037 557 1037 656 m 555 18 q 922 148 822 18 q 997 394 985 231 q 1000 557 1000 447 q 987 800 1000 725 q 864 1019 962 950 q 555 1093 760 1093 q 189 964 289 1093 q 115 722 126 883 q 111 558 111 669 q 125 310 111 387 q 250 91 151 159 q 555 18 353 18 z "},"":{"ha":755,"x_min":-18,"x_max":774,"o":"m 663 18 q 707 19 667 18 q 756 19 747 19 q 769 13 764 19 q 774 0 774 7 q 769 -13 774 -7 q 756 -19 764 -19 l 663 -19 q 631 -17 644 -19 q 600 -4 618 -15 q 566 21 581 7 q 521 69 551 35 q 461 139 490 103 q 378 243 432 176 q 296 139 325 176 q 236 69 267 103 q 191 21 205 35 q 157 -4 176 7 q 126 -17 138 -15 q 94 -19 113 -19 l 1 -19 q -12 -13 -7 -19 q -18 0 -18 -7 q -12 13 -18 7 q 1 19 -7 19 q 50 19 9 19 q 94 18 90 18 q 146 34 125 18 q 263 162 176 56 q 353 274 290 194 l 137 544 q 134 555 134 548 q 140 568 134 562 q 154 574 146 574 q 168 567 161 574 l 378 305 l 589 567 q 603 574 595 574 q 617 568 610 574 q 623 555 623 562 q 619 544 623 549 l 403 274 q 584 57 549 92 q 646 19 618 22 q 663 18 652 18 z "},"":{"ha":1111,"x_min":-18,"x_max":1130,"o":"m 315 56 l 728 1076 q 555 1093 652 1093 q 189 964 289 1093 q 115 722 126 883 q 111 558 111 669 q 125 309 111 387 q 251 90 151 158 q 315 56 279 70 m 555 18 q 922 148 822 18 q 997 394 985 231 q 1000 557 1000 447 q 987 800 1000 725 q 865 1019 962 949 q 765 1066 823 1048 l 351 43 q 555 18 435 18 m 277 -137 q 261 -149 272 -149 q 247 -143 254 -149 q 241 -130 241 -138 q 243 -123 241 -127 l 301 22 q 176 106 225 52 q 116 17 165 53 q 0 -18 66 -18 q -13 -13 -7 -18 q -18 0 -18 -7 q -13 13 -18 7 q 0 18 -7 18 q 101 53 61 18 q 142 130 142 87 q 135 164 142 149 q 118 199 127 178 q 98 255 108 220 q 81 368 88 290 q 74 558 74 446 q 87 805 74 727 q 226 1050 115 973 q 555 1130 340 1130 q 743 1111 661 1130 l 806 1266 q 822 1278 811 1278 q 836 1272 829 1278 q 842 1259 842 1267 q 840 1253 842 1257 l 779 1101 q 1000 899 943 1049 q 1037 630 1034 805 q 1037 557 1037 606 q 1030 367 1037 445 q 1014 254 1023 289 q 994 199 1004 219 q 977 164 983 178 q 970 130 970 149 q 1010 53 970 87 q 1111 18 1050 18 q 1124 13 1118 18 q 1130 0 1130 7 q 1124 -13 1130 -7 q 1111 -18 1118 -18 q 996 17 1045 -18 q 935 105 946 52 q 555 -18 823 -18 q 336 9 429 -18 l 277 -137 z "},"":{"ha":1111,"x_min":-18,"x_max":1130,"o":"m 701 1233 q 695 1220 701 1224 q 685 1215 690 1215 q 669 1214 680 1214 q 559 1232 610 1214 q 476 1279 508 1251 q 427 1340 445 1308 q 410 1404 410 1373 q 415 1417 410 1411 q 428 1422 420 1422 q 440 1418 435 1422 q 446 1406 445 1413 q 467 1344 450 1372 q 508 1300 484 1317 q 561 1272 531 1283 q 617 1256 590 1260 q 669 1251 644 1251 q 697 1246 692 1251 q 701 1233 701 1242 m 142 130 q 135 162 142 147 q 118 199 127 178 q 98 255 108 220 q 81 361 88 290 q 74 533 74 433 q 75 822 74 608 q 77 1113 77 1036 q 82 1126 77 1120 q 95 1131 87 1131 q 108 1126 102 1131 q 114 1113 114 1120 q 113 823 114 1036 q 111 534 111 610 q 115 413 111 466 q 127 309 118 360 q 151 219 136 257 q 191 147 167 181 q 248 91 214 113 q 325 51 281 68 q 427 26 370 34 q 555 18 484 18 q 985 359 922 18 q 1000 553 997 425 q 1000 557 1000 555 l 1000 1111 q 1006 1124 1000 1118 q 1019 1130 1011 1130 q 1031 1124 1026 1130 q 1037 1111 1037 1118 l 1037 83 q 1044 45 1037 60 q 1061 26 1050 31 q 1083 20 1072 22 q 1106 19 1095 18 q 1123 15 1116 19 q 1130 0 1130 10 q 1124 -13 1130 -7 q 1111 -18 1118 -18 q 1028 4 1055 -18 q 1000 83 1000 27 l 1000 269 q 555 -18 907 -18 q 176 106 289 -18 q 115 17 165 53 q 0 -18 66 -18 q -13 -13 -7 -18 q -18 0 -18 -7 q -13 13 -18 7 q 0 18 -7 18 q 101 53 61 18 q 142 130 142 87 z "},"":{"ha":1111,"x_min":-18,"x_max":1130,"o":"m 709 1387 q 722 1382 716 1387 q 727 1369 727 1377 q 722 1356 727 1360 q 586 1253 662 1291 q 403 1214 511 1214 q 390 1219 395 1214 q 385 1232 385 1225 q 390 1245 385 1240 q 403 1251 395 1251 q 513 1264 462 1251 q 595 1299 564 1278 q 650 1339 627 1319 q 688 1373 673 1359 q 709 1387 703 1387 m 142 130 q 135 162 142 147 q 118 199 127 178 q 98 255 108 220 q 81 361 88 290 q 74 533 74 433 q 75 822 74 608 q 77 1113 77 1036 q 82 1126 77 1120 q 95 1131 87 1131 q 108 1126 102 1131 q 114 1113 114 1120 q 113 823 114 1036 q 111 534 111 610 q 115 413 111 466 q 127 309 118 360 q 151 219 136 257 q 191 147 167 181 q 248 91 214 113 q 325 51 281 68 q 427 26 370 34 q 555 18 484 18 q 985 359 922 18 q 1000 553 997 425 q 1000 557 1000 555 l 1000 1111 q 1006 1124 1000 1118 q 1019 1130 1011 1130 q 1031 1124 1026 1130 q 1037 1111 1037 1118 l 1037 83 q 1044 45 1037 60 q 1061 26 1050 31 q 1083 20 1072 22 q 1106 19 1095 18 q 1123 15 1116 19 q 1130 0 1130 10 q 1124 -13 1130 -7 q 1111 -18 1118 -18 q 1028 4 1055 -18 q 1000 83 1000 27 l 1000 269 q 555 -18 907 -18 q 176 106 289 -18 q 115 17 165 53 q 0 -18 66 -18 q -13 -13 -7 -18 q -18 0 -18 -7 q -13 13 -18 7 q 0 18 -7 18 q 101 53 61 18 q 142 130 142 87 z "},"":{"ha":1111,"x_min":-18,"x_max":1130,"o":"m 740 1214 q 700 1224 718 1214 q 667 1248 681 1234 q 637 1276 652 1262 q 598 1300 621 1291 q 545 1310 574 1310 q 504 1300 523 1310 q 470 1276 484 1291 q 442 1248 456 1262 q 411 1224 429 1234 q 372 1214 393 1214 q 359 1219 364 1214 q 353 1232 353 1224 q 370 1251 353 1248 q 405 1263 389 1253 q 433 1288 420 1274 q 460 1316 446 1302 q 496 1338 474 1329 q 545 1348 517 1348 q 604 1338 578 1348 q 646 1316 629 1329 q 676 1288 662 1302 q 706 1263 690 1274 q 742 1251 723 1253 q 754 1245 749 1250 q 759 1232 759 1240 q 753 1219 759 1224 q 740 1214 748 1214 m 142 130 q 135 162 142 147 q 118 199 127 178 q 98 255 108 220 q 81 361 88 290 q 74 533 74 433 q 75 822 74 608 q 77 1113 77 1036 q 82 1126 77 1120 q 95 1131 87 1131 q 108 1126 102 1131 q 114 1113 114 1120 q 113 823 114 1036 q 111 534 111 610 q 115 413 111 466 q 127 309 118 360 q 151 219 136 257 q 191 147 167 181 q 248 91 214 113 q 325 51 281 68 q 427 26 370 34 q 555 18 484 18 q 985 359 922 18 q 1000 553 997 425 q 1000 557 1000 555 l 1000 1111 q 1006 1124 1000 1118 q 1019 1130 1011 1130 q 1031 1124 1026 1130 q 1037 1111 1037 1118 l 1037 83 q 1044 45 1037 60 q 1061 26 1050 31 q 1083 20 1072 22 q 1106 19 1095 18 q 1123 15 1116 19 q 1130 0 1130 10 q 1124 -13 1130 -7 q 1111 -18 1118 -18 q 1028 4 1055 -18 q 1000 83 1000 27 l 1000 269 q 555 -18 907 -18 q 176 106 289 -18 q 115 17 165 53 q 0 -18 66 -18 q -13 -13 -7 -18 q -18 0 -18 -7 q -13 13 -18 7 q 0 18 -7 18 q 101 53 61 18 q 142 130 142 87 z "},"":{"ha":1111,"x_min":-18,"x_max":1130,"o":"m 648 1325 q 689 1308 675 1324 q 704 1271 704 1291 q 686 1229 704 1244 q 649 1214 669 1214 l 648 1214 q 607 1232 622 1215 q 593 1269 593 1249 q 610 1310 593 1295 q 647 1325 627 1325 l 648 1325 m 667 1270 q 661 1282 667 1277 q 647 1288 656 1288 q 635 1282 640 1288 q 630 1269 630 1276 q 636 1257 630 1261 q 650 1252 642 1252 q 667 1270 667 1252 m 463 1325 q 504 1308 490 1324 q 518 1271 518 1291 q 501 1229 518 1244 q 464 1214 484 1214 l 463 1214 q 422 1232 437 1215 q 408 1269 408 1249 q 425 1310 408 1295 q 462 1325 442 1325 l 463 1325 m 477 1257 q 479 1259 477 1257 q 481 1270 481 1262 q 476 1283 481 1278 q 462 1289 470 1289 q 449 1283 454 1289 q 444 1269 444 1277 q 450 1256 444 1261 q 464 1251 456 1251 q 477 1257 472 1251 m 142 130 q 135 162 142 147 q 118 199 127 178 q 98 255 108 220 q 81 361 88 290 q 74 533 74 433 q 75 822 74 608 q 77 1113 77 1036 q 82 1126 77 1120 q 95 1131 87 1131 q 108 1126 102 1131 q 114 1113 114 1120 q 113 823 114 1036 q 111 534 111 610 q 115 413 111 466 q 127 309 118 360 q 151 219 136 257 q 191 147 167 181 q 248 91 214 113 q 325 51 281 68 q 427 26 370 34 q 555 18 484 18 q 985 359 922 18 q 1000 553 997 425 q 1000 557 1000 555 l 1000 1111 q 1006 1124 1000 1118 q 1019 1130 1011 1130 q 1031 1124 1026 1130 q 1037 1111 1037 1118 l 1037 83 q 1044 45 1037 60 q 1061 26 1050 31 q 1083 20 1072 22 q 1106 19 1095 18 q 1123 15 1116 19 q 1130 0 1130 10 q 1124 -13 1130 -7 q 1111 -18 1118 -18 q 1028 4 1055 -18 q 1000 83 1000 27 l 1000 269 q 555 -18 907 -18 q 176 106 289 -18 q 115 17 165 53 q 0 -18 66 -18 q -13 -13 -7 -18 q -18 0 -18 -7 q -13 13 -18 7 q 0 18 -7 18 q 101 53 61 18 q 142 130 142 87 z "},"":{"ha":629,"x_min":-18,"x_max":654,"o":"m 471 1385 q 484 1380 478 1385 q 489 1367 489 1375 q 484 1354 489 1359 q 348 1251 424 1290 q 165 1213 273 1213 q 152 1218 157 1213 q 146 1231 146 1223 q 152 1244 146 1238 q 165 1249 157 1249 q 275 1263 224 1249 q 357 1297 326 1277 q 412 1338 389 1318 q 450 1372 435 1358 q 471 1385 465 1385 m 337 85 q 370 34 337 50 q 445 18 402 18 l 629 18 q 643 13 637 18 q 648 0 648 7 q 643 -13 648 -7 q 629 -18 637 -18 l 448 -18 q 318 28 353 -18 q 180 -18 279 -18 l 0 -18 q -13 -13 -7 -18 q -18 0 -18 -7 q -13 13 -18 7 q 0 18 -7 18 l 180 18 q 265 34 231 18 q 300 83 300 50 l 300 583 l -13 1101 q -13 1120 -18 1110 q 3 1130 -8 1130 q 18 1121 13 1130 l 319 622 l 621 1121 q 636 1130 626 1130 q 649 1124 644 1130 q 654 1111 654 1118 q 652 1101 654 1105 l 337 580 l 337 85 z "},"":{"ha":640,"x_min":-18,"x_max":657,"o":"m 111 769 l 111 409 q 312 333 189 333 q 457 362 388 333 q 571 446 526 391 q 615 566 615 500 q 602 690 615 637 q 567 778 589 744 q 512 833 545 812 q 442 863 479 854 q 358 871 405 871 q 216 840 286 871 q 111 769 145 808 m 358 909 q 498 884 440 909 q 589 811 556 859 q 637 704 623 764 q 652 566 652 644 q 603 425 652 488 q 476 330 553 362 q 314 298 399 298 q 111 359 197 298 l 111 92 q 203 50 153 66 q 323 28 254 35 q 446 20 393 22 q 591 18 498 18 l 639 18 q 652 13 646 18 q 657 0 657 7 q 652 -13 657 -7 q 639 -18 646 -18 q 591 -19 623 -18 q 541 -19 558 -19 q 293 -5 397 -19 q 109 51 188 8 q 74 -3 101 13 q 0 -18 47 -18 q -13 -13 -7 -18 q -18 0 -18 -7 q -16 10 -18 6 q -9 16 -14 14 q 1 18 -3 18 q 14 19 5 18 q 26 20 22 19 q 65 34 56 22 q 74 78 74 46 l 74 1111 q 80 1124 74 1118 q 93 1130 85 1130 q 106 1124 100 1130 q 111 1111 111 1118 l 111 821 q 225 884 158 859 q 358 909 292 909 z "},"":{"ha":744,"x_min":-19,"x_max":764,"o":"m 326 1133 q 451 1118 396 1133 q 537 1079 505 1103 q 589 1023 569 1055 q 616 962 609 991 q 623 902 623 933 q 591 763 623 827 q 531 675 559 700 q 471 636 503 652 q 419 616 439 621 q 384 596 399 610 q 364 557 368 583 q 400 501 372 536 q 462 429 429 466 q 528 350 495 391 q 582 261 560 308 q 603 174 603 215 q 493 18 603 83 l 745 18 q 758 12 753 18 q 764 0 764 6 q 758 -13 764 -7 q 745 -19 753 -19 l 411 -19 q 397 -12 402 -19 q 393 5 391 -4 q 404 18 395 14 q 567 175 567 82 q 546 252 567 211 q 493 332 525 294 q 427 408 460 371 q 366 483 394 444 q 328 550 337 521 q 327 557 326 554 q 352 618 331 594 q 398 651 374 642 q 455 674 422 660 q 506 703 488 688 q 562 792 539 736 q 585 902 585 847 q 579 952 585 928 q 557 1004 574 977 q 512 1050 540 1031 q 437 1083 485 1070 q 326 1096 389 1096 q 263 1086 291 1096 q 218 1063 236 1077 q 186 1026 200 1050 q 166 982 173 1002 q 154 930 159 962 q 148 878 149 898 q 145 825 146 859 q 142 778 143 791 q 129 499 138 677 q 115 212 121 321 q 108 83 110 103 q 104 56 106 67 q 95 30 102 45 q 77 4 87 14 q 46 -12 66 -5 q 0 -19 26 -19 q -13 -14 -7 -19 q -19 0 -19 -8 q -13 13 -19 8 q 0 18 -7 18 q 37 22 23 18 q 58 37 52 26 q 67 55 65 47 q 71 82 68 62 q 71 87 71 85 q 79 214 73 106 q 93 502 84 323 q 106 781 101 682 q 108 824 106 791 q 111 879 109 857 q 117 936 112 901 q 131 996 123 971 q 156 1048 140 1020 q 194 1093 172 1076 q 250 1122 216 1110 q 326 1133 283 1133 z "},"":{"ha":648,"x_min":-18,"x_max":667,"o":"m 470 676 q 464 663 470 667 q 453 658 458 659 q 438 657 448 657 q 328 675 378 657 q 245 722 277 694 q 196 783 214 751 q 178 847 178 816 q 183 860 178 854 q 197 865 189 865 q 209 861 203 865 q 215 849 214 857 q 236 788 219 815 q 276 743 253 760 q 329 715 300 726 q 386 699 359 703 q 438 694 412 694 q 466 689 461 694 q 470 676 470 685 m 90 96 q 82 147 90 100 q 74 279 74 194 q 88 435 74 387 q 231 565 118 539 q 324 574 271 574 q 537 489 483 574 l 537 555 q 543 569 537 563 q 555 574 548 574 q 569 569 563 574 q 574 555 574 563 l 574 140 q 575 123 574 134 q 579 83 577 95 q 585 55 581 71 q 596 33 589 39 q 616 23 604 27 q 648 18 629 18 q 661 13 656 18 q 667 0 667 7 q 661 -13 667 -7 q 648 -18 656 -18 q 572 6 594 -18 q 543 78 549 31 q 324 -18 490 -18 q 121 53 178 -18 q 77 -1 110 16 q 3 -18 45 -18 q -18 0 -18 -18 q 3 18 -18 18 q 68 40 47 18 q 90 96 90 61 m 111 279 q 124 129 111 173 q 229 29 148 52 q 324 18 268 18 q 509 94 465 18 q 537 242 535 140 q 537 278 537 256 q 537 320 537 304 q 535 360 536 336 q 531 398 534 384 q 523 431 528 412 q 509 462 517 450 q 490 487 501 473 q 463 508 478 500 q 427 524 447 516 q 381 534 407 531 q 324 537 355 537 q 139 462 182 537 q 111 315 113 417 q 111 279 111 302 z "},"":{"ha":648,"x_min":-18,"x_max":667,"o":"m 477 830 q 490 825 485 830 q 496 812 496 820 q 491 799 496 804 q 355 696 431 734 q 172 657 279 657 q 159 663 164 657 q 153 675 153 668 q 159 688 153 683 q 172 694 164 694 q 281 708 231 694 q 364 742 332 722 q 419 782 395 762 q 457 816 442 802 q 477 830 471 830 m 90 96 q 82 147 90 100 q 74 279 74 194 q 88 435 74 387 q 231 565 118 539 q 324 574 271 574 q 537 489 483 574 l 537 555 q 543 569 537 563 q 555 574 548 574 q 569 569 563 574 q 574 555 574 563 l 574 140 q 575 123 574 134 q 579 83 577 95 q 585 55 581 71 q 596 33 589 39 q 616 23 604 27 q 648 18 629 18 q 661 13 656 18 q 667 0 667 7 q 661 -13 667 -7 q 648 -18 656 -18 q 572 6 594 -18 q 543 78 549 31 q 324 -18 490 -18 q 121 53 178 -18 q 77 -1 110 16 q 3 -18 45 -18 q -18 0 -18 -18 q 3 18 -18 18 q 68 40 47 18 q 90 96 90 61 m 111 279 q 124 129 111 173 q 229 29 148 52 q 324 18 268 18 q 509 94 465 18 q 537 242 535 140 q 537 278 537 256 q 537 320 537 304 q 535 360 536 336 q 531 398 534 384 q 523 431 528 412 q 509 462 517 450 q 490 487 501 473 q 463 508 478 500 q 427 524 447 516 q 381 534 407 531 q 324 537 355 537 q 139 462 182 537 q 111 315 113 417 q 111 279 111 302 z "},"":{"ha":648,"x_min":-18,"x_max":667,"o":"m 508 657 q 468 667 486 657 q 435 691 449 677 q 405 720 420 705 q 366 744 389 734 q 313 753 342 753 q 272 744 291 753 q 238 720 252 734 q 210 691 224 705 q 179 667 197 677 q 140 657 161 657 q 127 662 132 657 q 121 675 121 667 q 138 694 121 691 q 173 707 157 696 q 201 731 189 718 q 228 759 214 745 q 264 782 242 772 q 313 791 286 791 q 372 782 346 791 q 414 759 397 772 q 444 731 430 745 q 474 707 458 718 q 510 694 491 696 q 522 688 517 693 q 527 675 527 683 q 522 662 527 667 q 508 657 516 657 m 90 96 q 82 147 90 100 q 74 279 74 194 q 88 435 74 387 q 231 565 118 539 q 324 574 271 574 q 537 489 483 574 l 537 555 q 543 569 537 563 q 555 574 548 574 q 569 569 563 574 q 574 555 574 563 l 574 140 q 575 123 574 134 q 579 83 577 95 q 585 55 581 71 q 596 33 589 39 q 616 23 604 27 q 648 18 629 18 q 661 13 656 18 q 667 0 667 7 q 661 -13 667 -7 q 648 -18 656 -18 q 572 6 594 -18 q 543 78 549 31 q 324 -18 490 -18 q 121 53 178 -18 q 77 -1 110 16 q 3 -18 45 -18 q -18 0 -18 -18 q 3 18 -18 18 q 68 40 47 18 q 90 96 90 61 m 111 279 q 124 129 111 173 q 229 29 148 52 q 324 18 268 18 q 509 94 465 18 q 537 242 535 140 q 537 278 537 256 q 537 320 537 304 q 535 360 536 336 q 531 398 534 384 q 523 431 528 412 q 509 462 517 450 q 490 487 501 473 q 463 508 478 500 q 427 524 447 516 q 381 534 407 531 q 324 537 355 537 q 139 462 182 537 q 111 315 113 417 q 111 279 111 302 z "},"":{"ha":648,"x_min":-18,"x_max":667,"o":"m 90 96 q 82 147 90 100 q 74 279 74 194 q 88 435 74 387 q 231 565 118 539 q 324 574 271 574 q 537 489 483 574 l 537 555 q 543 569 537 563 q 555 574 548 574 q 569 569 563 574 q 574 555 574 563 l 574 140 q 575 123 574 134 q 579 83 577 95 q 585 55 581 71 q 596 33 589 39 q 616 23 604 27 q 648 18 629 18 q 661 13 656 18 q 667 0 667 7 q 661 -13 667 -7 q 648 -18 656 -18 q 572 6 594 -18 q 543 78 549 31 q 324 -18 490 -18 q 121 53 178 -18 q 77 -1 110 16 q 3 -18 45 -18 q -18 0 -18 -18 q 3 18 -18 18 q 68 40 47 18 q 90 96 90 61 m 111 279 q 124 129 111 173 q 229 29 148 52 q 324 18 268 18 q 509 94 465 18 q 537 242 535 140 q 537 278 537 256 q 537 320 537 304 q 535 360 536 336 q 531 398 534 384 q 523 431 528 412 q 509 462 517 450 q 490 487 501 473 q 463 508 478 500 q 427 524 447 516 q 381 534 407 531 q 324 537 355 537 q 139 462 182 537 q 111 315 113 417 q 111 279 111 302 z "},"":{"ha":648,"x_min":-18,"x_max":667,"o":"m 416 768 q 457 751 443 768 q 472 714 472 734 q 454 672 472 688 q 417 657 437 657 l 416 657 q 375 675 390 658 q 361 712 361 692 q 378 753 361 739 q 415 768 395 768 l 416 768 m 435 713 q 429 726 435 720 q 415 731 424 731 q 403 725 408 731 q 398 712 398 720 q 404 700 398 705 q 418 695 410 695 q 435 713 435 695 m 231 768 q 272 751 258 768 q 286 714 286 734 q 269 672 286 688 q 232 657 252 657 l 231 657 q 190 675 205 658 q 176 712 176 692 q 193 753 176 739 q 230 768 210 768 l 231 768 m 245 700 q 247 703 245 700 q 250 713 250 705 q 244 727 250 722 q 230 732 238 732 q 217 726 222 732 q 212 712 212 720 q 218 699 212 704 q 232 694 224 694 q 245 700 240 694 m 90 96 q 82 147 90 100 q 74 279 74 194 q 88 435 74 387 q 231 565 118 539 q 324 574 271 574 q 537 489 483 574 l 537 555 q 543 569 537 563 q 555 574 548 574 q 569 569 563 574 q 574 555 574 563 l 574 140 q 575 123 574 134 q 579 83 577 95 q 585 55 581 71 q 596 33 589 39 q 616 23 604 27 q 648 18 629 18 q 661 13 656 18 q 667 0 667 7 q 661 -13 667 -7 q 648 -18 656 -18 q 572 6 594 -18 q 543 78 549 31 q 324 -18 490 -18 q 121 53 178 -18 q 77 -1 110 16 q 3 -18 45 -18 q -18 0 -18 -18 q 3 18 -18 18 q 68 40 47 18 q 90 96 90 61 m 111 279 q 124 129 111 173 q 229 29 148 52 q 324 18 268 18 q 509 94 465 18 q 537 242 535 140 q 537 278 537 256 q 537 320 537 304 q 535 360 536 336 q 531 398 534 384 q 523 431 528 412 q 509 462 517 450 q 490 487 501 473 q 463 508 478 500 q 427 524 447 516 q 381 534 407 531 q 324 537 355 537 q 139 462 182 537 q 111 315 113 417 q 111 279 111 302 z "},"":{"ha":648,"x_min":-18,"x_max":667,"o":"m 324 768 l 323 768 q 299 758 311 768 q 288 730 288 748 q 297 706 288 717 q 324 694 306 694 l 326 694 q 349 704 338 694 q 361 732 361 713 q 352 756 361 745 q 324 768 342 767 m 398 732 q 376 677 398 699 q 326 656 354 656 l 324 656 q 270 680 290 657 q 251 730 251 703 q 274 785 251 764 q 323 805 296 805 l 324 805 q 378 781 359 804 q 398 732 398 758 m 90 96 q 82 147 90 100 q 74 279 74 194 q 88 435 74 387 q 231 565 118 539 q 324 574 271 574 q 537 489 483 574 l 537 555 q 543 569 537 563 q 555 574 548 574 q 569 569 563 574 q 574 555 574 563 l 574 140 q 575 123 574 134 q 579 83 577 95 q 585 55 581 71 q 596 33 589 39 q 616 23 604 27 q 648 18 629 18 q 661 13 656 18 q 667 0 667 7 q 661 -13 667 -7 q 648 -18 656 -18 q 572 6 594 -18 q 543 78 549 31 q 324 -18 490 -18 q 121 53 178 -18 q 77 -1 110 16 q 3 -18 45 -18 q -18 0 -18 -18 q 3 18 -18 18 q 68 40 47 18 q 90 96 90 61 m 111 279 q 124 129 111 173 q 229 29 148 52 q 324 18 268 18 q 509 94 465 18 q 537 242 535 140 q 537 278 537 256 q 537 320 537 304 q 535 360 536 336 q 531 398 534 384 q 523 431 528 412 q 509 462 517 450 q 490 487 501 473 q 463 508 478 500 q 427 524 447 516 q 381 534 407 531 q 324 537 355 537 q 139 462 182 537 q 111 315 113 417 q 111 279 111 302 z "},"":{"ha":1112,"x_min":-18,"x_max":1131,"o":"m 575 264 q 675 308 621 293 q 773 325 729 323 q 861 328 818 326 q 933 332 903 330 q 980 349 962 334 q 998 394 998 364 q 944 491 998 450 q 788 531 890 531 q 603 456 646 531 q 575 309 577 411 q 575 273 575 296 l 575 264 m 90 96 q 82 147 90 100 q 74 279 74 194 q 88 435 74 387 q 231 565 118 539 q 324 574 271 574 q 534 492 479 574 l 534 555 q 540 569 534 563 q 553 574 546 574 q 566 569 561 574 q 572 555 572 563 l 572 477 q 788 568 625 568 q 971 517 907 568 q 1034 393 1034 467 q 1005 319 1034 342 q 924 293 975 296 q 817 290 873 290 q 692 274 760 290 q 576 220 625 258 q 582 152 577 180 q 599 96 586 124 q 635 51 612 68 q 696 23 657 34 q 788 12 734 12 q 857 25 825 12 q 915 52 888 39 q 965 65 941 65 q 1021 52 996 65 q 1068 25 1046 39 q 1112 12 1090 12 q 1125 7 1120 12 q 1131 -6 1131 1 q 1125 -19 1131 -14 q 1112 -24 1120 -24 q 1058 -11 1082 -24 q 1013 15 1034 2 q 965 28 991 28 q 923 15 948 28 q 863 -11 898 2 q 788 -24 829 -24 q 572 66 625 -24 l 572 0 q 566 -13 572 -7 q 553 -19 561 -19 q 540 -13 546 -19 q 534 0 534 -7 l 534 64 q 324 -18 477 -18 q 121 53 178 -18 q 77 -1 110 16 q 3 -18 45 -18 q -18 0 -18 -18 q 3 18 -18 18 q 68 40 47 18 q 90 96 90 61 m 111 279 q 124 129 111 173 q 229 29 148 52 q 324 18 268 18 q 426 31 385 18 q 489 67 467 43 q 521 121 511 92 q 534 191 531 150 l 534 365 q 521 435 531 406 q 489 488 511 464 q 426 525 467 513 q 324 537 385 537 q 139 462 182 537 q 111 315 113 417 q 111 279 111 302 z "},"":{"ha":648,"x_min":-18,"x_max":667,"o":"m 323 -154 q 311 -148 315 -154 q 306 -135 306 -142 l 306 -26 q 311 -14 306 -19 q 324 -8 317 -8 q 337 -14 332 -8 q 342 -26 342 -19 l 342 -107 q 376 -102 357 -102 q 448 -132 418 -102 q 477 -196 477 -161 q 474 -220 477 -207 q 463 -248 471 -233 q 444 -276 455 -264 q 413 -297 432 -288 q 370 -305 393 -305 q 313 -290 339 -305 q 288 -260 288 -274 q 298 -243 288 -248 q 319 -247 309 -239 q 370 -268 340 -268 q 413 -253 397 -268 q 435 -223 430 -237 q 439 -196 439 -208 q 421 -157 439 -176 q 376 -139 402 -139 q 343 -146 360 -139 q 323 -154 327 -154 m 545 332 q 538 333 542 332 q 530 338 535 334 q 526 351 526 343 q 530 369 526 355 q 534 400 534 383 q 480 497 534 456 q 324 537 426 537 q 139 462 182 537 q 111 315 113 417 q 111 279 111 302 q 124 129 111 173 q 229 29 148 52 q 324 18 268 18 q 393 32 361 18 q 451 58 425 45 q 501 71 477 71 q 557 58 532 71 q 604 32 583 45 q 648 18 626 18 q 661 13 656 18 q 667 0 667 7 q 661 -13 667 -7 q 648 -18 656 -18 q 594 -5 618 -18 q 549 21 570 8 q 501 35 527 35 q 459 21 484 35 q 399 -5 434 8 q 324 -18 365 -18 q 121 53 178 -18 q 77 -1 110 16 q 3 -18 45 -18 q -18 0 -18 -18 q 3 18 -18 18 q 68 40 47 18 q 90 96 90 61 q 82 147 90 100 q 74 279 74 194 q 88 436 74 387 q 229 564 118 538 q 324 574 270 574 q 507 524 444 574 q 570 399 570 473 q 565 355 570 378 q 545 332 559 332 z "},"":{"ha":648,"x_min":-18,"x_max":667,"o":"m 470 676 q 464 663 470 667 q 453 658 458 659 q 438 657 448 657 q 328 675 378 657 q 245 722 277 694 q 196 783 214 751 q 178 847 178 816 q 183 860 178 854 q 197 865 189 865 q 209 861 203 865 q 215 849 214 857 q 236 788 219 815 q 276 743 253 760 q 329 715 300 726 q 386 699 359 703 q 438 694 412 694 q 466 689 461 694 q 470 676 470 685 m 90 96 q 81 153 90 104 q 72 260 72 201 q 74 331 72 300 q 81 395 75 361 q 98 454 87 429 q 128 503 109 479 q 173 542 147 527 q 238 565 199 556 q 324 574 276 574 q 428 558 380 574 q 504 516 475 542 q 550 460 534 490 q 566 400 566 430 q 546 337 566 364 q 491 293 526 309 q 413 267 456 277 q 318 251 370 256 q 220 245 267 247 q 125 242 174 243 q 110 242 115 242 l 111 227 q 122 146 112 181 q 154 81 132 112 q 220 35 177 51 q 324 18 262 18 q 418 45 366 18 q 501 71 471 71 q 551 63 528 71 q 587 45 574 55 q 617 26 600 35 q 648 18 633 18 q 662 13 656 18 q 667 0 667 7 q 662 -13 667 -7 q 648 -19 656 -19 q 600 -6 623 -19 q 553 21 576 7 q 501 34 529 34 q 455 21 481 34 q 396 -6 429 7 q 324 -19 363 -19 q 123 60 186 -19 q 80 1 113 20 q 3 -18 46 -18 q -18 0 -18 -18 q 3 18 -18 18 q 68 40 47 18 q 90 96 90 61 m 529 400 q 516 445 529 422 q 478 489 503 468 q 414 524 454 510 q 324 537 373 537 q 250 529 283 537 q 195 509 217 522 q 156 476 172 496 q 132 436 140 456 q 118 387 123 416 q 111 335 113 359 q 110 279 110 311 q 223 283 176 281 q 321 290 270 286 q 408 303 373 295 q 471 325 442 312 q 515 356 500 337 q 529 400 529 375 z "},"":{"ha":648,"x_min":-18,"x_max":667,"o":"m 477 830 q 490 825 485 830 q 496 812 496 820 q 491 799 496 804 q 355 696 431 734 q 172 657 279 657 q 159 663 164 657 q 153 675 153 668 q 159 688 153 683 q 172 694 164 694 q 281 708 231 694 q 364 742 332 722 q 419 782 395 762 q 457 816 442 802 q 477 830 471 830 m 90 96 q 81 153 90 104 q 72 260 72 201 q 74 331 72 300 q 81 395 75 361 q 98 454 87 429 q 128 503 109 479 q 173 542 147 527 q 238 565 199 556 q 324 574 276 574 q 428 558 380 574 q 504 516 475 542 q 550 460 534 490 q 566 400 566 430 q 546 337 566 364 q 491 293 526 309 q 413 267 456 277 q 318 251 370 256 q 220 245 267 247 q 125 242 174 243 q 110 242 115 242 l 111 227 q 122 146 112 181 q 154 81 132 112 q 220 35 177 51 q 324 18 262 18 q 418 45 366 18 q 501 71 471 71 q 551 63 528 71 q 587 45 574 55 q 617 26 600 35 q 648 18 633 18 q 662 13 656 18 q 667 0 667 7 q 662 -13 667 -7 q 648 -19 656 -19 q 600 -6 623 -19 q 553 21 576 7 q 501 34 529 34 q 455 21 481 34 q 396 -6 429 7 q 324 -19 363 -19 q 123 60 186 -19 q 80 1 113 20 q 3 -18 46 -18 q -18 0 -18 -18 q 3 18 -18 18 q 68 40 47 18 q 90 96 90 61 m 529 400 q 516 445 529 422 q 478 489 503 468 q 414 524 454 510 q 324 537 373 537 q 250 529 283 537 q 195 509 217 522 q 156 476 172 496 q 132 436 140 456 q 118 387 123 416 q 111 335 113 359 q 110 279 110 311 q 223 283 176 281 q 321 290 270 286 q 408 303 373 295 q 471 325 442 312 q 515 356 500 337 q 529 400 529 375 z "},"":{"ha":648,"x_min":-18,"x_max":667,"o":"m 508 657 q 468 667 486 657 q 435 691 449 677 q 405 720 420 705 q 366 744 389 734 q 313 753 342 753 q 272 744 291 753 q 238 720 252 734 q 210 691 224 705 q 179 667 197 677 q 140 657 161 657 q 127 662 132 657 q 121 675 121 667 q 138 694 121 691 q 173 707 157 696 q 201 731 189 718 q 228 759 214 745 q 264 782 242 772 q 313 791 286 791 q 372 782 346 791 q 414 759 397 772 q 444 731 430 745 q 474 707 458 718 q 510 694 491 696 q 522 688 517 693 q 527 675 527 683 q 522 662 527 667 q 508 657 516 657 m 90 96 q 81 153 90 104 q 72 260 72 201 q 74 331 72 300 q 81 395 75 361 q 98 454 87 429 q 128 503 109 479 q 173 542 147 527 q 238 565 199 556 q 324 574 276 574 q 428 558 380 574 q 504 516 475 542 q 550 460 534 490 q 566 400 566 430 q 546 337 566 364 q 491 293 526 309 q 413 267 456 277 q 318 251 370 256 q 220 245 267 247 q 125 242 174 243 q 110 242 115 242 l 111 227 q 122 146 112 181 q 154 81 132 112 q 220 35 177 51 q 324 18 262 18 q 418 45 366 18 q 501 71 471 71 q 551 63 528 71 q 587 45 574 55 q 617 26 600 35 q 648 18 633 18 q 662 13 656 18 q 667 0 667 7 q 662 -13 667 -7 q 648 -19 656 -19 q 600 -6 623 -19 q 553 21 576 7 q 501 34 529 34 q 455 21 481 34 q 396 -6 429 7 q 324 -19 363 -19 q 123 60 186 -19 q 80 1 113 20 q 3 -18 46 -18 q -18 0 -18 -18 q 3 18 -18 18 q 68 40 47 18 q 90 96 90 61 m 529 400 q 516 445 529 422 q 478 489 503 468 q 414 524 454 510 q 324 537 373 537 q 250 529 283 537 q 195 509 217 522 q 156 476 172 496 q 132 436 140 456 q 118 387 123 416 q 111 335 113 359 q 110 279 110 311 q 223 283 176 281 q 321 290 270 286 q 408 303 373 295 q 471 325 442 312 q 515 356 500 337 q 529 400 529 375 z "},"":{"ha":648,"x_min":-18,"x_max":667,"o":"m 417 768 q 458 751 444 768 q 473 714 473 734 q 455 672 473 688 q 418 657 437 657 l 417 657 q 376 675 391 658 q 361 712 361 692 q 379 753 361 739 q 416 768 396 768 l 417 768 m 435 713 q 430 726 435 720 q 416 731 425 731 q 404 725 408 731 q 399 712 399 720 q 405 700 399 705 q 418 695 411 695 q 435 713 435 695 m 232 768 q 273 751 258 768 q 287 714 287 734 q 270 672 287 688 q 233 657 252 657 l 232 657 q 191 675 205 658 q 176 712 176 692 q 194 753 176 739 q 231 768 211 768 l 232 768 m 245 700 q 248 703 245 700 q 250 713 250 705 q 244 727 250 722 q 231 732 239 732 q 218 726 222 732 q 213 712 213 720 q 219 699 213 704 q 233 694 224 694 q 245 700 241 694 m 90 96 q 81 153 90 104 q 72 260 72 201 q 74 331 72 300 q 81 395 75 361 q 98 454 87 429 q 128 503 109 479 q 173 542 147 527 q 238 565 199 556 q 324 574 276 574 q 428 558 380 574 q 504 516 475 542 q 550 460 534 490 q 566 400 566 430 q 546 337 566 364 q 491 293 526 309 q 413 267 456 277 q 318 251 370 256 q 220 245 267 247 q 125 242 174 243 q 110 242 115 242 l 111 227 q 122 146 112 181 q 154 81 132 112 q 220 35 177 51 q 324 18 262 18 q 418 45 366 18 q 501 71 471 71 q 551 63 528 71 q 587 45 574 55 q 617 26 600 35 q 648 18 633 18 q 662 13 656 18 q 667 0 667 7 q 662 -13 667 -7 q 648 -19 656 -19 q 600 -6 623 -19 q 553 21 576 7 q 501 34 529 34 q 455 21 481 34 q 396 -6 429 7 q 324 -19 363 -19 q 123 60 186 -19 q 80 1 113 20 q 3 -18 46 -18 q -18 0 -18 -18 q 3 18 -18 18 q 68 40 47 18 q 90 96 90 61 m 529 400 q 516 445 529 422 q 478 489 503 468 q 414 524 454 510 q 324 537 373 537 q 250 529 283 537 q 195 509 217 522 q 156 476 172 496 q 132 436 140 456 q 118 387 123 416 q 111 335 113 359 q 110 279 110 311 q 223 283 176 281 q 321 290 270 286 q 408 303 373 295 q 471 325 442 312 q 515 356 500 337 q 529 400 529 375 z "},"":{"ha":186,"x_min":-53,"x_max":239,"o":"m 239 676 q 233 663 239 667 q 222 658 227 659 q 207 657 217 657 q 96 675 147 657 q 14 722 45 694 q -35 783 -18 751 q -53 847 -53 816 q -48 860 -53 854 q -35 865 -43 865 q -23 861 -28 865 q -16 849 -18 857 q 5 788 -12 815 q 45 743 22 760 q 98 715 68 726 q 154 699 127 703 q 207 694 181 694 q 235 689 230 694 q 239 676 239 685 m 74 139 q 74 555 74 139 q 80 569 74 563 q 93 574 85 574 q 106 569 100 574 q 111 555 111 563 l 111 139 q 131 51 111 83 q 185 18 151 18 q 198 13 193 18 q 203 0 203 7 q 198 -13 203 -7 q 185 -18 193 -18 q 96 38 127 -18 q 0 -18 77 -18 q -13 -13 -7 -18 q -18 0 -18 -7 q -13 13 -18 7 q 0 18 -7 18 q 56 39 45 18 q 73 121 68 59 q 74 139 73 133 z "},"":{"ha":186,"x_min":-79,"x_max":264,"o":"m 245 830 q 258 825 253 830 q 264 812 264 820 q 259 799 264 804 q 123 696 199 734 q -60 657 47 657 q -73 663 -68 657 q -79 675 -79 668 q -73 688 -79 683 q -60 694 -68 694 q 50 708 -1 694 q 132 742 100 722 q 187 782 163 762 q 225 816 210 802 q 245 830 239 830 m 74 139 q 74 555 74 139 q 80 569 74 563 q 93 574 85 574 q 106 569 100 574 q 111 555 111 563 l 111 139 q 131 51 111 83 q 185 18 151 18 q 198 13 193 18 q 203 0 203 7 q 198 -13 203 -7 q 185 -18 193 -18 q 96 38 127 -18 q 0 -18 77 -18 q -13 -13 -7 -18 q -18 0 -18 -7 q -13 13 -18 7 q 0 18 -7 18 q 56 39 45 18 q 73 121 68 59 q 74 139 73 133 z "},"":{"ha":186,"x_min":-111,"x_max":295,"o":"m 276 657 q 236 667 254 657 q 203 691 217 677 q 173 720 189 705 q 134 744 157 734 q 81 753 111 753 q 40 744 59 753 q 6 720 20 734 q -22 691 -8 705 q -53 667 -35 677 q -92 657 -71 657 q -105 662 -100 657 q -111 675 -111 667 q -94 694 -111 691 q -59 707 -75 696 q -31 731 -43 718 q -4 759 -18 745 q 32 782 10 772 q 81 791 54 791 q 140 782 114 791 q 182 759 165 772 q 212 731 198 745 q 242 707 226 718 q 278 694 259 696 q 290 688 285 693 q 295 675 295 683 q 290 662 295 667 q 276 657 284 657 m 74 139 q 74 555 74 139 q 80 569 74 563 q 93 574 85 574 q 106 569 100 574 q 111 555 111 563 l 111 139 q 131 51 111 83 q 185 18 151 18 q 198 13 193 18 q 203 0 203 7 q 198 -13 203 -7 q 185 -18 193 -18 q 96 38 127 -18 q 0 -18 77 -18 q -13 -13 -7 -18 q -18 0 -18 -7 q -13 13 -18 7 q 0 18 -7 18 q 56 39 45 18 q 73 121 68 59 q 74 139 73 133 z "},"":{"ha":186,"x_min":-56,"x_max":241,"o":"m 185 768 q 226 751 212 768 q 241 714 241 734 q 223 672 241 688 q 186 657 205 657 l 185 657 q 144 675 159 658 q 130 712 130 692 q 147 753 130 739 q 184 768 164 768 l 185 768 m 203 713 q 198 726 203 720 q 184 731 193 731 q 172 725 176 731 q 167 712 167 720 q 173 700 167 705 q 186 695 179 695 q 203 713 203 695 m 0 768 q 41 751 26 768 q 55 714 55 734 q 38 672 55 688 q 1 657 20 657 l 0 657 q -41 675 -26 658 q -56 712 -56 692 q -38 753 -56 739 q -1 768 -21 768 l 0 768 m 14 700 q 16 703 14 700 q 18 713 18 705 q 13 727 18 722 q -1 732 7 732 q -14 726 -9 732 q -19 712 -19 720 q -13 699 -19 704 q 1 694 -7 694 q 14 700 9 694 m 74 139 q 74 555 74 139 q 80 569 74 563 q 93 574 85 574 q 106 569 100 574 q 111 555 111 563 l 111 139 q 131 51 111 83 q 185 18 151 18 q 198 13 193 18 q 203 0 203 7 q 198 -13 203 -7 q 185 -18 193 -18 q 96 38 127 -18 q 0 -18 77 -18 q -13 -13 -7 -18 q -18 0 -18 -7 q -13 13 -18 7 q 0 18 -7 18 q 56 39 45 18 q 73 121 68 59 q 74 139 73 133 z "},"":{"ha":648,"x_min":-18,"x_max":667,"o":"m 324 18 q 509 94 465 18 q 537 241 535 139 q 537 279 537 255 q 536 330 537 309 q 533 376 536 351 q 527 418 531 401 q 515 453 522 434 q 496 483 507 471 q 469 506 485 494 q 432 524 453 517 q 385 533 412 530 q 324 537 357 537 q 267 534 293 537 q 221 524 241 531 q 186 508 201 516 q 159 487 170 500 q 139 462 147 473 q 126 431 131 450 q 118 398 121 412 q 113 360 115 384 q 112 320 112 336 q 111 278 111 304 q 125 128 111 172 q 229 29 148 52 q 324 18 269 18 m 574 262 q 566 147 574 193 q 558 96 558 101 q 580 40 558 61 q 645 18 602 18 q 667 0 667 18 q 646 -18 667 -18 q 571 -1 604 -18 q 527 53 538 16 q 324 -18 470 -18 q 121 54 180 -18 q 77 -1 110 16 q 3 -18 45 -18 q -18 0 -18 -18 q 3 18 -18 18 q 64 35 39 18 q 90 91 90 52 q 85 122 90 104 q 82 147 81 141 q 74 278 74 193 q 92 449 74 395 q 235 566 125 543 q 324 574 274 574 q 524 505 466 574 q 512 636 519 584 q 491 749 505 688 q 450 859 476 810 q 387 948 425 908 l 222 796 q 210 791 216 791 q 197 797 203 791 q 191 810 191 803 q 197 823 191 817 l 359 974 q 71 1095 258 1061 q 56 1114 56 1098 q 61 1126 56 1121 q 74 1132 66 1132 l 77 1132 q 387 999 277 1095 l 518 1120 q 530 1126 525 1126 q 544 1120 538 1126 q 550 1106 550 1114 q 544 1093 550 1099 l 414 973 q 489 856 458 927 q 537 714 521 784 q 562 553 553 645 q 573 401 571 461 q 574 262 574 341 z "},"":{"ha":648,"x_min":-18,"x_max":667,"o":"m 535 278 q 523 426 535 383 q 424 525 501 501 q 324 537 383 537 q 234 525 273 537 q 173 494 195 513 q 137 449 151 476 q 118 396 123 421 q 111 340 113 371 l 111 138 q 110 122 111 133 q 107 90 108 100 q 102 61 106 79 q 95 34 99 43 q 82 13 90 25 q 64 -4 75 1 q 37 -14 53 -10 q 0 -18 20 -18 q -13 -13 -7 -18 q -18 0 -18 -7 q -13 13 -18 7 q 0 18 -7 18 q 56 39 45 18 q 73 121 68 59 q 74 140 73 134 l 74 555 q 80 569 74 563 q 93 574 85 574 q 106 569 100 574 q 111 555 111 563 l 111 479 q 324 574 169 574 q 390 571 359 574 q 443 558 420 567 q 484 540 465 550 q 516 515 503 530 q 538 485 529 499 q 554 449 548 471 q 564 411 560 428 q 570 369 568 394 q 572 325 572 343 q 572 278 572 306 q 571 215 572 255 q 570 159 570 175 q 586 53 570 87 q 648 18 602 18 q 661 13 656 18 q 667 0 667 7 q 661 -13 667 -7 q 648 -18 656 -18 q 598 -8 619 -18 q 564 18 576 2 q 545 60 552 35 q 535 109 537 85 q 533 165 533 133 q 534 222 533 184 q 535 278 535 260 z "},"":{"ha":648,"x_min":-18,"x_max":667,"o":"m 470 676 q 464 663 470 667 q 453 658 458 659 q 438 657 448 657 q 328 675 378 657 q 245 722 277 694 q 196 783 214 751 q 178 847 178 816 q 183 860 178 854 q 197 865 189 865 q 209 861 203 865 q 215 849 214 857 q 236 788 219 815 q 276 743 253 760 q 329 715 300 726 q 386 699 359 703 q 438 694 412 694 q 466 689 461 694 q 470 676 470 685 m 90 96 q 82 147 90 100 q 74 279 74 194 q 88 435 74 387 q 231 565 118 539 q 324 574 271 574 q 543 479 490 574 q 574 309 572 425 q 574 278 574 296 q 566 147 574 193 q 563 122 567 141 q 559 91 559 104 q 584 35 559 52 q 646 18 609 18 q 667 0 667 18 q 646 -18 667 -18 q 571 -1 604 -18 q 527 54 538 16 q 324 -18 469 -18 q 121 53 178 -18 q 77 -1 110 16 q 3 -18 45 -18 q -18 0 -18 -18 q 3 18 -18 18 q 68 40 47 18 q 90 96 90 61 m 111 279 q 124 129 111 173 q 229 29 148 52 q 324 18 268 18 q 509 94 465 18 q 537 242 535 140 q 537 278 537 256 q 537 320 537 304 q 535 360 536 336 q 531 398 534 384 q 523 431 528 412 q 509 462 517 450 q 490 487 501 473 q 463 508 478 500 q 427 524 447 516 q 381 534 407 531 q 324 537 355 537 q 139 462 182 537 q 111 315 113 417 q 111 279 111 302 z "},"":{"ha":648,"x_min":-18,"x_max":667,"o":"m 477 830 q 490 825 485 830 q 496 812 496 820 q 491 799 496 804 q 355 696 431 734 q 172 657 279 657 q 159 663 164 657 q 153 675 153 668 q 159 688 153 683 q 172 694 164 694 q 281 708 231 694 q 364 742 332 722 q 419 782 395 762 q 457 816 442 802 q 477 830 471 830 m 90 96 q 82 147 90 100 q 74 279 74 194 q 88 435 74 387 q 231 565 118 539 q 324 574 271 574 q 543 479 490 574 q 574 309 572 425 q 574 278 574 296 q 566 147 574 193 q 563 122 567 141 q 559 91 559 104 q 584 35 559 52 q 646 18 609 18 q 667 0 667 18 q 646 -18 667 -18 q 571 -1 604 -18 q 527 54 538 16 q 324 -18 469 -18 q 121 53 178 -18 q 77 -1 110 16 q 3 -18 45 -18 q -18 0 -18 -18 q 3 18 -18 18 q 68 40 47 18 q 90 96 90 61 m 111 279 q 124 129 111 173 q 229 29 148 52 q 324 18 268 18 q 509 94 465 18 q 537 242 535 140 q 537 278 537 256 q 537 320 537 304 q 535 360 536 336 q 531 398 534 384 q 523 431 528 412 q 509 462 517 450 q 490 487 501 473 q 463 508 478 500 q 427 524 447 516 q 381 534 407 531 q 324 537 355 537 q 139 462 182 537 q 111 315 113 417 q 111 279 111 302 z "},"":{"ha":648,"x_min":-18,"x_max":667,"o":"m 508 657 q 468 667 486 657 q 435 691 449 677 q 405 720 420 705 q 366 744 389 734 q 313 753 342 753 q 272 744 291 753 q 238 720 252 734 q 210 691 224 705 q 179 667 197 677 q 140 657 161 657 q 127 662 132 657 q 121 675 121 667 q 138 694 121 691 q 173 707 157 696 q 201 731 189 718 q 228 759 214 745 q 264 782 242 772 q 313 791 286 791 q 372 782 346 791 q 414 759 397 772 q 444 731 430 745 q 474 707 458 718 q 510 694 491 696 q 522 688 517 693 q 527 675 527 683 q 522 662 527 667 q 508 657 516 657 m 90 96 q 82 147 90 100 q 74 279 74 194 q 88 435 74 387 q 231 565 118 539 q 324 574 271 574 q 543 479 490 574 q 574 309 572 425 q 574 278 574 296 q 566 147 574 193 q 563 122 567 141 q 559 91 559 104 q 584 35 559 52 q 646 18 609 18 q 667 0 667 18 q 646 -18 667 -18 q 571 -1 604 -18 q 527 54 538 16 q 324 -18 469 -18 q 121 53 178 -18 q 77 -1 110 16 q 3 -18 45 -18 q -18 0 -18 -18 q 3 18 -18 18 q 68 40 47 18 q 90 96 90 61 m 111 279 q 124 129 111 173 q 229 29 148 52 q 324 18 268 18 q 509 94 465 18 q 537 242 535 140 q 537 278 537 256 q 537 320 537 304 q 535 360 536 336 q 531 398 534 384 q 523 431 528 412 q 509 462 517 450 q 490 487 501 473 q 463 508 478 500 q 427 524 447 516 q 381 534 407 531 q 324 537 355 537 q 139 462 182 537 q 111 315 113 417 q 111 279 111 302 z "},"":{"ha":648,"x_min":-18,"x_max":667,"o":"m 90 96 q 82 147 90 100 q 74 279 74 194 q 88 435 74 387 q 231 565 118 539 q 324 574 271 574 q 543 479 490 574 q 574 309 572 425 q 574 278 574 296 q 566 147 574 193 q 563 122 567 141 q 559 91 559 104 q 584 35 559 52 q 646 18 609 18 q 667 0 667 18 q 646 -18 667 -18 q 571 -1 604 -18 q 527 54 538 16 q 324 -18 469 -18 q 121 53 178 -18 q 77 -1 110 16 q 3 -18 45 -18 q -18 0 -18 -18 q 3 18 -18 18 q 68 40 47 18 q 90 96 90 61 m 111 279 q 124 129 111 173 q 229 29 148 52 q 324 18 268 18 q 509 94 465 18 q 537 242 535 140 q 537 278 537 256 q 537 320 537 304 q 535 360 536 336 q 531 398 534 384 q 523 431 528 412 q 509 462 517 450 q 490 487 501 473 q 463 508 478 500 q 427 524 447 516 q 381 534 407 531 q 324 537 355 537 q 139 462 182 537 q 111 315 113 417 q 111 279 111 302 z "},"":{"ha":648,"x_min":-18,"x_max":667,"o":"m 416 768 q 457 751 443 768 q 472 714 472 734 q 454 672 472 688 q 417 657 437 657 l 416 657 q 375 675 390 658 q 361 712 361 692 q 378 753 361 739 q 415 768 395 768 l 416 768 m 435 713 q 429 726 435 720 q 415 731 424 731 q 403 725 408 731 q 398 712 398 720 q 404 700 398 705 q 418 695 410 695 q 435 713 435 695 m 231 768 q 272 751 258 768 q 286 714 286 734 q 269 672 286 688 q 232 657 252 657 l 231 657 q 190 675 205 658 q 176 712 176 692 q 193 753 176 739 q 230 768 210 768 l 231 768 m 245 700 q 247 703 245 700 q 250 713 250 705 q 244 727 250 722 q 230 732 238 732 q 217 726 222 732 q 212 712 212 720 q 218 699 212 704 q 232 694 224 694 q 245 700 240 694 m 90 96 q 82 147 90 100 q 74 279 74 194 q 88 435 74 387 q 231 565 118 539 q 324 574 271 574 q 543 479 490 574 q 574 309 572 425 q 574 278 574 296 q 566 147 574 193 q 563 122 567 141 q 559 91 559 104 q 584 35 559 52 q 646 18 609 18 q 667 0 667 18 q 646 -18 667 -18 q 571 -1 604 -18 q 527 54 538 16 q 324 -18 469 -18 q 121 53 178 -18 q 77 -1 110 16 q 3 -18 45 -18 q -18 0 -18 -18 q 3 18 -18 18 q 68 40 47 18 q 90 96 90 61 m 111 279 q 124 129 111 173 q 229 29 148 52 q 324 18 268 18 q 509 94 465 18 q 537 242 535 140 q 537 278 537 256 q 537 320 537 304 q 535 360 536 336 q 531 398 534 384 q 523 431 528 412 q 509 462 517 450 q 490 487 501 473 q 463 508 478 500 q 427 524 447 516 q 381 534 407 531 q 324 537 355 537 q 139 462 182 537 q 111 315 113 417 q 111 279 111 302 z "},"":{"ha":804,"x_min":-18,"x_max":823,"o":"m 420 614 q 418 612 420 614 q 416 602 416 609 q 421 589 416 594 q 435 583 427 583 q 448 589 443 583 q 452 602 452 595 q 447 615 452 610 q 433 620 442 620 q 420 614 425 620 m 433 657 q 475 640 460 657 q 490 602 490 623 q 472 561 490 576 q 435 546 455 546 q 393 563 408 546 q 378 601 378 581 q 396 642 378 627 q 433 657 413 657 m 448 143 q 450 146 448 143 q 452 156 452 149 q 447 169 452 163 q 433 174 442 174 q 420 169 425 174 q 416 155 416 163 q 421 142 416 148 q 435 137 426 137 q 448 143 443 137 m 433 212 q 475 194 460 212 q 490 157 490 177 q 472 115 490 130 q 435 100 455 100 q 393 118 408 100 q 378 155 378 135 q 396 196 378 181 q 433 212 414 212 m 804 18 q 817 13 812 18 q 823 0 823 7 q 817 -13 823 -7 q 804 -18 812 -18 l 0 -18 q -13 -13 -7 -18 q -18 0 -18 -7 q -13 13 -18 7 q 0 18 -7 18 l 804 18 m 714 381 q 727 376 722 381 q 732 363 732 370 q 727 350 732 355 q 714 345 722 345 l 161 345 q 149 350 154 345 q 143 363 143 355 q 149 376 143 370 q 161 381 154 381 l 714 381 z "},"":{"ha":648,"x_min":-18,"x_max":667,"o":"m 90 96 q 82 147 90 100 q 74 279 74 194 q 88 435 74 387 q 231 565 118 539 q 324 574 271 574 q 439 560 393 574 l 500 726 q 517 739 505 739 q 531 733 525 739 q 537 720 537 728 q 536 713 537 718 l 473 546 q 521 509 501 532 q 551 464 541 487 q 566 407 561 441 q 573 346 572 372 q 574 278 574 319 q 566 147 574 193 l 566 145 q 563 122 566 140 q 559 91 559 104 q 584 35 559 52 q 646 18 609 18 q 667 0 667 18 q 646 -18 667 -18 q 571 -1 604 -18 q 527 54 538 16 q 324 -18 469 -18 q 264 -15 294 -18 l 204 -174 q 189 -186 200 -186 q 175 -181 181 -186 q 168 -168 168 -176 q 170 -161 168 -165 l 227 -8 q 121 53 157 8 q 77 -1 110 16 q 3 -18 45 -18 q -18 0 -18 -18 q 3 18 -18 18 q 68 40 47 18 q 90 96 90 61 m 324 537 q 139 462 182 537 q 111 315 113 417 q 111 279 111 302 q 120 146 111 189 q 124 129 121 143 q 239 26 149 47 l 425 524 q 324 537 383 537 m 460 510 l 277 20 q 324 18 298 18 q 509 94 465 18 q 537 242 535 140 q 537 278 537 256 q 536 338 537 316 q 532 391 536 360 q 520 440 528 421 q 497 478 512 459 q 460 510 481 498 z "},"":{"ha":648,"x_min":-18,"x_max":667,"o":"m 470 676 q 464 663 470 667 q 453 658 458 659 q 438 657 448 657 q 328 675 378 657 q 245 722 277 694 q 196 783 214 751 q 178 847 178 816 q 183 860 178 854 q 197 865 189 865 q 209 861 203 865 q 215 849 214 857 q 236 788 219 815 q 276 743 253 760 q 329 715 300 726 q 386 699 359 703 q 438 694 412 694 q 466 689 461 694 q 470 676 470 685 m 111 271 q 112 219 111 239 q 115 173 113 199 q 124 129 118 146 q 140 92 130 112 q 166 61 151 73 q 204 38 182 49 q 256 23 226 28 q 324 18 286 18 q 421 30 381 18 q 483 61 460 42 q 518 111 505 79 q 534 173 530 143 q 537 248 537 203 l 537 555 q 543 569 537 563 q 555 574 548 574 q 569 569 563 574 q 574 555 574 563 l 574 250 q 578 99 577 110 q 606 28 583 43 q 648 18 621 18 q 661 13 656 18 q 667 0 667 7 q 661 -13 667 -7 q 648 -18 656 -18 q 574 5 597 -18 q 543 78 551 29 q 324 -18 490 -18 q 121 53 178 -18 q 77 -1 110 16 q 3 -18 45 -18 q -18 0 -18 -18 q 3 18 -18 18 q 68 40 47 18 q 90 96 90 61 q 86 121 90 106 q 79 177 83 137 q 75 285 75 217 l 75 555 q 80 569 75 563 q 94 574 86 574 q 106 569 101 574 q 112 555 112 563 l 111 271 z "},"":{"ha":648,"x_min":-18,"x_max":667,"o":"m 477 830 q 490 825 485 830 q 496 812 496 820 q 491 799 496 804 q 355 696 431 734 q 172 657 279 657 q 159 663 164 657 q 153 675 153 668 q 159 688 153 683 q 172 694 164 694 q 281 708 231 694 q 364 742 332 722 q 419 782 395 762 q 457 816 442 802 q 477 830 471 830 m 111 271 q 112 219 111 239 q 115 173 113 199 q 124 129 118 146 q 140 92 130 112 q 166 61 151 73 q 204 38 182 49 q 256 23 226 28 q 324 18 286 18 q 421 30 381 18 q 483 61 460 42 q 518 111 505 79 q 534 173 530 143 q 537 248 537 203 l 537 555 q 543 569 537 563 q 555 574 548 574 q 569 569 563 574 q 574 555 574 563 l 574 250 q 578 99 577 110 q 606 28 583 43 q 648 18 621 18 q 661 13 656 18 q 667 0 667 7 q 661 -13 667 -7 q 648 -18 656 -18 q 574 5 597 -18 q 543 78 551 29 q 324 -18 490 -18 q 121 53 178 -18 q 77 -1 110 16 q 3 -18 45 -18 q -18 0 -18 -18 q 3 18 -18 18 q 68 40 47 18 q 90 96 90 61 q 86 121 90 106 q 79 177 83 137 q 75 285 75 217 l 75 555 q 80 569 75 563 q 94 574 86 574 q 106 569 101 574 q 112 555 112 563 l 111 271 z "},"":{"ha":648,"x_min":-18,"x_max":667,"o":"m 508 657 q 468 667 486 657 q 435 691 449 677 q 405 720 420 705 q 366 744 389 734 q 313 753 342 753 q 272 744 291 753 q 238 720 252 734 q 210 691 224 705 q 179 667 197 677 q 140 657 161 657 q 127 662 132 657 q 121 675 121 667 q 138 694 121 691 q 173 707 157 696 q 201 731 189 718 q 228 759 214 745 q 264 782 242 772 q 313 791 286 791 q 372 782 346 791 q 414 759 397 772 q 444 731 430 745 q 474 707 458 718 q 510 694 491 696 q 522 688 517 693 q 527 675 527 683 q 522 662 527 667 q 508 657 516 657 m 111 271 q 112 219 111 239 q 115 173 113 199 q 124 129 118 146 q 140 92 130 112 q 166 61 151 73 q 204 38 182 49 q 256 23 226 28 q 324 18 286 18 q 421 30 381 18 q 483 61 460 42 q 518 111 505 79 q 534 173 530 143 q 537 248 537 203 l 537 555 q 543 569 537 563 q 555 574 548 574 q 569 569 563 574 q 574 555 574 563 l 574 250 q 578 99 577 110 q 606 28 583 43 q 648 18 621 18 q 661 13 656 18 q 667 0 667 7 q 661 -13 667 -7 q 648 -18 656 -18 q 574 5 597 -18 q 543 78 551 29 q 324 -18 490 -18 q 121 53 178 -18 q 77 -1 110 16 q 3 -18 45 -18 q -18 0 -18 -18 q 3 18 -18 18 q 68 40 47 18 q 90 96 90 61 q 86 121 90 106 q 79 177 83 137 q 75 285 75 217 l 75 555 q 80 569 75 563 q 94 574 86 574 q 106 569 101 574 q 112 555 112 563 l 111 271 z "},"":{"ha":648,"x_min":-18,"x_max":667,"o":"m 416 768 q 457 751 443 768 q 472 714 472 734 q 454 672 472 688 q 417 657 437 657 l 416 657 q 375 675 390 658 q 361 712 361 692 q 378 753 361 739 q 415 768 395 768 l 416 768 m 435 713 q 429 726 435 720 q 415 731 424 731 q 403 725 408 731 q 398 712 398 720 q 404 700 398 705 q 418 695 410 695 q 435 713 435 695 m 231 768 q 272 751 258 768 q 286 714 286 734 q 269 672 286 688 q 232 657 252 657 l 231 657 q 190 675 205 658 q 176 712 176 692 q 193 753 176 739 q 230 768 210 768 l 231 768 m 245 700 q 247 703 245 700 q 250 713 250 705 q 244 727 250 722 q 230 732 238 732 q 217 726 222 732 q 212 712 212 720 q 218 699 212 704 q 232 694 224 694 q 245 700 240 694 m 111 271 q 112 219 111 239 q 115 173 113 199 q 124 129 118 146 q 140 92 130 112 q 166 61 151 73 q 204 38 182 49 q 256 23 226 28 q 324 18 286 18 q 421 30 381 18 q 483 61 460 42 q 518 111 505 79 q 534 173 530 143 q 537 248 537 203 l 537 555 q 543 569 537 563 q 555 574 548 574 q 569 569 563 574 q 574 555 574 563 l 574 250 q 578 99 577 110 q 606 28 583 43 q 648 18 621 18 q 661 13 656 18 q 667 0 667 7 q 661 -13 667 -7 q 648 -18 656 -18 q 574 5 597 -18 q 543 78 551 29 q 324 -18 490 -18 q 121 53 178 -18 q 77 -1 110 16 q 3 -18 45 -18 q -18 0 -18 -18 q 3 18 -18 18 q 68 40 47 18 q 90 96 90 61 q 86 121 90 106 q 79 177 83 137 q 75 285 75 217 l 75 555 q 80 569 75 563 q 94 574 86 574 q 106 569 101 574 q 112 555 112 563 l 111 271 z "},"":{"ha":741,"x_min":-18,"x_max":760,"o":"m 524 831 q 536 826 531 831 q 542 812 542 821 q 537 800 542 804 q 401 696 477 735 q 218 658 326 658 q 205 663 210 658 q 199 676 199 669 q 205 689 199 684 q 218 694 210 694 q 328 708 277 694 q 410 743 378 722 q 465 783 441 763 q 503 817 488 803 q 524 831 517 831 m 74 555 q 79 569 74 563 q 93 574 85 574 q 109 565 103 574 l 418 35 l 633 564 q 649 574 637 574 q 663 569 656 574 q 669 557 669 564 q 667 549 669 552 l 397 -113 q 539 -13 458 -43 q 740 18 620 18 l 741 18 q 754 13 748 18 q 760 0 760 7 q 754 -13 760 -7 q 741 -18 748 -18 l 740 -18 q 615 -28 667 -18 q 517 -59 563 -37 q 434 -123 471 -81 q 363 -223 397 -164 q 292 -370 330 -282 l 215 -560 q 199 -571 210 -571 q 185 -566 191 -571 q 179 -553 179 -561 q 180 -546 179 -549 l 400 -8 l 245 257 q 220 159 244 209 q 161 70 196 109 q 82 7 125 32 q 0 -17 39 -17 q -13 -12 -7 -17 q -18 1 -18 -6 q -13 14 -18 9 q 0 20 -7 20 q 65 41 28 20 q 133 95 102 62 q 186 173 165 127 q 208 262 208 218 q 207 288 208 275 q 203 311 205 300 q 198 328 200 322 q 193 344 197 334 q 189 355 189 354 l 77 546 q 74 555 74 549 z "},"":{"ha":648,"x_min":-18,"x_max":667,"o":"m 111 -553 q 106 -567 111 -561 q 93 -572 100 -572 q 80 -567 85 -572 q 74 -553 74 -561 l 73 28 q 0 -18 40 -18 q -13 -13 -7 -18 q -18 0 -18 -7 q -13 13 -18 7 q 0 18 -7 18 q 43 51 20 18 q 73 120 66 83 l 73 1106 q 78 1119 73 1114 q 92 1125 84 1125 q 104 1119 99 1125 q 110 1106 110 1114 l 111 486 q 324 574 165 574 q 543 479 490 574 q 574 309 572 425 q 574 278 574 296 q 566 147 574 193 q 563 122 567 141 q 559 91 559 104 q 584 35 559 52 q 646 18 609 18 q 667 0 667 18 q 646 -18 667 -18 q 571 -1 604 -18 q 527 54 538 16 q 324 -18 469 -18 q 111 68 165 -18 l 111 -553 m 324 537 q 139 462 182 537 q 111 315 113 417 q 111 279 111 302 q 124 129 111 173 q 229 29 148 52 q 324 18 268 18 q 509 94 465 18 q 537 242 535 140 q 537 278 537 256 q 537 320 537 304 q 535 360 536 336 q 531 398 534 384 q 523 431 528 412 q 509 462 517 450 q 490 487 501 473 q 463 508 478 500 q 427 524 447 516 q 381 534 407 531 q 324 537 355 537 z "},"":{"ha":741,"x_min":-18,"x_max":760,"o":"m 463 769 q 504 751 490 768 q 519 715 519 734 q 501 673 519 688 q 464 658 484 658 l 463 658 q 422 676 437 659 q 408 713 408 693 q 425 754 408 739 q 462 769 442 769 l 463 769 m 481 714 q 476 726 481 721 q 462 732 471 732 q 450 726 454 732 q 445 713 445 720 q 451 701 445 705 q 465 696 457 696 q 481 714 481 696 m 278 769 q 319 751 304 768 q 333 715 333 734 q 316 673 333 688 q 279 658 298 658 l 278 658 q 237 676 252 659 q 222 713 222 693 q 240 754 222 739 q 277 769 257 769 l 278 769 m 292 701 q 294 703 292 701 q 296 714 296 706 q 291 727 296 722 q 277 732 285 732 q 264 727 269 732 q 259 713 259 721 q 265 700 259 705 q 279 695 271 695 q 292 701 287 695 m 74 555 q 79 569 74 563 q 93 574 85 574 q 109 565 103 574 l 418 35 l 633 564 q 649 574 637 574 q 663 569 656 574 q 669 557 669 564 q 667 549 669 552 l 397 -113 q 539 -13 458 -43 q 740 18 620 18 l 741 18 q 754 13 748 18 q 760 0 760 7 q 754 -13 760 -7 q 741 -18 748 -18 l 740 -18 q 615 -28 667 -18 q 517 -59 563 -37 q 434 -123 471 -81 q 363 -223 397 -164 q 292 -370 330 -282 l 215 -560 q 199 -571 210 -571 q 185 -566 191 -571 q 179 -553 179 -561 q 180 -546 179 -549 l 400 -8 l 245 257 q 220 159 244 209 q 161 70 196 109 q 82 7 125 32 q 0 -17 39 -17 q -13 -12 -7 -17 q -18 1 -18 -6 q -13 14 -18 9 q 0 20 -7 20 q 65 41 28 20 q 133 95 102 62 q 186 173 165 127 q 208 262 208 218 q 207 288 208 275 q 203 311 205 300 q 198 328 200 322 q 193 344 197 334 q 189 355 189 354 l 77 546 q 74 555 74 549 z "},"":{"ha":1111,"x_min":-18,"x_max":1130,"o":"m 429 1219 q 426 1222 429 1219 q 423 1233 423 1224 q 429 1246 423 1242 q 441 1251 435 1251 l 669 1251 q 683 1245 678 1251 q 688 1233 688 1240 q 683 1220 688 1226 q 669 1214 678 1214 l 441 1214 q 429 1219 435 1214 m 377 574 l 746 574 l 558 1061 l 377 574 m 541 1120 q 558 1131 545 1130 q 576 1120 570 1131 q 734 712 637 963 q 938 203 890 307 q 1042 40 996 75 q 1111 18 1070 18 q 1124 13 1118 18 q 1130 0 1130 7 q 1124 -13 1130 -7 q 1111 -18 1118 -18 q 1067 -14 1086 -18 q 1027 6 1048 -9 q 990 38 1007 20 q 953 91 974 56 q 915 163 932 126 q 870 261 897 199 q 820 383 844 322 q 760 537 796 444 l 363 537 q 307 388 329 445 q 260 269 286 332 q 217 170 235 205 q 178 98 200 135 q 138 42 156 60 q 98 8 121 24 q 52 -13 75 -7 q 0 -18 28 -18 q -13 -13 -7 -18 q -18 0 -18 -7 q -13 13 -18 7 q 0 18 -7 18 q 106 60 64 18 q 218 262 154 109 q 391 722 249 339 q 541 1120 471 938 z "},"":{"ha":648,"x_min":-18,"x_max":667,"o":"m 198 662 q 195 664 198 662 q 192 675 192 667 q 198 689 192 684 q 210 694 203 694 l 438 694 q 452 688 447 694 q 457 675 457 682 q 452 663 457 669 q 438 656 447 656 l 210 656 q 198 662 203 656 m 90 96 q 82 147 90 100 q 74 279 74 194 q 88 435 74 387 q 231 565 118 539 q 324 574 271 574 q 537 489 483 574 l 537 555 q 543 569 537 563 q 555 574 548 574 q 569 569 563 574 q 574 555 574 563 l 574 140 q 575 123 574 134 q 579 83 577 95 q 585 55 581 71 q 596 33 589 39 q 616 23 604 27 q 648 18 629 18 q 661 13 656 18 q 667 0 667 7 q 661 -13 667 -7 q 648 -18 656 -18 q 572 6 594 -18 q 543 78 549 31 q 324 -18 490 -18 q 121 53 178 -18 q 77 -1 110 16 q 3 -18 45 -18 q -18 0 -18 -18 q 3 18 -18 18 q 68 40 47 18 q 90 96 90 61 m 111 279 q 124 129 111 173 q 229 29 148 52 q 324 18 268 18 q 509 94 465 18 q 537 242 535 140 q 537 278 537 256 q 537 320 537 304 q 535 360 536 336 q 531 398 534 384 q 523 431 528 412 q 509 462 517 450 q 490 487 501 473 q 463 508 478 500 q 427 524 447 516 q 381 534 407 531 q 324 537 355 537 q 139 462 182 537 q 111 315 113 417 q 111 279 111 302 z "},"":{"ha":1111,"x_min":-18,"x_max":1130,"o":"m 628 1227 q 610 1221 628 1227 q 550 1214 591 1214 q 473 1227 509 1214 q 418 1260 438 1241 q 388 1294 399 1278 q 377 1317 377 1310 q 383 1330 377 1324 q 397 1335 389 1335 q 412 1326 408 1335 q 469 1270 432 1289 q 550 1251 506 1251 q 636 1271 595 1251 q 700 1327 676 1291 q 714 1336 706 1336 q 728 1330 722 1336 q 734 1317 734 1324 q 722 1294 734 1310 q 687 1259 709 1278 q 628 1227 665 1241 m 377 574 l 746 574 l 558 1061 l 377 574 m 541 1120 q 558 1131 545 1130 q 576 1120 570 1131 q 734 712 637 963 q 938 203 890 307 q 1042 40 996 75 q 1111 18 1070 18 q 1124 13 1118 18 q 1130 0 1130 7 q 1124 -13 1130 -7 q 1111 -18 1118 -18 q 1067 -14 1086 -18 q 1027 6 1048 -9 q 990 38 1007 20 q 953 91 974 56 q 915 163 932 126 q 870 261 897 199 q 820 383 844 322 q 760 537 796 444 l 363 537 q 307 388 329 445 q 260 269 286 332 q 217 170 235 205 q 178 98 200 135 q 138 42 156 60 q 98 8 121 24 q 52 -13 75 -7 q 0 -18 28 -18 q -13 -13 -7 -18 q -18 0 -18 -7 q -13 13 -18 7 q 0 18 -7 18 q 106 60 64 18 q 218 262 154 109 q 391 722 249 339 q 541 1120 471 938 z "},"":{"ha":648,"x_min":-18,"x_max":667,"o":"m 397 671 q 379 664 397 671 q 319 657 360 657 q 242 671 277 657 q 187 703 207 684 q 157 737 168 722 q 146 760 146 753 q 152 773 146 768 q 166 779 158 779 q 181 769 176 779 q 238 713 201 732 q 319 694 275 694 q 405 714 364 694 q 469 770 445 734 q 483 779 475 779 q 497 773 490 779 q 503 760 503 768 q 490 737 503 753 q 456 703 477 721 q 397 671 434 684 m 90 96 q 82 147 90 100 q 74 279 74 194 q 88 435 74 387 q 231 565 118 539 q 324 574 271 574 q 537 489 483 574 l 537 555 q 543 569 537 563 q 555 574 548 574 q 569 569 563 574 q 574 555 574 563 l 574 140 q 575 123 574 134 q 579 83 577 95 q 585 55 581 71 q 596 33 589 39 q 616 23 604 27 q 648 18 629 18 q 661 13 656 18 q 667 0 667 7 q 661 -13 667 -7 q 648 -18 656 -18 q 572 6 594 -18 q 543 78 549 31 q 324 -18 490 -18 q 121 53 178 -18 q 77 -1 110 16 q 3 -18 45 -18 q -18 0 -18 -18 q 3 18 -18 18 q 68 40 47 18 q 90 96 90 61 m 111 279 q 124 129 111 173 q 229 29 148 52 q 324 18 268 18 q 509 94 465 18 q 537 242 535 140 q 537 278 537 256 q 537 320 537 304 q 535 360 536 336 q 531 398 534 384 q 523 431 528 412 q 509 462 517 450 q 490 487 501 473 q 463 508 478 500 q 427 524 447 516 q 381 534 407 531 q 324 537 355 537 q 139 462 182 537 q 111 315 113 417 q 111 279 111 302 z "},"":{"ha":1111,"x_min":-18,"x_max":1130,"o":"m 1044 -10 q 1030 -44 1044 -14 q 1003 -114 1017 -73 q 989 -185 989 -155 q 1011 -244 989 -223 q 1092 -264 1034 -264 q 1106 -270 1101 -264 q 1111 -283 1111 -276 q 1106 -296 1111 -290 q 1092 -302 1101 -302 q 986 -270 1021 -302 q 952 -185 952 -237 q 960 -129 952 -160 q 976 -77 968 -97 q 996 -31 984 -56 q 1008 -3 1007 -5 q 1023 7 1012 7 q 1037 2 1031 7 q 1044 -10 1044 -3 m 377 574 l 746 574 l 558 1061 l 377 574 m 541 1120 q 558 1131 545 1130 q 576 1120 570 1131 q 734 712 637 963 q 938 203 890 307 q 1042 40 996 75 q 1111 18 1070 18 q 1124 13 1118 18 q 1130 0 1130 7 q 1124 -13 1130 -7 q 1111 -18 1118 -18 q 1067 -14 1086 -18 q 1027 6 1048 -9 q 990 38 1007 20 q 953 91 974 56 q 915 163 932 126 q 870 261 897 199 q 820 383 844 322 q 760 537 796 444 l 363 537 q 307 388 329 445 q 260 269 286 332 q 217 170 235 205 q 178 98 200 135 q 138 42 156 60 q 98 8 121 24 q 52 -13 75 -7 q 0 -18 28 -18 q -13 -13 -7 -18 q -18 0 -18 -7 q -13 13 -18 7 q 0 18 -7 18 q 106 60 64 18 q 218 262 154 109 q 391 722 249 339 q 541 1120 471 938 z "},"":{"ha":648,"x_min":-18,"x_max":667,"o":"m 580 -26 q 566 -60 580 -31 q 539 -130 553 -90 q 526 -201 526 -171 q 548 -260 526 -239 q 628 -281 570 -281 q 642 -287 637 -281 q 647 -299 647 -292 q 642 -312 647 -306 q 628 -318 637 -318 q 523 -286 557 -318 q 488 -201 488 -254 q 496 -145 488 -176 q 512 -93 504 -113 q 532 -47 520 -73 q 544 -20 543 -22 q 559 -9 548 -9 q 573 -14 567 -9 q 580 -26 580 -19 m 90 96 q 82 147 90 100 q 74 279 74 194 q 88 435 74 387 q 231 565 118 539 q 324 574 271 574 q 537 489 483 574 l 537 555 q 543 569 537 563 q 555 574 548 574 q 569 569 563 574 q 574 555 574 563 l 574 140 q 575 123 574 134 q 579 83 577 95 q 585 55 581 71 q 596 33 589 39 q 616 23 604 27 q 648 18 629 18 q 661 13 656 18 q 667 0 667 7 q 661 -13 667 -7 q 648 -18 656 -18 q 572 6 594 -18 q 543 78 549 31 q 324 -18 490 -18 q 121 53 178 -18 q 77 -1 110 16 q 3 -18 45 -18 q -18 0 -18 -18 q 3 18 -18 18 q 68 40 47 18 q 90 96 90 61 m 111 279 q 124 129 111 173 q 229 29 148 52 q 324 18 268 18 q 509 94 465 18 q 537 242 535 140 q 537 278 537 256 q 537 320 537 304 q 535 360 536 336 q 531 398 534 384 q 523 431 528 412 q 509 462 517 450 q 490 487 501 473 q 463 508 478 500 q 427 524 447 516 q 381 534 407 531 q 324 537 355 537 q 139 462 182 537 q 111 315 113 417 q 111 279 111 302 z "},"":{"ha":1111,"x_min":-18,"x_max":1130,"o":"m 709 1385 q 722 1380 716 1385 q 727 1367 727 1375 q 722 1354 727 1359 q 586 1251 662 1290 q 403 1213 511 1213 q 390 1218 395 1213 q 385 1231 385 1223 q 390 1244 385 1238 q 403 1249 395 1249 q 513 1263 462 1249 q 595 1297 564 1277 q 650 1338 627 1318 q 688 1372 673 1358 q 709 1385 703 1385 m 941 905 q 927 915 934 905 q 909 942 920 926 q 884 978 899 958 q 842 1019 869 998 q 777 1055 814 1039 q 679 1082 739 1072 q 544 1093 618 1093 l 542 1093 q 187 961 283 1092 q 115 709 125 876 q 111 558 111 657 q 124 312 111 388 q 248 92 150 161 q 555 18 353 18 q 641 32 598 18 q 712 63 683 46 q 784 93 742 79 q 867 107 825 107 q 927 98 901 107 q 972 76 954 89 q 1008 50 990 62 q 1052 27 1026 37 q 1111 18 1078 18 q 1124 13 1118 18 q 1130 0 1130 7 q 1124 -13 1130 -7 q 1111 -18 1118 -18 q 1044 -9 1074 -18 q 997 13 1015 0 q 960 39 978 26 q 919 61 943 52 q 867 71 895 71 q 792 57 831 71 q 723 26 753 43 q 647 -4 692 9 q 555 -18 602 -18 q 176 106 289 -18 q 115 17 165 53 q 0 -18 66 -18 q -13 -13 -7 -18 q -18 0 -18 -7 q -13 13 -18 7 q 0 18 -7 18 q 101 53 61 18 q 142 130 142 87 q 135 163 142 149 q 118 198 127 178 q 98 254 108 219 q 81 368 88 290 q 74 558 74 446 q 90 819 74 734 q 245 1065 123 991 q 541 1130 353 1130 l 542 1130 q 809 1081 711 1130 q 958 932 908 1033 q 960 924 960 928 q 954 910 960 916 q 941 905 948 905 z "},"":{"ha":648,"x_min":-18,"x_max":667,"o":"m 477 830 q 490 825 485 830 q 496 812 496 820 q 491 799 496 804 q 355 696 431 734 q 172 657 279 657 q 159 663 164 657 q 153 675 153 668 q 159 688 153 683 q 172 694 164 694 q 281 708 231 694 q 364 742 332 722 q 419 782 395 762 q 457 816 442 802 q 477 830 471 830 m 545 332 q 538 333 542 332 q 530 338 535 334 q 526 351 526 343 q 530 369 526 355 q 534 400 534 383 q 480 497 534 456 q 324 537 426 537 q 139 462 182 537 q 111 315 113 417 q 111 279 111 302 q 124 129 111 173 q 229 29 148 52 q 324 18 268 18 q 393 32 361 18 q 451 58 425 45 q 501 71 477 71 q 557 58 532 71 q 604 32 583 45 q 648 18 626 18 q 661 13 656 18 q 667 0 667 7 q 661 -13 667 -7 q 648 -18 656 -18 q 594 -5 618 -18 q 549 21 570 8 q 501 35 527 35 q 459 21 484 35 q 399 -5 434 8 q 324 -18 365 -18 q 121 53 178 -18 q 77 -1 110 16 q 3 -18 45 -18 q -18 0 -18 -18 q 3 18 -18 18 q 68 40 47 18 q 90 96 90 61 q 82 147 90 100 q 74 279 74 194 q 88 436 74 387 q 229 564 118 538 q 324 574 270 574 q 507 524 444 574 q 570 399 570 473 q 565 355 570 378 q 545 332 559 332 z "},"":{"ha":1111,"x_min":-18,"x_max":1130,"o":"m 740 1213 q 700 1222 718 1213 q 667 1246 681 1232 q 637 1275 652 1261 q 598 1299 621 1289 q 545 1309 574 1309 q 504 1299 523 1309 q 470 1275 484 1289 q 442 1246 456 1261 q 411 1222 429 1232 q 372 1213 393 1213 q 359 1218 364 1213 q 353 1231 353 1223 q 370 1249 353 1246 q 405 1262 389 1251 q 433 1287 420 1273 q 460 1314 446 1301 q 496 1337 474 1328 q 545 1346 517 1346 q 604 1337 578 1346 q 646 1314 629 1328 q 676 1287 662 1301 q 706 1262 690 1273 q 742 1249 723 1251 q 754 1243 749 1249 q 759 1231 759 1238 q 753 1218 759 1223 q 740 1213 748 1213 m 941 905 q 927 915 934 905 q 909 942 920 926 q 884 978 899 958 q 842 1019 869 998 q 777 1055 814 1039 q 679 1082 739 1072 q 544 1093 618 1093 l 542 1093 q 187 961 283 1092 q 115 709 125 876 q 111 558 111 657 q 124 312 111 388 q 248 92 150 161 q 555 18 353 18 q 641 32 598 18 q 712 63 683 46 q 784 93 742 79 q 867 107 825 107 q 927 98 901 107 q 972 76 954 89 q 1008 50 990 62 q 1052 27 1026 37 q 1111 18 1078 18 q 1124 13 1118 18 q 1130 0 1130 7 q 1124 -13 1130 -7 q 1111 -18 1118 -18 q 1044 -9 1074 -18 q 997 13 1015 0 q 960 39 978 26 q 919 61 943 52 q 867 71 895 71 q 792 57 831 71 q 723 26 753 43 q 647 -4 692 9 q 555 -18 602 -18 q 176 106 289 -18 q 115 17 165 53 q 0 -18 66 -18 q -13 -13 -7 -18 q -18 0 -18 -7 q -13 13 -18 7 q 0 18 -7 18 q 101 53 61 18 q 142 130 142 87 q 135 163 142 149 q 118 198 127 178 q 98 254 108 219 q 81 368 88 290 q 74 558 74 446 q 90 819 74 734 q 245 1065 123 991 q 541 1130 353 1130 l 542 1130 q 809 1081 711 1130 q 958 932 908 1033 q 960 924 960 928 q 954 910 960 916 q 941 905 948 905 z "},"":{"ha":648,"x_min":-18,"x_max":667,"o":"m 508 657 q 468 667 486 657 q 435 691 449 677 q 405 720 420 705 q 366 744 389 734 q 313 753 342 753 q 272 744 291 753 q 238 720 252 734 q 210 691 224 705 q 179 667 197 677 q 140 657 161 657 q 127 662 132 657 q 121 675 121 667 q 138 694 121 691 q 173 707 157 696 q 201 731 189 718 q 228 759 214 745 q 264 782 242 772 q 313 791 286 791 q 372 782 346 791 q 414 759 397 772 q 444 731 430 745 q 474 707 458 718 q 510 694 491 696 q 522 688 517 693 q 527 675 527 683 q 522 662 527 667 q 508 657 516 657 m 545 332 q 538 333 542 332 q 530 338 535 334 q 526 351 526 343 q 530 369 526 355 q 534 400 534 383 q 480 497 534 456 q 324 537 426 537 q 139 462 182 537 q 111 315 113 417 q 111 279 111 302 q 124 129 111 173 q 229 29 148 52 q 324 18 268 18 q 393 32 361 18 q 451 58 425 45 q 501 71 477 71 q 557 58 532 71 q 604 32 583 45 q 648 18 626 18 q 661 13 656 18 q 667 0 667 7 q 661 -13 667 -7 q 648 -18 656 -18 q 594 -5 618 -18 q 549 21 570 8 q 501 35 527 35 q 459 21 484 35 q 399 -5 434 8 q 324 -18 365 -18 q 121 53 178 -18 q 77 -1 110 16 q 3 -18 45 -18 q -18 0 -18 -18 q 3 18 -18 18 q 68 40 47 18 q 90 96 90 61 q 82 147 90 100 q 74 279 74 194 q 88 436 74 387 q 229 564 118 538 q 324 574 270 574 q 507 524 444 574 q 570 399 570 473 q 565 355 570 378 q 545 332 559 332 z "},"":{"ha":1111,"x_min":-18,"x_max":1130,"o":"m 525 1226 q 518 1232 525 1226 q 511 1257 511 1239 q 525 1289 511 1276 q 556 1302 538 1302 q 588 1289 574 1302 q 601 1257 601 1276 q 588 1226 601 1239 q 556 1213 574 1213 q 525 1226 538 1213 m 941 905 q 927 915 934 905 q 909 942 920 926 q 884 978 899 958 q 842 1019 869 998 q 777 1055 814 1039 q 679 1082 739 1072 q 544 1093 618 1093 l 542 1093 q 187 961 283 1092 q 115 709 125 876 q 111 558 111 657 q 124 312 111 388 q 248 92 150 161 q 555 18 353 18 q 641 32 598 18 q 712 63 683 46 q 784 93 742 79 q 867 107 825 107 q 927 98 901 107 q 972 76 954 89 q 1008 50 990 62 q 1052 27 1026 37 q 1111 18 1078 18 q 1124 13 1118 18 q 1130 0 1130 7 q 1124 -13 1130 -7 q 1111 -18 1118 -18 q 1044 -9 1074 -18 q 997 13 1015 0 q 960 39 978 26 q 919 61 943 52 q 867 71 895 71 q 792 57 831 71 q 723 26 753 43 q 647 -4 692 9 q 555 -18 602 -18 q 176 106 289 -18 q 115 17 165 53 q 0 -18 66 -18 q -13 -13 -7 -18 q -18 0 -18 -7 q -13 13 -18 7 q 0 18 -7 18 q 101 53 61 18 q 142 130 142 87 q 135 163 142 149 q 118 198 127 178 q 98 254 108 219 q 81 368 88 290 q 74 558 74 446 q 90 819 74 734 q 245 1065 123 991 q 541 1130 353 1130 l 542 1130 q 809 1081 711 1130 q 958 932 908 1033 q 960 924 960 928 q 954 910 960 916 q 941 905 948 905 z "},"":{"ha":648,"x_min":-18,"x_max":667,"o":"m 293 670 q 286 677 293 670 q 279 702 279 684 q 293 733 279 720 q 324 747 306 747 q 356 733 342 747 q 369 702 369 720 q 356 670 369 684 q 324 657 342 657 q 293 670 306 657 m 545 332 q 538 333 542 332 q 530 338 535 334 q 526 351 526 343 q 530 369 526 355 q 534 400 534 383 q 480 497 534 456 q 324 537 426 537 q 139 462 182 537 q 111 315 113 417 q 111 279 111 302 q 124 129 111 173 q 229 29 148 52 q 324 18 268 18 q 393 32 361 18 q 451 58 425 45 q 501 71 477 71 q 557 58 532 71 q 604 32 583 45 q 648 18 626 18 q 661 13 656 18 q 667 0 667 7 q 661 -13 667 -7 q 648 -18 656 -18 q 594 -5 618 -18 q 549 21 570 8 q 501 35 527 35 q 459 21 484 35 q 399 -5 434 8 q 324 -18 365 -18 q 121 53 178 -18 q 77 -1 110 16 q 3 -18 45 -18 q -18 0 -18 -18 q 3 18 -18 18 q 68 40 47 18 q 90 96 90 61 q 82 147 90 100 q 74 279 74 194 q 88 436 74 387 q 229 564 118 538 q 324 574 270 574 q 507 524 444 574 q 570 399 570 473 q 565 355 570 378 q 545 332 559 332 z "},"":{"ha":1111,"x_min":-18,"x_max":1130,"o":"m 740 1346 q 700 1336 718 1346 q 667 1312 681 1326 q 637 1284 652 1298 q 598 1260 621 1270 q 545 1250 574 1250 q 504 1260 523 1250 q 470 1284 484 1270 q 442 1312 456 1298 q 411 1336 429 1326 q 372 1346 393 1346 q 359 1341 364 1346 q 353 1328 353 1336 q 370 1310 353 1312 q 405 1297 389 1308 q 433 1272 420 1286 q 460 1244 446 1258 q 496 1222 474 1231 q 545 1213 517 1213 q 604 1222 578 1213 q 646 1244 629 1231 q 676 1272 662 1258 q 706 1297 690 1286 q 742 1310 723 1308 q 754 1315 749 1310 q 759 1328 759 1320 q 753 1341 759 1336 q 740 1346 748 1346 m 941 905 q 927 915 934 905 q 909 942 920 926 q 884 978 899 958 q 842 1019 869 998 q 777 1055 814 1039 q 679 1082 739 1072 q 544 1093 618 1093 l 542 1093 q 187 961 283 1092 q 115 709 125 876 q 111 558 111 657 q 124 312 111 388 q 248 92 150 161 q 555 18 353 18 q 641 32 598 18 q 712 63 683 46 q 784 93 742 79 q 867 107 825 107 q 927 98 901 107 q 972 76 954 89 q 1008 50 990 62 q 1052 27 1026 37 q 1111 18 1078 18 q 1124 13 1118 18 q 1130 0 1130 7 q 1124 -13 1130 -7 q 1111 -18 1118 -18 q 1044 -9 1074 -18 q 997 13 1015 0 q 960 39 978 26 q 919 61 943 52 q 867 71 895 71 q 792 57 831 71 q 723 26 753 43 q 647 -4 692 9 q 555 -18 602 -18 q 176 106 289 -18 q 115 17 165 53 q 0 -18 66 -18 q -13 -13 -7 -18 q -18 0 -18 -7 q -13 13 -18 7 q 0 18 -7 18 q 101 53 61 18 q 142 130 142 87 q 135 163 142 149 q 118 198 127 178 q 98 254 108 219 q 81 368 88 290 q 74 558 74 446 q 90 819 74 734 q 245 1065 123 991 q 541 1130 353 1130 l 542 1130 q 809 1081 711 1130 q 958 932 908 1033 q 960 924 960 928 q 954 910 960 916 q 941 905 948 905 z "},"":{"ha":648,"x_min":-18,"x_max":667,"o":"m 508 791 q 468 781 486 791 q 435 757 449 771 q 405 728 420 743 q 366 704 389 714 q 313 694 342 694 q 272 704 291 694 q 238 728 252 714 q 210 757 224 743 q 179 781 197 771 q 140 791 161 791 q 127 786 132 791 q 121 772 121 781 q 138 754 121 757 q 173 741 157 752 q 201 716 189 730 q 228 689 214 703 q 264 666 242 675 q 313 657 286 657 q 372 666 346 657 q 414 689 397 675 q 444 716 430 703 q 474 741 458 730 q 510 754 491 752 q 522 760 517 755 q 527 772 527 765 q 522 786 527 781 q 508 791 516 791 m 545 332 q 538 333 542 332 q 530 338 535 334 q 526 351 526 343 q 530 369 526 355 q 534 400 534 383 q 480 497 534 456 q 324 537 426 537 q 139 462 182 537 q 111 315 113 417 q 111 279 111 302 q 124 129 111 173 q 229 29 148 52 q 324 18 268 18 q 393 32 361 18 q 451 58 425 45 q 501 71 477 71 q 557 58 532 71 q 604 32 583 45 q 648 18 626 18 q 661 13 656 18 q 667 0 667 7 q 661 -13 667 -7 q 648 -18 656 -18 q 594 -5 618 -18 q 549 21 570 8 q 501 35 527 35 q 459 21 484 35 q 399 -5 434 8 q 324 -18 365 -18 q 121 53 178 -18 q 77 -1 110 16 q 3 -18 45 -18 q -18 0 -18 -18 q 3 18 -18 18 q 68 40 47 18 q 90 96 90 61 q 82 147 90 100 q 74 279 74 194 q 88 436 74 387 q 229 564 118 538 q 324 574 270 574 q 507 524 444 574 q 570 399 570 473 q 565 355 570 378 q 545 332 559 332 z "},"":{"ha":1037,"x_min":-18,"x_max":1055,"o":"m 702 1346 q 662 1336 680 1346 q 629 1312 643 1326 q 599 1284 614 1298 q 560 1260 583 1270 q 507 1250 536 1250 q 466 1260 485 1250 q 432 1284 446 1270 q 404 1312 418 1298 q 373 1336 391 1326 q 334 1346 355 1346 q 321 1341 326 1346 q 315 1328 315 1336 q 332 1310 315 1312 q 367 1297 351 1308 q 395 1272 382 1286 q 422 1244 408 1258 q 458 1222 436 1231 q 507 1213 479 1213 q 566 1222 540 1213 q 608 1244 591 1231 q 638 1272 624 1258 q 668 1297 652 1286 q 704 1310 685 1308 q 716 1315 711 1310 q 721 1328 721 1320 q 715 1341 721 1336 q 702 1346 710 1346 m 111 959 l 111 153 q 481 18 209 18 q 848 148 748 18 q 922 393 911 231 q 926 557 926 446 q 913 799 926 724 q 791 1019 888 949 q 481 1093 687 1093 q 111 959 210 1093 m 963 557 q 956 367 963 446 q 939 254 949 289 q 919 198 929 219 q 902 163 909 178 q 895 130 895 149 q 936 53 895 87 q 1037 18 976 18 q 1050 13 1044 18 q 1055 0 1055 7 q 1050 -13 1055 -7 q 1037 -18 1044 -18 q 922 17 971 -18 q 861 106 872 53 q 481 -18 748 -18 q 111 96 224 -18 l 111 83 q 84 4 111 27 q 0 -18 56 -18 q -13 -13 -7 -18 q -18 0 -18 -7 q -4 18 -18 14 q 28 20 11 21 q 59 34 45 19 q 74 83 74 49 l 74 1111 q 80 1124 74 1118 q 93 1130 85 1130 q 106 1124 100 1130 q 111 1111 111 1118 l 111 1017 q 481 1130 226 1130 q 886 975 779 1130 q 960 706 950 882 q 963 557 963 656 z "},"":{"ha":648,"x_min":-18,"x_max":1196,"o":"m 1104 872 q 1049 834 1082 872 q 988 750 1016 796 q 931 667 960 705 q 884 629 901 629 q 869 637 874 629 q 869 656 863 646 q 896 698 873 663 q 937 762 919 732 q 969 832 954 791 q 983 907 985 874 q 943 891 973 907 q 875 862 912 876 q 809 847 838 847 q 796 852 802 847 q 791 865 791 858 q 796 878 791 873 q 809 884 802 884 q 903 914 840 884 q 984 945 966 945 q 1021 903 1021 945 q 1009 842 1021 874 q 1104 909 1059 909 q 1143 897 1125 909 q 1164 885 1162 885 l 1168 885 q 1196 865 1196 885 q 1196 858 1196 861 q 1193 853 1195 854 q 1190 850 1191 851 q 1184 848 1188 848 q 1179 848 1181 848 q 1173 848 1178 848 q 1168 848 1168 848 l 1164 848 q 1132 860 1146 848 q 1104 872 1117 872 m 90 96 q 82 147 90 100 q 74 279 74 194 q 88 435 74 387 q 231 565 118 539 q 324 574 271 574 q 537 489 483 574 l 537 926 q 543 939 537 933 q 555 945 548 945 q 569 939 563 945 q 574 926 574 933 l 574 140 q 575 123 574 134 q 579 83 577 95 q 585 55 581 71 q 596 33 589 39 q 616 23 604 27 q 648 18 629 18 q 661 13 656 18 q 667 0 667 7 q 661 -13 667 -7 q 648 -18 656 -18 q 572 6 594 -18 q 543 78 549 31 q 324 -18 490 -18 q 121 53 178 -18 q 77 -1 110 16 q 3 -18 45 -18 q -18 0 -18 -18 q 3 18 -18 18 q 68 40 47 18 q 90 96 90 61 m 111 279 q 124 129 111 173 q 229 29 148 52 q 324 18 268 18 q 507 93 465 18 q 535 239 534 138 q 535 278 535 252 q 523 426 535 383 q 424 525 501 501 q 324 537 383 537 q 139 462 182 537 q 111 315 113 417 q 111 279 111 302 z "},"":{"ha":1037,"x_min":-19,"x_max":1055,"o":"m 111 153 q 481 18 209 18 q 848 148 748 18 q 922 393 911 231 q 926 557 926 446 q 913 799 926 724 q 791 1019 888 949 q 481 1093 687 1093 q 111 959 210 1093 l 111 732 l 387 732 q 400 727 395 732 q 406 714 406 721 q 400 702 406 707 q 387 696 395 696 l 111 696 l 111 153 m 963 557 q 956 367 963 446 q 939 254 949 289 q 919 198 929 219 q 902 163 909 178 q 895 130 895 149 q 936 53 895 87 q 1037 18 976 18 q 1050 13 1044 18 q 1055 0 1055 7 q 1050 -13 1055 -7 q 1037 -18 1044 -18 q 922 17 971 -18 q 861 106 872 53 q 481 -18 748 -18 q 111 96 224 -18 l 111 83 q 84 4 111 27 q 0 -18 56 -18 q -13 -13 -7 -18 q -18 0 -18 -7 q -4 18 -18 14 q 28 20 11 21 q 59 34 45 19 q 74 83 74 49 l 74 696 l 0 696 q -13 701 -7 696 q -19 714 -19 706 q -13 727 -19 722 q 0 732 -7 732 l 74 732 l 74 1111 q 80 1124 74 1118 q 93 1130 85 1130 q 106 1124 100 1130 q 111 1111 111 1118 l 111 1017 q 481 1130 226 1130 q 886 975 779 1130 q 960 706 950 882 q 963 557 963 656 z "},"":{"ha":648,"x_min":-18,"x_max":667,"o":"m 90 96 q 82 147 90 100 q 74 279 74 194 q 88 435 74 387 q 231 565 118 539 q 324 574 271 574 q 537 489 483 574 l 537 750 l 376 750 q 364 755 370 750 q 358 769 358 760 q 364 783 358 778 q 376 788 370 788 l 537 788 l 537 926 q 543 939 537 933 q 555 945 548 945 q 569 939 563 945 q 574 926 574 933 l 574 788 l 635 788 q 649 782 644 788 q 654 769 654 776 q 649 756 654 762 q 635 750 644 750 l 574 750 l 574 140 q 575 123 574 134 q 579 83 577 95 q 585 55 581 71 q 596 33 589 39 q 616 23 604 27 q 648 18 629 18 q 661 13 656 18 q 667 0 667 7 q 661 -13 667 -7 q 648 -18 656 -18 q 572 6 594 -18 q 543 78 549 31 q 324 -18 490 -18 q 121 53 178 -18 q 77 -1 110 16 q 3 -18 45 -18 q -18 0 -18 -18 q 3 18 -18 18 q 68 40 47 18 q 90 96 90 61 m 324 537 q 139 462 182 537 q 111 315 113 417 q 111 279 111 302 q 113 210 111 238 q 119 153 115 182 q 134 104 124 123 q 158 67 143 85 q 196 40 174 50 q 251 24 219 30 q 324 18 283 18 q 509 94 465 18 q 537 242 535 140 q 537 278 537 256 q 537 320 537 304 q 535 360 536 336 q 531 398 534 384 q 523 431 528 412 q 509 462 517 450 q 490 487 501 473 q 463 508 478 500 q 427 524 447 516 q 381 534 407 531 q 324 537 355 537 z "},"":{"ha":739,"x_min":-18,"x_max":758,"o":"m 243 1218 q 240 1220 243 1218 q 237 1232 237 1223 q 243 1245 237 1240 q 256 1250 249 1250 l 484 1250 q 497 1244 492 1250 q 503 1232 503 1238 q 497 1219 503 1225 q 484 1213 492 1213 l 256 1213 q 243 1218 249 1213 m -18 0 q -4 18 -18 14 q 28 20 11 21 q 59 34 45 19 q 74 83 74 49 l 74 1111 q 80 1124 74 1118 q 93 1130 85 1130 l 738 1130 q 751 1124 745 1130 q 757 1111 757 1118 q 751 1098 757 1103 q 738 1093 745 1093 l 111 1093 l 111 574 l 687 574 q 700 569 694 574 q 705 555 705 563 q 700 543 705 548 q 687 537 694 537 l 111 537 l 111 81 q 183 18 111 20 l 739 18 q 752 13 746 18 q 758 0 758 7 q 752 -13 758 -7 q 739 -18 746 -18 l 183 -18 q 95 17 123 -18 q 0 -18 71 -18 q -9 -14 -5 -18 q -16 -5 -14 -9 l -18 0 z "},"":{"ha":648,"x_min":-18,"x_max":667,"o":"m 198 662 q 195 664 198 662 q 192 675 192 667 q 198 689 192 684 q 210 694 203 694 l 438 694 q 452 688 447 694 q 457 675 457 682 q 452 663 457 669 q 438 656 447 656 l 210 656 q 198 662 203 656 m 90 96 q 81 153 90 104 q 72 260 72 201 q 74 331 72 300 q 81 395 75 361 q 98 454 87 429 q 128 503 109 479 q 173 542 147 527 q 238 565 199 556 q 324 574 276 574 q 428 558 380 574 q 504 516 475 542 q 550 460 534 490 q 566 400 566 430 q 546 337 566 364 q 491 293 526 309 q 413 267 456 277 q 318 251 370 256 q 220 245 267 247 q 125 242 174 243 q 110 242 115 242 l 111 227 q 122 146 112 181 q 154 81 132 112 q 220 35 177 51 q 324 18 262 18 q 418 45 366 18 q 501 71 471 71 q 551 63 528 71 q 587 45 574 55 q 617 26 600 35 q 648 18 633 18 q 662 13 656 18 q 667 0 667 7 q 662 -13 667 -7 q 648 -19 656 -19 q 600 -6 623 -19 q 553 21 576 7 q 501 34 529 34 q 455 21 481 34 q 396 -6 429 7 q 324 -19 363 -19 q 123 60 186 -19 q 80 1 113 20 q 3 -18 46 -18 q -18 0 -18 -18 q 3 18 -18 18 q 68 40 47 18 q 90 96 90 61 m 529 400 q 516 445 529 422 q 478 489 503 468 q 414 524 454 510 q 324 537 373 537 q 250 529 283 537 q 195 509 217 522 q 156 476 172 496 q 132 436 140 456 q 118 387 123 416 q 111 335 113 359 q 110 279 110 311 q 223 283 176 281 q 321 290 270 286 q 408 303 373 295 q 471 325 442 312 q 515 356 500 337 q 529 400 529 375 z "},"":{"ha":739,"x_min":-18,"x_max":758,"o":"m 443 1226 q 424 1219 443 1226 q 364 1213 406 1213 q 288 1226 323 1213 q 233 1258 252 1240 q 202 1293 213 1277 q 191 1316 191 1308 q 197 1329 191 1323 q 212 1334 203 1334 q 227 1324 222 1334 q 283 1269 246 1288 q 364 1250 320 1250 q 450 1270 410 1250 q 514 1326 490 1290 q 528 1335 520 1335 q 542 1329 536 1335 q 549 1316 549 1323 q 536 1292 549 1308 q 501 1258 523 1276 q 443 1226 479 1240 m -18 0 q -4 18 -18 14 q 28 20 11 21 q 59 34 45 19 q 74 83 74 49 l 74 1111 q 80 1124 74 1118 q 93 1130 85 1130 l 738 1130 q 751 1124 745 1130 q 757 1111 757 1118 q 751 1098 757 1103 q 738 1093 745 1093 l 111 1093 l 111 574 l 687 574 q 700 569 694 574 q 705 555 705 563 q 700 543 705 548 q 687 537 694 537 l 111 537 l 111 81 q 183 18 111 20 l 739 18 q 752 13 746 18 q 758 0 758 7 q 752 -13 758 -7 q 739 -18 746 -18 l 183 -18 q 95 17 123 -18 q 0 -18 71 -18 q -9 -14 -5 -18 q -16 -5 -14 -9 l -18 0 z "}}}
